<svg width="130" height="92" viewBox="0 0 130 92" fill="none" xmlns="http://www.w3.org/2000/svg">
<path d="M4.16939 5.97301V6.75426H0.987571V5.97301H4.16939ZM8.769 5.97301V6.75426H5.58718V5.97301H8.769ZM10.3572 10V2.72727H11.2379V6.33523H11.3232L14.5902 2.72727H15.7408L12.6868 6.00852L15.7408 10H14.6754L12.147 6.61932L11.2379 7.64205V10H10.3572Z" fill="#636779"/>
<path d="M4.16939 25.973V26.7543H0.987571V25.973H4.16939ZM8.769 25.973V26.7543H5.58718V25.973H8.769ZM10.3572 30V22.7273H11.2379V26.3352H11.3232L14.5902 22.7273H15.7408L12.6868 26.0085L15.7408 30H14.6754L12.147 26.6193L11.2379 27.642V30H10.3572Z" fill="#636779"/>
<path d="M4.16939 45.973V46.7543H0.987571V45.973H4.16939ZM8.769 45.973V46.7543H5.58718V45.973H8.769ZM10.3572 50V42.7273H11.2379V46.3352H11.3232L14.5902 42.7273H15.7408L12.6868 46.0085L15.7408 50H14.6754L12.147 46.6193L11.2379 47.642V50H10.3572Z" fill="#636779"/>
<path d="M4.16939 65.973V66.7543H0.987571V65.973H4.16939ZM8.769 65.973V66.7543H5.58718V65.973H8.769ZM10.3572 70V62.7273H11.2379V66.3352H11.3232L14.5902 62.7273H15.7408L12.6868 66.0085L15.7408 70H14.6754L12.147 66.6193L11.2379 67.642V70H10.3572Z" fill="#636779"/>
<path d="M4.16939 85.973V86.7543H0.987571V85.973H4.16939ZM8.769 85.973V86.7543H5.58718V85.973H8.769ZM10.3572 90V82.7273H11.2379V86.3352H11.3232L14.5902 82.7273H15.7408L12.6868 86.0085L15.7408 90H14.6754L12.147 86.6193L11.2379 87.642V90H10.3572Z" fill="#636779"/>
<line x1="24" y1="87.5" x2="130" y2="87.5" stroke="#E0E2EB" stroke-dasharray="2 2"/>
<line x1="24" y1="66.5" x2="130" y2="66.5" stroke="#E0E2EB" stroke-dasharray="2 2"/>
<line x1="24" y1="45.5" x2="130" y2="45.5" stroke="#E0E2EB" stroke-dasharray="2 2"/>
<line x1="24" y1="24.5" x2="130" y2="24.5" stroke="#E0E2EB" stroke-dasharray="2 2"/>
<line x1="24" y1="3.5" x2="130" y2="3.5" stroke="#E0E2EB" stroke-dasharray="2 2"/>
</svg>
