<svg width="131" height="92" viewBox="0 0 131 92" fill="none" xmlns="http://www.w3.org/2000/svg">
<path d="M1.14293 8.50852V7.78409L4.33896 2.72727H4.86452V3.84943H4.50941L2.09464 7.67045V7.72727H6.39862V8.50852H1.14293ZM4.56623 10V8.28835V7.95099V2.72727H5.4043V10H4.56623ZM10.1016 10.0994C9.56652 10.0994 9.1108 9.95384 8.73438 9.66264C8.35795 9.36908 8.07031 8.94413 7.87145 8.38778C7.67259 7.82907 7.57315 7.15436 7.57315 6.36364C7.57315 5.57765 7.67259 4.90649 7.87145 4.35014C8.07268 3.79143 8.36151 3.36529 8.73793 3.07173C9.11671 2.7758 9.57126 2.62784 10.1016 2.62784C10.6319 2.62784 11.0852 2.7758 11.4616 3.07173C11.8404 3.36529 12.1293 3.79143 12.3281 4.35014C12.5294 4.90649 12.63 5.57765 12.63 6.36364C12.63 7.15436 12.5305 7.82907 12.3317 8.38778C12.1328 8.94413 11.8452 9.36908 11.4688 9.66264C11.0923 9.95384 10.6366 10.0994 10.1016 10.0994ZM10.1016 9.31818C10.6319 9.31818 11.0438 9.0625 11.3374 8.55114C11.6309 8.03977 11.7777 7.31061 11.7777 6.36364C11.7777 5.7339 11.7102 5.19768 11.5753 4.75497C11.4427 4.31226 11.2509 3.97491 11 3.7429C10.7514 3.51089 10.4519 3.39489 10.1016 3.39489C9.57599 3.39489 9.16525 3.65412 8.86932 4.17259C8.57339 4.68868 8.42543 5.41903 8.42543 6.36364C8.42543 6.99337 8.49171 7.52841 8.62429 7.96875C8.75687 8.40909 8.94744 8.74408 9.19602 8.97372C9.44697 9.20336 9.74882 9.31818 10.1016 9.31818ZM16.3516 10.0994C15.8165 10.0994 15.3608 9.95384 14.9844 9.66264C14.608 9.36908 14.3203 8.94413 14.1214 8.38778C13.9226 7.82907 13.8232 7.15436 13.8232 6.36364C13.8232 5.57765 13.9226 4.90649 14.1214 4.35014C14.3227 3.79143 14.6115 3.36529 14.9879 3.07173C15.3667 2.7758 15.8213 2.62784 16.3516 2.62784C16.8819 2.62784 17.3352 2.7758 17.7116 3.07173C18.0904 3.36529 18.3793 3.79143 18.5781 4.35014C18.7794 4.90649 18.88 5.57765 18.88 6.36364C18.88 7.15436 18.7805 7.82907 18.5817 8.38778C18.3828 8.94413 18.0952 9.36908 17.7188 9.66264C17.3423 9.95384 16.8866 10.0994 16.3516 10.0994ZM16.3516 9.31818C16.8819 9.31818 17.2938 9.0625 17.5874 8.55114C17.8809 8.03977 18.0277 7.31061 18.0277 6.36364C18.0277 5.7339 17.9602 5.19768 17.8253 4.75497C17.6927 4.31226 17.5009 3.97491 17.25 3.7429C17.0014 3.51089 16.7019 3.39489 16.3516 3.39489C15.826 3.39489 15.4152 3.65412 15.1193 4.17259C14.8234 4.68868 14.6754 5.41903 14.6754 6.36364C14.6754 6.99337 14.7417 7.52841 14.8743 7.96875C15.0069 8.40909 15.1974 8.74408 15.446 8.97372C15.697 9.20336 15.9988 9.31818 16.3516 9.31818ZM20.3572 10V2.72727H21.2379V6.33523H21.3232L24.5902 2.72727H25.7408L22.6868 6.00852L25.7408 10H24.6754L22.147 6.61932L21.2379 7.64205V10H20.3572Z" fill="#636779"/>
<path d="M3.8196 30.0994C3.35085 30.0994 2.933 30.0189 2.56605 29.858C2.20147 29.697 1.91146 29.4732 1.69602 29.1868C1.48295 28.898 1.36695 28.563 1.34801 28.1818H2.2429C2.26184 28.4162 2.34233 28.6186 2.48438 28.7891C2.62642 28.9571 2.81226 29.0874 3.0419 29.1797C3.27154 29.272 3.52604 29.3182 3.8054 29.3182C4.1179 29.3182 4.39489 29.2637 4.63636 29.1548C4.87784 29.0459 5.06723 28.8944 5.20455 28.7003C5.34186 28.5062 5.41051 28.2812 5.41051 28.0256C5.41051 27.758 5.34422 27.5225 5.21165 27.3189C5.07907 27.1129 4.88494 26.9519 4.62926 26.8359C4.37358 26.7199 4.06108 26.6619 3.69176 26.6619H3.10938V25.8807H3.69176C3.98059 25.8807 4.2339 25.8286 4.4517 25.7244C4.67188 25.6203 4.84351 25.4735 4.96662 25.2841C5.09209 25.0947 5.15483 24.8722 5.15483 24.6165C5.15483 24.3703 5.10038 24.156 4.99148 23.9737C4.88258 23.7914 4.72869 23.6494 4.52983 23.5476C4.33333 23.4458 4.10133 23.3949 3.83381 23.3949C3.58286 23.3949 3.34612 23.4411 3.12358 23.5334C2.90341 23.6233 2.72348 23.7547 2.58381 23.9276C2.44413 24.098 2.36837 24.304 2.35653 24.5455H1.50426C1.51847 24.1643 1.63329 23.8305 1.84872 23.544C2.06416 23.2552 2.34588 23.0303 2.69389 22.8693C3.04427 22.7083 3.42898 22.6278 3.84801 22.6278C4.29782 22.6278 4.68371 22.719 5.00568 22.9013C5.32765 23.0812 5.57505 23.3191 5.74787 23.6151C5.92069 23.911 6.0071 24.2306 6.0071 24.5739C6.0071 24.9834 5.89938 25.3326 5.68395 25.6214C5.47088 25.9103 5.18087 26.1103 4.81392 26.2216V26.2784C5.2732 26.3542 5.63187 26.5495 5.88991 26.8643C6.14796 27.1768 6.27699 27.5639 6.27699 28.0256C6.27699 28.4209 6.16927 28.776 5.95384 29.0909C5.74077 29.4034 5.44957 29.6496 5.08026 29.8295C4.71094 30.0095 4.29072 30.0994 3.8196 30.0994ZM10.1016 30.0994C9.56652 30.0994 9.1108 29.9538 8.73438 29.6626C8.35795 29.3691 8.07031 28.9441 7.87145 28.3878C7.67259 27.8291 7.57315 27.1544 7.57315 26.3636C7.57315 25.5777 7.67259 24.9065 7.87145 24.3501C8.07268 23.7914 8.36151 23.3653 8.73793 23.0717C9.11671 22.7758 9.57126 22.6278 10.1016 22.6278C10.6319 22.6278 11.0852 22.7758 11.4616 23.0717C11.8404 23.3653 12.1293 23.7914 12.3281 24.3501C12.5294 24.9065 12.63 25.5777 12.63 26.3636C12.63 27.1544 12.5305 27.8291 12.3317 28.3878C12.1328 28.9441 11.8452 29.3691 11.4688 29.6626C11.0923 29.9538 10.6366 30.0994 10.1016 30.0994ZM10.1016 29.3182C10.6319 29.3182 11.0438 29.0625 11.3374 28.5511C11.6309 28.0398 11.7777 27.3106 11.7777 26.3636C11.7777 25.7339 11.7102 25.1977 11.5753 24.755C11.4427 24.3123 11.2509 23.9749 11 23.7429C10.7514 23.5109 10.4519 23.3949 10.1016 23.3949C9.57599 23.3949 9.16525 23.6541 8.86932 24.1726C8.57339 24.6887 8.42543 25.419 8.42543 26.3636C8.42543 26.9934 8.49171 27.5284 8.62429 27.9688C8.75687 28.4091 8.94744 28.7441 9.19602 28.9737C9.44697 29.2034 9.74882 29.3182 10.1016 29.3182ZM16.3516 30.0994C15.8165 30.0994 15.3608 29.9538 14.9844 29.6626C14.608 29.3691 14.3203 28.9441 14.1214 28.3878C13.9226 27.8291 13.8232 27.1544 13.8232 26.3636C13.8232 25.5777 13.9226 24.9065 14.1214 24.3501C14.3227 23.7914 14.6115 23.3653 14.9879 23.0717C15.3667 22.7758 15.8213 22.6278 16.3516 22.6278C16.8819 22.6278 17.3352 22.7758 17.7116 23.0717C18.0904 23.3653 18.3793 23.7914 18.5781 24.3501C18.7794 24.9065 18.88 25.5777 18.88 26.3636C18.88 27.1544 18.7805 27.8291 18.5817 28.3878C18.3828 28.9441 18.0952 29.3691 17.7188 29.6626C17.3423 29.9538 16.8866 30.0994 16.3516 30.0994ZM16.3516 29.3182C16.8819 29.3182 17.2938 29.0625 17.5874 28.5511C17.8809 28.0398 18.0277 27.3106 18.0277 26.3636C18.0277 25.7339 17.9602 25.1977 17.8253 24.755C17.6927 24.3123 17.5009 23.9749 17.25 23.7429C17.0014 23.5109 16.7019 23.3949 16.3516 23.3949C15.826 23.3949 15.4152 23.6541 15.1193 24.1726C14.8234 24.6887 14.6754 25.419 14.6754 26.3636C14.6754 26.9934 14.7417 27.5284 14.8743 27.9688C15.0069 28.4091 15.1974 28.7441 15.446 28.9737C15.697 29.2034 15.9988 29.3182 16.3516 29.3182ZM20.3572 30V22.7273H21.2379V26.3352H21.3232L24.5902 22.7273H25.7408L22.6868 26.0085L25.7408 30H24.6754L22.147 26.6193L21.2379 27.642V30H20.3572Z" fill="#636779"/>
<path d="M1.67472 50V49.3608L4.07528 46.733C4.35701 46.4252 4.58902 46.1577 4.77131 45.9304C4.9536 45.7008 5.08854 45.4853 5.17614 45.2841C5.2661 45.0805 5.31108 44.8674 5.31108 44.6449C5.31108 44.3892 5.24953 44.1679 5.12642 43.9808C5.00568 43.7938 4.83996 43.6494 4.62926 43.5476C4.41856 43.4458 4.18182 43.3949 3.91903 43.3949C3.63968 43.3949 3.39583 43.4529 3.1875 43.5689C2.98153 43.6825 2.82173 43.8423 2.7081 44.0483C2.59683 44.2543 2.54119 44.4957 2.54119 44.7727H1.70312C1.70312 44.3466 1.80137 43.9725 1.99787 43.6506C2.19437 43.3286 2.46188 43.0777 2.80043 42.8977C3.14134 42.7178 3.52367 42.6278 3.94744 42.6278C4.37358 42.6278 4.75118 42.7178 5.08026 42.8977C5.40933 43.0777 5.66738 43.3203 5.8544 43.6257C6.04143 43.9311 6.13494 44.2708 6.13494 44.6449C6.13494 44.9124 6.08641 45.174 5.98935 45.4297C5.89465 45.683 5.72893 45.9659 5.49219 46.2784C5.25781 46.5885 4.93229 46.9673 4.51562 47.4148L2.8821 49.1619V49.2188H6.26278V50H1.67472ZM10.1016 50.0994C9.56652 50.0994 9.1108 49.9538 8.73438 49.6626C8.35795 49.3691 8.07031 48.9441 7.87145 48.3878C7.67259 47.8291 7.57315 47.1544 7.57315 46.3636C7.57315 45.5777 7.67259 44.9065 7.87145 44.3501C8.07268 43.7914 8.36151 43.3653 8.73793 43.0717C9.11671 42.7758 9.57126 42.6278 10.1016 42.6278C10.6319 42.6278 11.0852 42.7758 11.4616 43.0717C11.8404 43.3653 12.1293 43.7914 12.3281 44.3501C12.5294 44.9065 12.63 45.5777 12.63 46.3636C12.63 47.1544 12.5305 47.8291 12.3317 48.3878C12.1328 48.9441 11.8452 49.3691 11.4688 49.6626C11.0923 49.9538 10.6366 50.0994 10.1016 50.0994ZM10.1016 49.3182C10.6319 49.3182 11.0438 49.0625 11.3374 48.5511C11.6309 48.0398 11.7777 47.3106 11.7777 46.3636C11.7777 45.7339 11.7102 45.1977 11.5753 44.755C11.4427 44.3123 11.2509 43.9749 11 43.7429C10.7514 43.5109 10.4519 43.3949 10.1016 43.3949C9.57599 43.3949 9.16525 43.6541 8.86932 44.1726C8.57339 44.6887 8.42543 45.419 8.42543 46.3636C8.42543 46.9934 8.49171 47.5284 8.62429 47.9688C8.75687 48.4091 8.94744 48.7441 9.19602 48.9737C9.44697 49.2034 9.74882 49.3182 10.1016 49.3182ZM16.3516 50.0994C15.8165 50.0994 15.3608 49.9538 14.9844 49.6626C14.608 49.3691 14.3203 48.9441 14.1214 48.3878C13.9226 47.8291 13.8232 47.1544 13.8232 46.3636C13.8232 45.5777 13.9226 44.9065 14.1214 44.3501C14.3227 43.7914 14.6115 43.3653 14.9879 43.0717C15.3667 42.7758 15.8213 42.6278 16.3516 42.6278C16.8819 42.6278 17.3352 42.7758 17.7116 43.0717C18.0904 43.3653 18.3793 43.7914 18.5781 44.3501C18.7794 44.9065 18.88 45.5777 18.88 46.3636C18.88 47.1544 18.7805 47.8291 18.5817 48.3878C18.3828 48.9441 18.0952 49.3691 17.7188 49.6626C17.3423 49.9538 16.8866 50.0994 16.3516 50.0994ZM16.3516 49.3182C16.8819 49.3182 17.2938 49.0625 17.5874 48.5511C17.8809 48.0398 18.0277 47.3106 18.0277 46.3636C18.0277 45.7339 17.9602 45.1977 17.8253 44.755C17.6927 44.3123 17.5009 43.9749 17.25 43.7429C17.0014 43.5109 16.7019 43.3949 16.3516 43.3949C15.826 43.3949 15.4152 43.6541 15.1193 44.1726C14.8234 44.6887 14.6754 45.419 14.6754 46.3636C14.6754 46.9934 14.7417 47.5284 14.8743 47.9688C15.0069 48.4091 15.1974 48.7441 15.446 48.9737C15.697 49.2034 15.9988 49.3182 16.3516 49.3182ZM20.3572 50V42.7273H21.2379V46.3352H21.3232L24.5902 42.7273H25.7408L22.6868 46.0085L25.7408 50H24.6754L22.147 46.6193L21.2379 47.642V50H20.3572Z" fill="#636779"/>
<path d="M5.63778 62.7273V70H4.7571V63.6506H4.71449L2.93892 64.8295V63.9347L4.7571 62.7273H5.63778ZM10.1016 70.0994C9.56652 70.0994 9.1108 69.9538 8.73438 69.6626C8.35795 69.3691 8.07031 68.9441 7.87145 68.3878C7.67259 67.8291 7.57315 67.1544 7.57315 66.3636C7.57315 65.5777 7.67259 64.9065 7.87145 64.3501C8.07268 63.7914 8.36151 63.3653 8.73793 63.0717C9.11671 62.7758 9.57126 62.6278 10.1016 62.6278C10.6319 62.6278 11.0852 62.7758 11.4616 63.0717C11.8404 63.3653 12.1293 63.7914 12.3281 64.3501C12.5294 64.9065 12.63 65.5777 12.63 66.3636C12.63 67.1544 12.5305 67.8291 12.3317 68.3878C12.1328 68.9441 11.8452 69.3691 11.4688 69.6626C11.0923 69.9538 10.6366 70.0994 10.1016 70.0994ZM10.1016 69.3182C10.6319 69.3182 11.0438 69.0625 11.3374 68.5511C11.6309 68.0398 11.7777 67.3106 11.7777 66.3636C11.7777 65.7339 11.7102 65.1977 11.5753 64.755C11.4427 64.3123 11.2509 63.9749 11 63.7429C10.7514 63.5109 10.4519 63.3949 10.1016 63.3949C9.57599 63.3949 9.16525 63.6541 8.86932 64.1726C8.57339 64.6887 8.42543 65.419 8.42543 66.3636C8.42543 66.9934 8.49171 67.5284 8.62429 67.9688C8.75687 68.4091 8.94744 68.7441 9.19602 68.9737C9.44697 69.2034 9.74882 69.3182 10.1016 69.3182ZM16.3516 70.0994C15.8165 70.0994 15.3608 69.9538 14.9844 69.6626C14.608 69.3691 14.3203 68.9441 14.1214 68.3878C13.9226 67.8291 13.8232 67.1544 13.8232 66.3636C13.8232 65.5777 13.9226 64.9065 14.1214 64.3501C14.3227 63.7914 14.6115 63.3653 14.9879 63.0717C15.3667 62.7758 15.8213 62.6278 16.3516 62.6278C16.8819 62.6278 17.3352 62.7758 17.7116 63.0717C18.0904 63.3653 18.3793 63.7914 18.5781 64.3501C18.7794 64.9065 18.88 65.5777 18.88 66.3636C18.88 67.1544 18.7805 67.8291 18.5817 68.3878C18.3828 68.9441 18.0952 69.3691 17.7188 69.6626C17.3423 69.9538 16.8866 70.0994 16.3516 70.0994ZM16.3516 69.3182C16.8819 69.3182 17.2938 69.0625 17.5874 68.5511C17.8809 68.0398 18.0277 67.3106 18.0277 66.3636C18.0277 65.7339 17.9602 65.1977 17.8253 64.755C17.6927 64.3123 17.5009 63.9749 17.25 63.7429C17.0014 63.5109 16.7019 63.3949 16.3516 63.3949C15.826 63.3949 15.4152 63.6541 15.1193 64.1726C14.8234 64.6887 14.6754 65.419 14.6754 66.3636C14.6754 66.9934 14.7417 67.5284 14.8743 67.9688C15.0069 68.4091 15.1974 68.7441 15.446 68.9737C15.697 69.2034 15.9988 69.3182 16.3516 69.3182ZM20.3572 70V62.7273H21.2379V66.3352H21.3232L24.5902 62.7273H25.7408L22.6868 66.0085L25.7408 70H24.6754L22.147 66.6193L21.2379 67.642V70H20.3572Z" fill="#636779"/>
<path d="M18.1378 82.7273V90H17.2571V83.6506H17.2145L15.4389 84.8295V83.9347L17.2571 82.7273H18.1378ZM20.3572 90V82.7273H21.2379V86.3352H21.3232L24.5902 82.7273H25.7408L22.6868 86.0085L25.7408 90H24.6754L22.147 86.6193L21.2379 87.642V90H20.3572Z" fill="#636779"/>
<line x1="34" y1="87.5" x2="130" y2="87.5" stroke="#E0E2EB" stroke-dasharray="2 2"/>
<line x1="34" y1="66.5" x2="130" y2="66.5" stroke="#E0E2EB" stroke-dasharray="2 2"/>
<line x1="34" y1="45.5" x2="130" y2="45.5" stroke="#E0E2EB" stroke-dasharray="2 2"/>
<line x1="34" y1="24.5" x2="130" y2="24.5" stroke="#E0E2EB" stroke-dasharray="2 2"/>
<line x1="34" y1="3.5" x2="130" y2="3.5" stroke="#E0E2EB" stroke-dasharray="2 2"/>
<path d="M130 88.4875C130.276 88.4875 130.5 88.2637 130.5 87.9875C130.5 87.7114 130.276 87.4875 130 87.4875V88.4875ZM31.5066 4.08082C38.6569 47.7342 60.3056 68.8705 81.6971 79.0653C103.054 89.2433 124.099 88.4875 130 88.4875V87.4875C124.085 87.4875 103.255 88.2315 82.1273 78.1625C61.0348 68.1103 39.5914 47.2528 32.4934 3.91918L31.5066 4.08082Z" fill="#FF0420"/>
</svg>
