<svg width="133" height="92" viewBox="0 0 133 92" fill="none" xmlns="http://www.w3.org/2000/svg">
<path d="M4.18093 10.0994C3.71218 10.0994 3.29433 10.0189 2.92738 9.85795C2.5628 9.69697 2.27279 9.47325 2.05735 9.18679C1.84428 8.89796 1.72828 8.56297 1.70934 8.18182H2.60423C2.62317 8.41619 2.70366 8.61861 2.8457 8.78906C2.98775 8.95715 3.17359 9.08736 3.40323 9.17969C3.63287 9.27202 3.88737 9.31818 4.16673 9.31818C4.47923 9.31818 4.75621 9.26373 4.99769 9.15483C5.23917 9.04593 5.42856 8.89441 5.56587 8.70028C5.70318 8.50616 5.77184 8.28125 5.77184 8.02557C5.77184 7.75805 5.70555 7.52249 5.57298 7.31889C5.4404 7.11293 5.24627 6.95194 4.99059 6.83594C4.73491 6.71993 4.42241 6.66193 4.05309 6.66193H3.4707V5.88068H4.05309C4.34192 5.88068 4.59523 5.8286 4.81303 5.72443C5.0332 5.62026 5.20484 5.47348 5.32795 5.28409C5.45342 5.0947 5.51616 4.87216 5.51616 4.61648C5.51616 4.37026 5.46171 4.15601 5.35281 3.97372C5.2439 3.79143 5.09002 3.64938 4.89116 3.54759C4.69466 3.44579 4.46265 3.39489 4.19513 3.39489C3.94419 3.39489 3.70745 3.44105 3.48491 3.53338C3.26474 3.62334 3.08481 3.75473 2.94513 3.92756C2.80546 4.09801 2.7297 4.30398 2.71786 4.54545H1.86559C1.87979 4.1643 1.99461 3.83049 2.21005 3.54403C2.42549 3.25521 2.70721 3.0303 3.05522 2.86932C3.4056 2.70833 3.79031 2.62784 4.20934 2.62784C4.65915 2.62784 5.04504 2.71899 5.36701 2.90128C5.68898 3.0812 5.93638 3.31913 6.1092 3.61506C6.28202 3.91098 6.36843 4.23059 6.36843 4.57386C6.36843 4.98343 6.26071 5.33262 6.04528 5.62145C5.83221 5.91027 5.5422 6.11032 5.17525 6.22159V6.27841C5.63453 6.35417 5.99319 6.54948 6.25124 6.86435C6.50929 7.17685 6.63832 7.56392 6.63832 8.02557C6.63832 8.42093 6.5306 8.77604 6.31516 9.09091C6.1021 9.40341 5.8109 9.64962 5.44158 9.82955C5.07227 10.0095 4.65205 10.0994 4.18093 10.0994ZM8.09073 10V9.3608L10.4913 6.73295C10.773 6.42519 11.005 6.15767 11.1873 5.9304C11.3696 5.70076 11.5046 5.48532 11.5922 5.28409C11.6821 5.08049 11.7271 4.86742 11.7271 4.64489C11.7271 4.3892 11.6655 4.16785 11.5424 3.98082C11.4217 3.7938 11.256 3.64938 11.0453 3.54759C10.8346 3.44579 10.5978 3.39489 10.335 3.39489C10.0557 3.39489 9.81185 3.45289 9.60352 3.56889C9.39755 3.68253 9.23775 3.84233 9.12411 4.0483C9.01284 4.25426 8.95721 4.49574 8.95721 4.77273H8.11914C8.11914 4.34659 8.21739 3.97254 8.41388 3.65057C8.61038 3.3286 8.8779 3.07765 9.21644 2.89773C9.55735 2.7178 9.93969 2.62784 10.3635 2.62784C10.7896 2.62784 11.1672 2.7178 11.4963 2.89773C11.8253 3.07765 12.0834 3.32031 12.2704 3.62571C12.4574 3.93111 12.551 4.27083 12.551 4.64489C12.551 4.91241 12.5024 5.17401 12.4054 5.42969C12.3107 5.683 12.1449 5.96591 11.9082 6.27841C11.6738 6.58854 11.3483 6.96733 10.9316 7.41477L9.29812 9.16193V9.21875H12.6788V10H8.09073ZM16.4181 10.0994C16.0015 10.0994 15.6262 10.0166 15.2924 9.85085C14.9586 9.68513 14.6911 9.45786 14.4899 9.16903C14.2886 8.88021 14.1786 8.55114 14.1596 8.18182H15.0119C15.045 8.51089 15.1942 8.78314 15.4593 8.99858C15.7269 9.21165 16.0465 9.31818 16.4181 9.31818C16.7164 9.31818 16.9816 9.24834 17.2136 9.10866C17.448 8.96899 17.6315 8.77723 17.764 8.53338C17.899 8.28717 17.9664 8.009 17.9664 7.69886C17.9664 7.38163 17.8966 7.09872 17.7569 6.85014C17.6196 6.5992 17.4302 6.40152 17.1887 6.2571C16.9473 6.11269 16.6715 6.0393 16.3613 6.03693C16.1388 6.03456 15.9103 6.06889 15.676 6.13991C15.4416 6.20857 15.2486 6.29735 15.0971 6.40625L14.2733 6.30682L14.7136 2.72727H18.492V3.50852H15.4522L15.1966 5.65341H15.2392C15.3883 5.53504 15.5753 5.43679 15.8002 5.35866C16.0252 5.28054 16.2595 5.24148 16.5034 5.24148C16.9484 5.24148 17.345 5.34801 17.693 5.56108C18.0434 5.77178 18.318 6.06061 18.5169 6.42756C18.7181 6.79451 18.8187 7.21354 18.8187 7.68466C18.8187 8.14867 18.7145 8.56297 18.5062 8.92756C18.3002 9.28977 18.0162 9.57623 17.6539 9.78693C17.2917 9.99527 16.8798 10.0994 16.4181 10.0994ZM20.3572 10V2.72727H21.2379V6.33523H21.3232L24.5902 2.72727H25.7408L22.6868 6.00852L25.7408 10H24.6754L22.147 6.61932L21.2379 7.64205V10H20.3572Z" fill="#636779"/>
<path d="M1.83097 30V29.3608L4.23153 26.733C4.51326 26.4252 4.74527 26.1577 4.92756 25.9304C5.10985 25.7008 5.24479 25.4853 5.33239 25.2841C5.42235 25.0805 5.46733 24.8674 5.46733 24.6449C5.46733 24.3892 5.40578 24.1679 5.28267 23.9808C5.16193 23.7938 4.99621 23.6494 4.78551 23.5476C4.57481 23.4458 4.33807 23.3949 4.07528 23.3949C3.79593 23.3949 3.55208 23.4529 3.34375 23.5689C3.13778 23.6825 2.97798 23.8423 2.86435 24.0483C2.75308 24.2543 2.69744 24.4957 2.69744 24.7727H1.85938C1.85938 24.3466 1.95762 23.9725 2.15412 23.6506C2.35062 23.3286 2.61813 23.0777 2.95668 22.8977C3.29759 22.7178 3.67992 22.6278 4.10369 22.6278C4.52983 22.6278 4.90743 22.7178 5.23651 22.8977C5.56558 23.0777 5.82363 23.3203 6.01065 23.6257C6.19768 23.9311 6.29119 24.2708 6.29119 24.6449C6.29119 24.9124 6.24266 25.174 6.1456 25.4297C6.0509 25.683 5.88518 25.9659 5.64844 26.2784C5.41406 26.5885 5.08854 26.9673 4.67188 27.4148L3.03835 29.1619V29.2188H6.41903V30H1.83097ZM7.55895 28.5085V27.7841L10.755 22.7273H11.2805V23.8494H10.9254L8.51065 27.6705V27.7273H12.8146V28.5085H7.55895ZM10.9822 30V28.2884V27.951V22.7273H11.8203V30H10.9822ZM16.4181 30.0994C16.0015 30.0994 15.6262 30.0166 15.2924 29.8509C14.9586 29.6851 14.6911 29.4579 14.4899 29.169C14.2886 28.8802 14.1786 28.5511 14.1596 28.1818H15.0119C15.045 28.5109 15.1942 28.7831 15.4593 28.9986C15.7269 29.2116 16.0465 29.3182 16.4181 29.3182C16.7164 29.3182 16.9816 29.2483 17.2136 29.1087C17.448 28.969 17.6315 28.7772 17.764 28.5334C17.899 28.2872 17.9664 28.009 17.9664 27.6989C17.9664 27.3816 17.8966 27.0987 17.7569 26.8501C17.6196 26.5992 17.4302 26.4015 17.1887 26.2571C16.9473 26.1127 16.6715 26.0393 16.3613 26.0369C16.1388 26.0346 15.9103 26.0689 15.676 26.1399C15.4416 26.2086 15.2486 26.2973 15.0971 26.4062L14.2733 26.3068L14.7136 22.7273H18.492V23.5085H15.4522L15.1966 25.6534H15.2392C15.3883 25.535 15.5753 25.4368 15.8002 25.3587C16.0252 25.2805 16.2595 25.2415 16.5034 25.2415C16.9484 25.2415 17.345 25.348 17.693 25.5611C18.0434 25.7718 18.318 26.0606 18.5169 26.4276C18.7181 26.7945 18.8187 27.2135 18.8187 27.6847C18.8187 28.1487 18.7145 28.563 18.5062 28.9276C18.3002 29.2898 18.0162 29.5762 17.6539 29.7869C17.2917 29.9953 16.8798 30.0994 16.4181 30.0994ZM20.3572 30V22.7273H21.2379V26.3352H21.3232L24.5902 22.7273H25.7408L22.6868 26.0085L25.7408 30H24.6754L22.147 26.6193L21.2379 27.642V30H20.3572Z" fill="#636779"/>
<path d="M5.81357 42.7273V50H4.93288V43.6506H4.89027L3.1147 44.8295V43.9347L4.93288 42.7273H5.81357ZM10.32 50.0994C10.0217 50.0947 9.72337 50.0379 9.42507 49.929C9.12678 49.8201 8.85452 49.6366 8.60831 49.3786C8.3621 49.1181 8.16442 48.7666 8.01527 48.3239C7.86612 47.8788 7.79155 47.3201 7.79155 46.6477C7.79155 46.0038 7.85192 45.4332 7.97266 44.9361C8.09339 44.4366 8.26858 44.0163 8.49822 43.6754C8.72786 43.3321 9.00485 43.0717 9.32919 42.8942C9.65589 42.7166 10.024 42.6278 10.4336 42.6278C10.8408 42.6278 11.203 42.7095 11.5202 42.8729C11.8398 43.0339 12.1003 43.2588 12.3015 43.5476C12.5027 43.8364 12.6329 44.169 12.6921 44.5455H11.8256C11.7451 44.2187 11.5889 43.9477 11.3569 43.7322C11.1249 43.5168 10.8171 43.4091 10.4336 43.4091C9.87015 43.4091 9.42625 43.6541 9.10192 44.1442C8.77995 44.6342 8.61778 45.322 8.61541 46.2074H8.67223C8.80481 46.0062 8.96224 45.8345 9.14453 45.6925C9.32919 45.5481 9.53279 45.4368 9.75533 45.3587C9.97786 45.2805 10.2134 45.2415 10.462 45.2415C10.8787 45.2415 11.2598 45.3456 11.6055 45.554C11.9511 45.7599 12.2281 46.0452 12.4364 46.4098C12.6448 46.772 12.7489 47.1875 12.7489 47.6562C12.7489 48.1061 12.6483 48.518 12.4471 48.892C12.2459 49.2637 11.9629 49.5597 11.5984 49.7798C11.2362 49.9976 10.81 50.1042 10.32 50.0994ZM10.32 49.3182C10.6183 49.3182 10.8858 49.2436 11.1225 49.0945C11.3616 48.9453 11.5498 48.7453 11.6871 48.4943C11.8268 48.2434 11.8967 47.964 11.8967 47.6562C11.8967 47.3556 11.8292 47.0821 11.6942 46.8359C11.5617 46.5874 11.3782 46.3897 11.1438 46.2429C10.9118 46.0961 10.6467 46.0227 10.3484 46.0227C10.1235 46.0227 9.91394 46.0677 9.71982 46.1577C9.52569 46.2453 9.35523 46.366 9.20845 46.5199C9.06404 46.6738 8.9504 46.8501 8.86754 47.049C8.78468 47.2455 8.74325 47.4527 8.74325 47.6705C8.74325 47.9593 8.81072 48.2292 8.94567 48.4801C9.08298 48.7311 9.27 48.9335 9.50675 49.0874C9.74586 49.2412 10.0169 49.3182 10.32 49.3182ZM16.4181 50.0994C16.0015 50.0994 15.6262 50.0166 15.2924 49.8509C14.9586 49.6851 14.6911 49.4579 14.4899 49.169C14.2886 48.8802 14.1786 48.5511 14.1596 48.1818H15.0119C15.045 48.5109 15.1942 48.7831 15.4593 48.9986C15.7269 49.2116 16.0465 49.3182 16.4181 49.3182C16.7164 49.3182 16.9816 49.2483 17.2136 49.1087C17.448 48.969 17.6315 48.7772 17.764 48.5334C17.899 48.2872 17.9664 48.009 17.9664 47.6989C17.9664 47.3816 17.8966 47.0987 17.7569 46.8501C17.6196 46.5992 17.4302 46.4015 17.1887 46.2571C16.9473 46.1127 16.6715 46.0393 16.3613 46.0369C16.1388 46.0346 15.9103 46.0689 15.676 46.1399C15.4416 46.2086 15.2486 46.2973 15.0971 46.4062L14.2733 46.3068L14.7136 42.7273H18.492V43.5085H15.4522L15.1966 45.6534H15.2392C15.3883 45.535 15.5753 45.4368 15.8002 45.3587C16.0252 45.2805 16.2595 45.2415 16.5034 45.2415C16.9484 45.2415 17.345 45.348 17.693 45.5611C18.0434 45.7718 18.318 46.0606 18.5169 46.4276C18.7181 46.7945 18.8187 47.2135 18.8187 47.6847C18.8187 48.1487 18.7145 48.563 18.5062 48.9276C18.3002 49.2898 18.0162 49.5762 17.6539 49.7869C17.2917 49.9953 16.8798 50.0994 16.4181 50.0994ZM20.3572 50V42.7273H21.2379V46.3352H21.3232L24.5902 42.7273H25.7408L22.6868 46.0085L25.7408 50H24.6754L22.147 46.6193L21.2379 47.642V50H20.3572Z" fill="#636779"/>
<path d="M10.3129 70.0994C9.82517 70.0994 9.39429 70.013 9.02024 69.8402C8.64856 69.665 8.35855 69.4247 8.15021 69.1193C7.94188 68.8116 7.8389 68.4612 7.84126 68.0682C7.8389 67.7604 7.89927 67.4763 8.02237 67.2159C8.14548 66.9531 8.31357 66.7341 8.52663 66.5589C8.74207 66.3814 8.98236 66.2689 9.24751 66.2216V66.179C8.8995 66.089 8.62251 65.8937 8.41655 65.593C8.21058 65.29 8.10878 64.9455 8.11115 64.5597C8.10878 64.1903 8.2023 63.8601 8.39169 63.5689C8.58108 63.2777 8.8415 63.0481 9.17294 62.88C9.50675 62.7119 9.88672 62.6278 10.3129 62.6278C10.7343 62.6278 11.1107 62.7119 11.4421 62.88C11.7736 63.0481 12.034 63.2777 12.2234 63.5689C12.4151 63.8601 12.5122 64.1903 12.5146 64.5597C12.5122 64.9455 12.4068 65.29 12.1985 65.593C11.9925 65.8937 11.7191 66.089 11.3782 66.179V66.2216C11.641 66.2689 11.8777 66.3814 12.0884 66.5589C12.2991 66.7341 12.4672 66.9531 12.5927 67.2159C12.7182 67.4763 12.7821 67.7604 12.7844 68.0682C12.7821 68.4612 12.6755 68.8116 12.4648 69.1193C12.2565 69.4247 11.9665 69.665 11.5948 69.8402C11.2255 70.013 10.7982 70.0994 10.3129 70.0994ZM10.3129 69.3182C10.6419 69.3182 10.926 69.2649 11.1651 69.1584C11.4042 69.0518 11.5889 68.9015 11.7191 68.7074C11.8493 68.5133 11.9156 68.286 11.918 68.0256C11.9156 67.7509 11.8446 67.5083 11.7049 67.2976C11.5652 67.0869 11.3746 66.9212 11.1332 66.8004C10.8941 66.6797 10.6206 66.6193 10.3129 66.6193C10.0027 66.6193 9.72573 66.6797 9.48189 66.8004C9.24041 66.9212 9.04983 67.0869 8.91016 67.2976C8.77285 67.5083 8.70537 67.7509 8.70774 68.0256C8.70537 68.286 8.76811 68.5133 8.89595 68.7074C9.02616 68.9015 9.212 69.0518 9.45348 69.1584C9.69496 69.2649 9.98142 69.3182 10.3129 69.3182ZM10.3129 65.8665C10.5733 65.8665 10.8041 65.8144 11.0053 65.7102C11.2089 65.6061 11.3687 65.4605 11.4847 65.2734C11.6007 65.0864 11.6599 64.8674 11.6623 64.6165C11.6599 64.3703 11.6019 64.156 11.4883 63.9737C11.3746 63.7891 11.2172 63.647 11.016 63.5476C10.8147 63.4458 10.5804 63.3949 10.3129 63.3949C10.0406 63.3949 9.80268 63.4458 9.59908 63.5476C9.39548 63.647 9.23804 63.7891 9.12678 63.9737C9.01551 64.156 8.96106 64.3703 8.96342 64.6165C8.96106 64.8674 9.01669 65.0864 9.13033 65.2734C9.24633 65.4605 9.40613 65.6061 9.60973 65.7102C9.81333 65.8144 10.0477 65.8665 10.3129 65.8665ZM16.4181 70.0994C16.0015 70.0994 15.6262 70.0166 15.2924 69.8509C14.9586 69.6851 14.6911 69.4579 14.4899 69.169C14.2886 68.8802 14.1786 68.5511 14.1596 68.1818H15.0119C15.045 68.5109 15.1942 68.7831 15.4593 68.9986C15.7269 69.2116 16.0465 69.3182 16.4181 69.3182C16.7164 69.3182 16.9816 69.2483 17.2136 69.1087C17.448 68.969 17.6315 68.7772 17.764 68.5334C17.899 68.2872 17.9664 68.009 17.9664 67.6989C17.9664 67.3816 17.8966 67.0987 17.7569 66.8501C17.6196 66.5992 17.4302 66.4015 17.1887 66.2571C16.9473 66.1127 16.6715 66.0393 16.3613 66.0369C16.1388 66.0346 15.9103 66.0689 15.676 66.1399C15.4416 66.2086 15.2486 66.2973 15.0971 66.4062L14.2733 66.3068L14.7136 62.7273H18.492V63.5085H15.4522L15.1966 65.6534H15.2392C15.3883 65.535 15.5753 65.4368 15.8002 65.3587C16.0252 65.2805 16.2595 65.2415 16.5034 65.2415C16.9484 65.2415 17.345 65.348 17.693 65.5611C18.0434 65.7718 18.318 66.0606 18.5169 66.4276C18.7181 66.7945 18.8187 67.2135 18.8187 67.6847C18.8187 68.1487 18.7145 68.563 18.5062 68.9276C18.3002 69.2898 18.0162 69.5762 17.6539 69.7869C17.2917 69.9953 16.8798 70.0994 16.4181 70.0994ZM20.3572 70V62.7273H21.2379V66.3352H21.3232L24.5902 62.7273H25.7408L22.6868 66.0085L25.7408 70H24.6754L22.147 66.6193L21.2379 67.642V70H20.3572Z" fill="#636779"/>
<path d="M16.3968 90.0994C15.9092 90.0994 15.4783 90.013 15.1042 89.8402C14.7325 89.665 14.4425 89.4247 14.2342 89.1193C14.0259 88.8116 13.9229 88.4612 13.9252 88.0682C13.9229 87.7604 13.9833 87.4763 14.1064 87.2159C14.2295 86.9531 14.3975 86.7341 14.6106 86.5589C14.8261 86.3814 15.0663 86.2689 15.3315 86.2216V86.179C14.9835 86.089 14.7065 85.8937 14.5005 85.593C14.2946 85.29 14.1928 84.9455 14.1951 84.5597C14.1928 84.1903 14.2863 83.8601 14.4757 83.5689C14.6651 83.2777 14.9255 83.0481 15.2569 82.88C15.5907 82.7119 15.9707 82.6278 16.3968 82.6278C16.8182 82.6278 17.1947 82.7119 17.5261 82.88C17.8575 83.0481 18.118 83.2777 18.3074 83.5689C18.4991 83.8601 18.5962 84.1903 18.5985 84.5597C18.5962 84.9455 18.4908 85.29 18.2825 85.593C18.0765 85.8937 17.8031 86.089 17.4622 86.179V86.2216C17.725 86.2689 17.9617 86.3814 18.1724 86.5589C18.3831 86.7341 18.5512 86.9531 18.6767 87.2159C18.8021 87.4763 18.8661 87.7604 18.8684 88.0682C18.8661 88.4612 18.7595 88.8116 18.5488 89.1193C18.3405 89.4247 18.0505 89.665 17.6788 89.8402C17.3095 90.013 16.8822 90.0994 16.3968 90.0994ZM16.3968 89.3182C16.7259 89.3182 17.01 89.2649 17.2491 89.1584C17.4882 89.0518 17.6729 88.9015 17.8031 88.7074C17.9333 88.5133 17.9996 88.286 18.002 88.0256C17.9996 87.7509 17.9286 87.5083 17.7889 87.2976C17.6492 87.0869 17.4586 86.9212 17.2172 86.8004C16.978 86.6797 16.7046 86.6193 16.3968 86.6193C16.0867 86.6193 15.8097 86.6797 15.5659 86.8004C15.3244 86.9212 15.1338 87.0869 14.9941 87.2976C14.8568 87.5083 14.7894 87.7509 14.7917 88.0256C14.7894 88.286 14.8521 88.5133 14.9799 88.7074C15.1101 88.9015 15.296 89.0518 15.5375 89.1584C15.7789 89.2649 16.0654 89.3182 16.3968 89.3182ZM16.3968 85.8665C16.6573 85.8665 16.8881 85.8144 17.0893 85.7102C17.2929 85.6061 17.4527 85.4605 17.5687 85.2734C17.6847 85.0864 17.7439 84.8674 17.7463 84.6165C17.7439 84.3703 17.6859 84.156 17.5723 83.9737C17.4586 83.7891 17.3012 83.647 17.1 83.5476C16.8987 83.4458 16.6644 83.3949 16.3968 83.3949C16.1246 83.3949 15.8867 83.4458 15.6831 83.5476C15.4795 83.647 15.322 83.7891 15.2108 83.9737C15.0995 84.156 15.045 84.3703 15.0474 84.6165C15.045 84.8674 15.1007 85.0864 15.2143 85.2734C15.3303 85.4605 15.4901 85.6061 15.6937 85.7102C15.8973 85.8144 16.1317 85.8665 16.3968 85.8665ZM20.3572 90V82.7273H21.2379V86.3352H21.3232L24.5902 82.7273H25.7408L22.6868 86.0085L25.7408 90H24.6754L22.147 86.6193L21.2379 87.642V90H20.3572Z" fill="#636779"/>
<line x1="34" y1="87.5" x2="130" y2="87.5" stroke="#E0E2EB" stroke-dasharray="2 2"/>
<line x1="34" y1="66.5" x2="130" y2="66.5" stroke="#E0E2EB" stroke-dasharray="2 2"/>
<line x1="34" y1="45.5" x2="130" y2="45.5" stroke="#E0E2EB" stroke-dasharray="2 2"/>
<line x1="34" y1="24.5" x2="130" y2="24.5" stroke="#E0E2EB" stroke-dasharray="2 2"/>
<line x1="34" y1="3.5" x2="130" y2="3.5" stroke="#E0E2EB" stroke-dasharray="2 2"/>
<path d="M35 3L132 87" stroke="#FF0420" stroke-linecap="round"/>
</svg>
