<svg width="96" height="96" viewBox="0 0 96 96" fill="none" xmlns="http://www.w3.org/2000/svg"><g clip-path="url(#a)"><path d="M0 12C0 5.373 5.373 0 12 0h72c6.627 0 12 5.373 12 12v72c0 6.627-5.373 12-12 12H12C5.373 96 0 90.627 0 84z" fill="#D6E4FF"/><path d="m48.382 35.976-.172-25.098-27.119 38.43 27.34 36.941.788-27.276z" fill="url(#b)"/><path d="m48.21 10.878.172 25.098.837 22.997-.789 27.276 25.017-35.767z" fill="url(#c)"/><path d="m21.091 49.308 27.296-13.331 24.84 14.156-24.004 8.846-28.127-9.67z" fill="url(#d)"/><path opacity=".84" fill-rule="evenodd" clip-rule="evenodd" d="M77.837 18.4c-.043 2.057-.852 3.47-2.514 4.168 1.467.619 2.872 1.485 4.108 3.032q.411-2.24 2.207-3.941c-1.349-.783-2.626-1.833-3.801-3.26" fill="#FAFBFF"/><circle opacity=".64" cx="29" cy="25" r="2" fill="#FAFBFF"/><circle cx="16" cy="37" r="3" fill="#FAFBFF"/><circle opacity=".24" cx="116" cy="108" r="28" fill="#FAFBFF"/><path opacity=".52" d="m10.716 78.972-.197-.595a5.206 5.206 0 0 0 3.289-6.595l.595-.196a5.206 5.206 0 0 0 6.595 3.288l.196.595a5.207 5.207 0 0 0-3.288 6.595l-.595.196a5.207 5.207 0 0 0-6.595-3.288" fill="#fff"/><path opacity=".51" d="m76.404 82.546.029-.255a2.125 2.125 0 0 0 2.342-1.887l.254.029a2.125 2.125 0 0 0 1.887 2.342l-.028.254a2.125 2.125 0 0 0-2.343 1.887l-.254-.028a2.125 2.125 0 0 0-1.887-2.342" fill="#fff"/><circle opacity=".24" cx="-5" cy="42" r="21" fill="#FAFBFF"/></g><defs><linearGradient id="b" x1="36.986" y1="34.524" x2="55.884" y2="70.361" gradientUnits="userSpaceOnUse"><stop stop-color="#F0F4FF"/><stop offset="1" stop-color="#69A0F7"/></linearGradient><linearGradient id="c" x1="42" y1="47.2" x2="67.6" y2="50.4" gradientUnits="userSpaceOnUse"><stop stop-color="#0E4CAF"/><stop offset="1" stop-color="#69A0F7"/></linearGradient><linearGradient id="d" x1="37.614" y1="24.304" x2="51.149" y2="60.278" gradientUnits="userSpaceOnUse"><stop offset=".38" stop-color="#3374DB"/><stop offset="1" stop-color="#D6E4FF"/></linearGradient><clipPath id="a"><path d="M0 12C0 5.373 5.373 0 12 0h72c6.627 0 12 5.373 12 12v72c0 6.627-5.373 12-12 12H12C5.373 96 0 90.627 0 84z" fill="#fff"/></clipPath></defs></svg>