<svg width="14" height="12" viewBox="0 0 14 12" fill="none" xmlns="http://www.w3.org/2000/svg">
		<path d="M1.00004 0C0.631854 0 0.333374 0.29848 0.333374 0.666667V11.3333C0.333374 11.7015 0.631854 12 1.00004 12H13C13.3682 12 13.6667 11.7015 13.6667 11.3333V0.666667C13.6667 0.29848 13.3682 0 13 0H1.00004ZM3.00004 2.66667H7.00004V6.66667H3.00004V2.66667ZM4.33337 4V5.33333H5.66671V4H4.33337ZM11 4H8.33337V2.66667H11V4ZM8.33337 6.66667V5.33333H11V6.66667H8.33337ZM3.00004 9.33333V8H11V9.33333H3.00004Z" fill="#404454" />
	</svg>