<svg width="300" height="150" viewBox="0 0 300 150" fill="none" xmlns="http://www.w3.org/2000/svg">
    <path fill-rule="evenodd" clip-rule="evenodd" d="M94.9298 71.2722C95.6439 72.7433 96.3623 74.2069 97.8291 74.1704C96.982 74.5757 96.0556 75.3595 94.9298 77.0689C95.1978 75.6302 94.8933 75.0495 94.415 74.7291C95.3457 73.5226 95.3051 72.3856 94.9298 71.2722Z" fill="#D7FFFC"/>
    <g opacity="0.71">
        <path d="M118.613 82.7663L110.497 78.0894L101.832 85.3677L109.948 90.0447L118.613 82.7663Z" fill="url(#paint0_linear_7083_87594)" fill-opacity="0.4"/>
        <path d="M118.612 82.7663L118.612 71.2722L109.947 78.5506L109.947 90.0447L118.612 82.7663Z" fill="url(#paint1_linear_7083_87594)" fill-opacity="0.1"/>
        <path d="M110.497 78.0898L110.497 66.5957L101.832 73.874L101.832 85.3681L110.497 78.0898Z" fill="url(#paint2_linear_7083_87594)"/>
        <path d="M109.947 78.5507L101.831 73.8738L101.831 85.3679L109.947 90.0448L109.947 78.5507Z" fill="url(#paint3_linear_7083_87594)" fill-opacity="0.8"/>
        <path d="M118.613 71.2712L110.497 66.5942L110.497 78.0883L118.613 82.7653L118.613 71.2712Z" fill="#53F9C1"/>
    </g>
    <path d="M109.504 100.525C120.585 100.525 129.568 97.6596 129.568 94.1253C129.568 90.591 120.585 87.7258 109.504 87.7258C98.4234 87.7258 89.4407 90.591 89.4407 94.1253C89.4407 97.6596 98.4234 100.525 109.504 100.525Z" stroke="#68DFDC" stroke-width="0.5" stroke-miterlimit="1.5" stroke-linecap="round" stroke-linejoin="round"/>
    <path d="M109.332 103.53C117.231 103.53 123.635 101.488 123.635 98.9681C123.635 96.4487 117.231 94.4062 109.332 94.4062C101.433 94.4062 95.03 96.4487 95.03 98.9681C95.03 101.488 101.433 103.53 109.332 103.53Z" stroke="#68DFDC" stroke-width="0.5" stroke-miterlimit="1.5" stroke-linecap="round" stroke-linejoin="round"/>
    <path fill-rule="evenodd" clip-rule="evenodd" d="M96.1228 103.522L109.388 119.739L122.654 103.522C112.093 106.875 106.3 106.592 96.1228 103.522Z" fill="url(#paint4_linear_7083_87594)"/>
    <path d="M109.332 132.169C112.05 132.169 114.254 131.466 114.254 130.599C114.254 129.732 112.05 129.029 109.332 129.029C106.614 129.029 104.41 129.732 104.41 130.599C104.41 131.466 106.614 132.169 109.332 132.169Z" stroke="#1FC1BF" stroke-width="0.5" stroke-miterlimit="1.5" stroke-linecap="round" stroke-linejoin="round"/>
    <path d="M109.388 106.377C117.287 106.377 123.69 104.335 123.69 101.816C123.69 99.2961 117.287 97.2537 109.388 97.2537C101.489 97.2537 95.0859 99.2961 95.0859 101.816C95.0859 104.335 101.489 106.377 109.388 106.377Z" fill="url(#paint5_radial_7083_87594)" fill-opacity="0.58"/>
    <path fill-rule="evenodd" clip-rule="evenodd" d="M108.676 48.2095C108.359 52.7924 106.547 55.7136 103.56 57.3303C107.092 56.3488 109.965 56.2709 111.123 58.5539C111.591 56.2396 113.178 55.0458 115.127 54.2159C111.707 53.9603 109.725 51.7277 108.676 48.2095Z" fill="#D7FFFC"/>
    <path fill-rule="evenodd" clip-rule="evenodd" d="M79.607 114.059L78.6548 113.753L83.0043 109.504L83.9564 109.811L84.547 109.234L89.4656 110.817L79.5851 120.468L78.9823 120.274L72.2891 126.811L70.1655 126.128L71.6886 124.64L70.922 124.394L75.2715 120.145L76.0381 120.392L76.8587 119.59L74.6666 118.885L79.607 114.059ZM92.253 108.237L90.7216 109.732L88.2623 108.941L89.7938 107.445L92.253 108.237Z" fill="#A3F5F1"/>
    <path fill-rule="evenodd" clip-rule="evenodd" d="M82.0082 85.2002L81.9766 84.981L87.7037 87.0224L87.7353 87.2415L88.513 87.5187L88.6764 88.6507L75.6665 84.0135L75.6465 83.8747L66.8333 80.7334L66.7627 80.2446L68.7682 80.9594L68.7428 80.783L74.4699 82.8244L74.4953 83.0008L75.5759 83.386L75.5031 82.8815L82.0082 85.2002ZM92.2061 89.9328L90.1896 89.214L90.1078 88.648L92.1243 89.3668L92.2061 89.9328Z" fill="#A3F5F1"/>
    <path fill-rule="evenodd" clip-rule="evenodd" d="M131.529 80.0476L131.954 80.1843L133.029 79.134L132.604 78.9973L132.75 78.8547L130.557 78.1487L128.114 80.5346L128.383 80.6211L126.728 82.2374L127.675 82.5422L128.052 82.1744L128.394 82.2845L129.469 81.2342L129.127 81.1241L129.33 80.926L130.308 81.2406L131.529 80.0476ZM131.17 77.4863L130.791 77.8561L131.888 78.2091L132.267 77.8393L131.17 77.4863Z" fill="#A3F5F1"/>
    <path fill-rule="evenodd" clip-rule="evenodd" d="M130.423 114.036L130.491 113.595L129.285 112.699L129.216 113.14L129.053 113.018L128.701 115.296L131.441 117.332L131.485 117.053L133.341 118.433L133.493 117.449L133.071 117.135L133.125 116.781L131.919 115.884L131.864 116.239L131.637 116.07L131.793 115.055L130.423 114.036ZM127.95 114.794L128.375 115.11L128.551 113.971L128.126 113.656L127.95 114.794Z" fill="#A3F5F1"/>
    <path d="M272.011 51.1805L268.864 52.557L266.537 37.415C262.539 38.9882 259.458 43.4784 256.41 48.0996L252.706 40.5614C250.314 41.9707 248.282 46.3298 246.217 50.4266L241.301 47.1819C239.99 49.4762 239.793 53.7697 239.629 58.1287L233.598 52.8848L235.696 65.6342L229.831 68.7155L232.484 76.4826L227.339 83.8963L234.929 88.5658C234.666 90.3926 231.321 100.824 230.997 102.735C232.722 102.123 236.985 100.307 240.785 98.8324C240.61 101.408 242.072 110.942 243.129 115.207C245.068 113.41 253.668 105.219 258.039 104.069C259.59 106.007 272.264 115.79 273.713 116.284C273.713 109.622 273.365 99.8777 274.775 96.7076L289.676 91.7557L281.384 84.4469L298.296 82.7099L286.563 74.4834L300 60.4885C294.265 59.9313 288.496 59.3742 280.925 58.9153L282.63 46.5264C280.335 47.2147 277.353 48.624 274.272 50.1644L272.011 51.1805Z" fill="url(#paint6_radial_7083_87594)"/>
    <path fill-rule="evenodd" clip-rule="evenodd" d="M249.987 59.6127C250.098 59.4696 250.072 59.2638 249.929 59.1528C249.786 59.0418 249.58 59.0678 249.469 59.2108L248.349 60.6539C247.988 60.5315 247.603 60.4902 247.291 60.4793L247.243 60.4775H247.243C246.908 60.4644 246.152 60.4349 246.152 60.8878C246.183 61.1072 246.381 61.1812 246.575 61.1596C246.684 61.1473 246.952 61.1233 247.268 61.1344C247.704 61.1496 248.173 61.2297 248.484 61.4403C248.511 61.4585 248.565 61.5155 248.63 61.6514C248.692 61.7811 248.749 61.9531 248.801 62.1606C248.905 62.5752 248.977 63.0908 249.025 63.6023C249.073 64.1115 249.097 64.6058 249.109 64.9737C249.111 65.0228 249.109 65.0826 249.106 65.1479L249.106 65.1479C249.095 65.4622 249.08 65.9051 249.449 65.9051C249.73 65.9005 249.784 65.7693 249.775 65.405C249.773 65.2961 249.77 65.1405 249.764 64.9522C249.752 64.5761 249.727 64.0676 249.678 63.5408C249.628 63.0163 249.553 62.4629 249.437 62.0012C249.379 61.7707 249.309 61.5529 249.221 61.3692C249.152 61.2235 249.061 61.0762 248.938 60.965L249.987 59.6127ZM251.197 73.2516C251.701 71.6077 251.493 70.0857 250.731 69.8521C249.97 69.6185 248.944 70.7618 248.439 72.4057C247.935 74.0497 248.143 75.5717 248.905 75.8053C249.666 76.0389 250.692 74.8956 251.197 73.2516ZM258.553 59.8892C258.733 59.8793 258.888 60.0178 258.898 60.1985L258.989 61.8594C259.739 61.8186 260.256 62.3555 260.557 62.8094C260.809 63.1909 260.956 63.5757 261.016 63.7495C261.083 63.9453 261.062 64.1846 260.826 64.2545C260.653 64.3058 260.471 64.207 260.419 64.0337L260.419 64.0333C260.324 63.7304 260.185 63.4354 260.01 63.1711C259.722 62.7362 259.381 62.486 258.94 62.5599C258.734 62.5946 258.445 62.743 258.131 63.0865C257.828 63.4176 257.53 63.8485 257.265 64.2845C257.001 64.7185 256.776 65.1474 256.616 65.4687C256.596 65.5089 256.574 65.5593 256.551 65.6145L256.551 65.6146C256.428 65.9 256.249 66.3176 255.933 66.1645C255.741 66.0715 255.691 65.8667 255.836 65.5778C255.919 65.4109 255.943 65.3584 255.965 65.3118L255.965 65.3117C255.98 65.2777 255.994 65.2468 256.029 65.1766C256.194 64.8449 256.429 64.3986 256.705 63.9439C256.98 63.4912 257.303 63.02 257.647 62.6442C257.855 62.4165 258.09 62.2025 258.343 62.0564L258.243 60.2344C258.233 60.0536 258.372 59.8991 258.553 59.8892Z" fill="url(#paint7_radial_7083_87594)"/>
    <path fill-rule="evenodd" clip-rule="evenodd" d="M237.563 65.1748L225.659 42.4773C225.659 47.3922 231.777 90.1909 241.378 87.5232C254.015 84.0104 237.563 65.1748 237.563 65.1748Z" fill="url(#paint8_radial_7083_87594)"/>
    <path fill-rule="evenodd" clip-rule="evenodd" d="M260.034 77.8448L276.709 30.5938C281.832 49.2878 280.35 64.1042 276.709 80.0197C271.691 90.6562 258.505 85.8269 260.034 77.8448Z" fill="url(#paint9_radial_7083_87594)"/>
    <path fill-rule="evenodd" clip-rule="evenodd" d="M223.543 51.1514L222.303 50.8201L226.616 35.4225L228.016 34.4219L223.543 51.1514Z" fill="#FFBC1C"/>
    <path d="M228.717 37.394C234.072 37.394 238.414 33.0525 238.414 27.697C238.414 22.3415 234.072 18 228.717 18C223.361 18 219.02 22.3415 219.02 27.697C219.02 33.0525 223.361 37.394 228.717 37.394Z" fill="url(#paint10_linear_7083_87594)"/>
    <path d="M230.906 28.1365L232.456 26.6116L233.483 27.1816L231.491 29.141L231.48 29.1351L227.682 32.8546L226.656 32.2846L229.241 29.7519C228.488 29.7705 227.81 29.6122 227.206 29.277C226.72 29.0071 226.371 28.6709 226.156 28.2672C225.944 27.8647 225.87 27.4449 225.941 27.01C226.011 26.5751 226.234 26.1677 226.611 25.7875L228.177 24.2469L229.203 24.817L227.653 26.3417C227.305 26.7005 227.164 27.0849 227.233 27.4961C227.302 27.9074 227.562 28.238 228.009 28.4869C228.432 28.7217 228.904 28.8139 229.43 28.7661C229.956 28.7182 230.407 28.5431 230.783 28.2411L230.896 28.1306L230.906 28.1365Z" fill="black"/>
    <path fill-rule="evenodd" clip-rule="evenodd" d="M274.312 31.7945C273.666 30.5381 274.073 29.2574 275.332 27.9592C275.738 27.5385 277.013 26.4607 277.322 26.6058C277.63 26.7509 277.807 27.2909 277.227 28.2296C276.31 29.7051 279.811 29.652 279.08 31.394C278.955 31.6911 277.969 33.4722 277.327 34.0286C275.796 35.3563 274.99 33.0034 274.312 31.7945Z" fill="#FA4119"/>
    <path fill-rule="evenodd" clip-rule="evenodd" d="M227.98 42.8266C228.213 41.4367 227.558 40.3985 226.185 39.6469C225.741 39.4029 224.409 38.8603 224.187 39.104C223.964 39.3476 223.948 39.9092 224.665 40.5698C225.795 41.6068 222.851 42.8018 223.891 44.1507C224.068 44.3807 225.33 45.6754 226.005 45.9611C227.613 46.6431 227.71 44.1838 227.98 42.8266Z" fill="#FA4119"/>
    <path fill-rule="evenodd" clip-rule="evenodd" d="M36.1628 50.8525C50.2144 41.5589 71.2374 66.0962 86.0088 66.0511C86.0088 66.0511 64.8749 70.3302 56.9509 69.159C42.4634 67.0168 30.7447 54.4364 36.1628 50.8525Z" fill="url(#paint11_radial_7083_87594)"/>
    <path fill-rule="evenodd" clip-rule="evenodd" d="M28.7807 43.3977L15.6352 39.2465V49.0709L6.64136 50.7313L9.5471 59.5868L0 68.1657L8.99387 72.0401V87.6757H19.0942L14.8053 108.016L39.2971 92.9337L51.4733 100.959C52.8607 92.1866 58.0954 88.196 59.4678 79.512C59.4678 79.512 66.1199 57.9811 60.1905 42.5674L51.4733 45.6117L48.1515 36.7559L40.9569 41.1838L31.4098 30.8062L28.7807 43.3977Z" fill="url(#paint12_radial_7083_87594)"/>
    <path fill-rule="evenodd" clip-rule="evenodd" d="M52.7592 62.1343C53.2009 64.2014 53.7628 65.3139 54.4897 65.0978C53.4239 65.9231 52.9672 67.3043 52.7592 68.9144C52.6734 67.5058 52.1158 66.5026 51.0307 65.9505C51.9979 65.1475 52.5061 63.7936 52.7592 62.1343ZM42.3451 65.4614C42.8255 67.1969 43.383 68.3305 44.0757 68.425C43.0849 69.5313 42.6218 70.8496 42.3451 72.2415C42.4416 70.8642 41.8755 69.8702 40.6167 69.2777C41.7618 68.3842 42.2465 67.0514 42.3451 65.4614ZM51.8877 71.7403C51.8952 71.736 51.9022 71.7318 51.9089 71.728C52.5953 72.0173 52.0721 72.4616 51.4044 73.0286C50.5787 73.7297 49.5321 74.6185 50.2791 75.6339C50.8945 76.4711 45.602 78.4279 42.5247 77.2208C40.213 76.3139 40.3696 73.5688 41.89 73.911C46.4215 74.9311 51.163 72.1633 51.8877 71.7403Z" fill="url(#paint13_linear_7083_87594)"/>
    <path fill-rule="evenodd" clip-rule="evenodd" d="M20.9499 66.331C36.9932 71.4721 41.1013 96.1616 45.5789 107.887C45.5789 107.887 24.5905 92.6425 20.5439 85.7297C13.1446 73.0905 14.7635 64.3488 20.9499 66.331Z" fill="url(#paint14_radial_7083_87594)"/>
    <path fill-rule="evenodd" clip-rule="evenodd" d="M86.356 70.6496L85.0962 70.8929L80.9824 50.0851L81.8051 48.5734L86.356 70.6496Z" fill="#FE93ED"/>
    <path d="M83.5227 58.7878C88.8782 58.7878 93.2197 54.4463 93.2197 49.0908C93.2197 43.7353 88.8782 39.3938 83.5227 39.3938C78.1672 39.3938 73.8257 43.7353 73.8257 49.0908C73.8257 54.4463 78.1672 58.7878 83.5227 58.7878Z" fill="url(#paint15_linear_7083_87594)"/>
    <path d="M80.3767 43.4468L82.8911 42.825L85.7003 54.1858L84.1179 54.5771L81.6994 44.7964L80.7674 45.0269L80.3767 43.4468Z" fill="black"/>
    <path fill-rule="evenodd" clip-rule="evenodd" d="M82.489 63.6293C83.0612 62.3398 84.2363 61.8429 85.898 61.9888C86.4357 62.0351 87.9425 62.332 88.0063 62.6604C88.0701 62.9888 87.7683 63.4657 86.75 63.6132C85.1474 63.8422 87.1316 66.4947 85.4342 67.0339C85.1447 67.1259 83.2771 67.4948 82.5081 67.3537C80.6732 67.0174 81.9694 64.9128 82.489 63.6293Z" fill="url(#paint16_linear_7083_87594)"/>
    <path fill-rule="evenodd" clip-rule="evenodd" d="M44.5214 107.051C44.5685 107.03 44.5893 106.974 44.5684 106.928C44.3821 106.185 44.0699 106.087 43.7658 106.08C43.6183 106.077 43.4513 106.105 43.2507 106.138C43.0346 106.174 42.7795 106.217 42.4679 106.234C42.434 106.237 42.4006 106.248 42.3659 106.259C42.3582 106.262 42.3503 106.264 42.3424 106.267C42.3126 106.276 42.2915 106.293 42.2696 106.31C42.2499 106.325 42.2297 106.341 42.2019 106.353C42.1355 106.383 42.081 106.414 42.0281 106.443C41.923 106.501 41.8238 106.556 41.648 106.603C41.5988 106.585 41.5455 106.612 41.5286 106.66C41.5117 106.709 41.5377 106.762 41.5869 106.779C41.614 106.809 41.6373 106.831 41.6603 106.853C41.6816 106.873 41.7026 106.893 41.7261 106.919C41.8818 107.091 41.9509 107.151 42.1079 107.272C42.2625 107.391 42.4779 107.422 42.6636 107.382C42.8342 107.347 42.9805 107.288 43.1122 107.211C43.3214 107.087 43.4751 106.956 43.6198 106.826C43.6514 106.798 43.6791 106.771 43.7053 106.745C43.75 106.7 43.7903 106.659 43.8386 106.632C43.8523 106.624 43.865 106.614 43.8775 106.605C43.9102 106.58 43.9408 106.557 43.9815 106.574C44.0977 106.624 44.2193 106.742 44.3724 106.967C44.2347 107.139 44.0857 107.331 43.9265 107.536C43.8293 107.661 43.7284 107.791 43.6239 107.925L43.4961 108.089C43.1261 108.566 42.7311 109.075 42.3917 109.613C42.2254 109.874 42.0676 110.135 41.9412 110.402C41.8933 110.508 41.8487 110.612 41.8158 110.717C41.7931 110.792 41.778 110.867 41.7645 110.941C41.7477 111.032 41.7343 111.118 41.7278 111.207C41.7093 111.488 41.7245 111.725 41.7484 111.971L41.7544 112.037C41.7622 112.122 41.7696 112.205 41.7845 112.288C41.7827 112.321 41.811 112.353 41.8456 112.352C41.8814 112.353 41.9115 112.326 41.9123 112.29C41.9355 112.194 41.9623 112.103 42.0003 112.004C42.0593 111.855 42.14 111.721 42.2276 111.576C42.2626 111.517 42.2986 111.457 42.3348 111.394C42.3534 111.362 42.3725 111.331 42.3916 111.3C42.428 111.241 42.4645 111.181 42.4979 111.116C42.5459 111.022 42.5899 110.924 42.6317 110.825C42.6804 110.708 42.7257 110.587 42.7717 110.465L42.7717 110.465C42.8116 110.359 42.8519 110.252 42.8954 110.145C43.1141 109.608 43.3437 109.061 43.6076 108.555C43.9053 107.987 44.2191 107.474 44.4757 107.059C44.4908 107.06 44.5065 107.057 44.5214 107.051ZM44.3432 107.462C44.3108 107.45 44.2728 107.465 44.2605 107.5C44.0767 107.888 43.9701 108.31 43.8972 108.743C43.7905 109.381 43.7737 110.042 43.8239 110.701C43.8499 111.034 43.8828 111.358 43.9415 111.675C43.9824 111.893 44.0223 112.106 44.0923 112.308C44.1476 112.467 44.2189 112.611 44.2934 112.751C44.3758 112.907 44.4624 113.042 44.5464 113.172C44.6041 113.262 44.6605 113.35 44.7134 113.441C44.7568 113.515 44.7949 113.587 44.8325 113.658L44.8325 113.658L44.8325 113.658C44.8471 113.685 44.8615 113.712 44.8762 113.74C44.886 113.772 44.9223 113.791 44.9565 113.781C44.9905 113.771 45.0092 113.734 44.9994 113.702C44.9955 113.667 44.9913 113.633 44.9871 113.598C44.9782 113.526 44.9692 113.453 44.9632 113.376C44.953 113.254 44.9488 113.133 44.9444 113.007C44.94 112.881 44.9354 112.75 44.9245 112.61L44.9209 112.566C44.9126 112.462 44.9045 112.362 44.8872 112.255C44.8685 112.142 44.843 112.028 44.812 111.914C44.7734 111.771 44.7284 111.629 44.683 111.485L44.683 111.485L44.683 111.485C44.6497 111.379 44.6163 111.273 44.585 111.166C44.4151 110.585 44.2485 109.991 44.1949 109.386C44.1395 108.756 44.1887 108.13 44.3799 107.547C44.3922 107.512 44.3767 107.476 44.3432 107.462ZM45.141 107.195C45.1362 107.16 45.1604 107.127 45.1958 107.123C45.23 107.116 45.2637 107.142 45.2685 107.176C45.4191 107.918 45.6659 108.629 45.9861 109.291C46.3139 109.968 46.7255 110.577 47.1245 111.146C47.2121 111.271 47.301 111.392 47.3886 111.511L47.3886 111.511L47.3886 111.511C47.4855 111.643 47.5806 111.772 47.6702 111.902C47.7505 112.019 47.8255 112.135 47.8932 112.25C47.9541 112.354 48.006 112.458 48.0575 112.561L48.0575 112.561L48.0886 112.623C48.1518 112.749 48.208 112.869 48.262 112.984C48.3356 113.141 48.4049 113.289 48.4818 113.431C48.5309 113.523 48.5794 113.604 48.6267 113.684C48.6427 113.711 48.6586 113.737 48.6743 113.764C48.6972 113.791 48.6934 113.832 48.667 113.857C48.6396 113.879 48.5983 113.874 48.5754 113.846C48.535 113.812 48.4946 113.776 48.4532 113.74L48.4531 113.74C48.3996 113.692 48.3443 113.644 48.2848 113.594C48.208 113.529 48.1287 113.465 48.0474 113.4L48.0474 113.4C47.8978 113.28 47.7415 113.155 47.5814 113.005C47.4488 112.882 47.3184 112.754 47.1945 112.606C47.0917 112.483 46.999 112.344 46.9082 112.204C46.7773 112.002 46.6579 111.786 46.5386 111.561C46.1256 110.784 45.7715 109.913 45.5049 108.99C45.3369 108.408 45.2009 107.811 45.141 107.195Z" fill="url(#paint17_linear_7083_87594)"/>
    <path fill-rule="evenodd" clip-rule="evenodd" d="M188.123 63.8821C184.298 80.2891 160.022 86.3834 148.698 91.7959C148.698 91.7959 162.192 69.6418 168.755 65.0486C180.753 56.6499 189.597 57.5556 188.123 63.8821Z" fill="url(#paint18_radial_7083_87594)"/>
    <path fill-rule="evenodd" clip-rule="evenodd" d="M178.605 51.6037L187.116 37.0728L191.855 47.4579L205.048 44.2895L203.972 52.7652L219.533 52.6987L210.706 65.8525L223.73 73.9787L211.56 80.2232L222.524 100.597L193.813 92.5744L181.117 109.171L171.905 88.3124L160.899 83.7776L165.514 74.308L160.99 64.395L169.172 60.6612L172.917 46.7846L178.605 51.6037Z" fill="url(#paint19_radial_7083_87594)"/>
    <path fill-rule="evenodd" clip-rule="evenodd" d="M183.287 74.4544C183.462 76.7664 183.816 77.7388 185.653 77.949C183.779 78.4872 183.564 79.0924 183.287 80.2114C182.832 79.0224 182.402 78.5169 181.081 78.138C182.411 77.607 182.876 76.7656 183.287 74.4544Z" fill="url(#paint20_radial_7083_87594)"/>
    <path fill-rule="evenodd" clip-rule="evenodd" d="M174.628 74.0956C175.213 75.9083 175.679 76.8133 177.343 77.7596C176.11 78.1532 176.01 78.6191 176.101 79.5505C175.496 78.487 175.105 77.8867 173.642 76.7247C174.288 76.8324 174.508 76.2562 174.628 74.0956Z" fill="url(#paint21_radial_7083_87594)"/>
    <path fill-rule="evenodd" clip-rule="evenodd" d="M201.475 73.7702C193.555 76.1727 163.567 89.9654 163.567 89.9654C163.567 89.9654 184.911 94.0981 195.689 91.389C207.912 88.3169 209.394 71.3676 201.475 73.7702Z" fill="url(#paint22_linear_7083_87594)"/>
    <path fill-rule="evenodd" clip-rule="evenodd" d="M151.491 93.923L150.442 94.6618L138.153 77.3738L138.283 75.6576L151.491 93.923Z" fill="#FF3232"/>
    <path fill-rule="evenodd" clip-rule="evenodd" d="M149.421 88.5102C148.07 88.11 146.96 88.6336 146.046 89.9047C145.75 90.3154 145.049 91.571 145.264 91.8217C145.479 92.0724 146.034 92.1563 146.777 91.5256C147.944 90.5308 148.772 93.5985 150.237 92.7305C150.487 92.5825 151.926 91.4871 152.292 90.8529C153.164 89.3397 150.735 88.9438 149.421 88.5102Z" fill="#FF728D"/>
    <path d="M136.117 80.7116C141.473 80.7116 145.814 76.3701 145.814 71.0146C145.814 65.6591 141.473 61.3176 136.117 61.3176C130.762 61.3176 126.42 65.6591 126.42 71.0146C126.42 76.3701 130.762 80.7116 136.117 80.7116Z" fill="url(#paint23_linear_7083_87594)"/>
    <path d="M136.852 72.3119C136.437 72.5144 136.126 72.8106 135.918 73.2005C135.711 73.5905 135.629 74.0063 135.675 74.4468L140.569 72.0606L141.157 73.2674L134.947 76.2959L134.673 75.7346C134.644 75.6743 134.617 75.6128 134.592 75.5501L134.42 75.059C134.236 74.2623 134.306 73.5025 134.632 72.7783C134.958 72.0543 135.498 71.4986 136.252 71.1114L136.249 71.1052C136.775 70.8485 137.134 70.4431 137.326 69.8892C137.515 69.3362 137.481 68.7965 137.224 68.2694C136.969 67.7464 136.565 67.3885 136.012 67.1951C135.456 67.0029 134.916 67.0354 134.389 67.2921C134.023 67.4704 133.745 67.7269 133.558 68.0595C133.369 68.3931 133.263 68.7462 133.239 69.1186C133.219 69.4897 133.279 69.8324 133.42 70.1472L132.199 70.7051C131.853 69.9129 131.802 69.0762 132.044 68.1967C132.354 67.2089 132.938 66.5059 133.801 66.0853C134.372 65.8069 134.962 65.6933 135.569 65.746C136.178 65.7973 136.737 65.9903 137.248 66.3235C137.759 66.6566 138.154 67.1089 138.433 67.6801C138.711 68.2515 138.824 68.8409 138.775 69.4478C138.725 70.0546 138.534 70.6107 138.205 71.1148C137.876 71.6189 137.424 72.0158 136.849 72.306L136.852 72.3119Z" fill="black"/>
    <defs>
        <linearGradient id="paint0_linear_7083_87594" x1="104.473" y1="83.1716" x2="116.745" y2="92.5649" gradientUnits="userSpaceOnUse">
            <stop stop-color="#009CBA"/>
            <stop offset="0.77" stop-color="#04FFE3"/>
            <stop offset="1" stop-color="#B8FFD1"/>
        </linearGradient>
        <linearGradient id="paint1_linear_7083_87594" x1="112.572" y1="76.3675" x2="121.991" y2="84.2768" gradientUnits="userSpaceOnUse">
            <stop stop-color="#B8FFD1"/>
            <stop offset="0.23" stop-color="#04FFE3"/>
            <stop offset="1" stop-color="#009CBA"/>
        </linearGradient>
        <linearGradient id="paint2_linear_7083_87594" x1="104.457" y1="71.691" x2="113.876" y2="79.6003" gradientUnits="userSpaceOnUse">
            <stop stop-color="#B8FFD1"/>
            <stop offset="0.23" stop-color="#04FFE3"/>
            <stop offset="1" stop-color="#009CBA"/>
        </linearGradient>
        <linearGradient id="paint3_linear_7083_87594" x1="101.847" y1="81.8946" x2="113.702" y2="79.8953" gradientUnits="userSpaceOnUse">
            <stop stop-color="#009CBA"/>
            <stop offset="0.77" stop-color="#04FFE3"/>
            <stop offset="1" stop-color="#B8FFD1"/>
        </linearGradient>
        <linearGradient id="paint4_linear_7083_87594" x1="123" y1="112" x2="103.5" y2="112" gradientUnits="userSpaceOnUse">
            <stop stop-color="#B8FFD1"/>
            <stop offset="0.23" stop-color="#04FFE3"/>
            <stop offset="1" stop-color="#009CBA"/>
        </linearGradient>
        <radialGradient id="paint5_radial_7083_87594" cx="0" cy="0" r="1" gradientUnits="userSpaceOnUse" gradientTransform="translate(109.388 101.816) scale(14.3023 4.56186)">
            <stop stop-color="#FAFFFE"/>
            <stop offset="1" stop-color="#72FFDD"/>
        </radialGradient>
        <radialGradient id="paint6_radial_7083_87594" cx="0" cy="0" r="1" gradientUnits="userSpaceOnUse" gradientTransform="translate(255.5 73.9999) rotate(90) scale(59.5 59)">
            <stop offset="0.322397" stop-color="#FFF8D6"/>
            <stop offset="0.420226" stop-color="#FFE767"/>
            <stop offset="0.604721" stop-color="#FF9D42"/>
            <stop offset="0.743476" stop-color="#FA4119"/>
        </radialGradient>
        <radialGradient id="paint7_radial_7083_87594" cx="0" cy="0" r="1" gradientUnits="userSpaceOnUse" gradientTransform="translate(253.5 67.9999) rotate(69.1022) scale(8.38743 8.0281)">
            <stop stop-color="#ED7100"/>
            <stop offset="1" stop-color="#FA4119"/>
        </radialGradient>
        <radialGradient id="paint8_radial_7083_87594" cx="0" cy="0" r="1" gradientUnits="userSpaceOnUse" gradientTransform="translate(243 88.0001) rotate(-111.801) scale(45.7739 46.014)">
            <stop offset="0.23531" stop-color="#FFF8D6" stop-opacity="0"/>
            <stop offset="0.420226" stop-color="#FFE767"/>
            <stop offset="0.604721" stop-color="#FF9D42"/>
            <stop offset="0.743476" stop-color="#FA4119"/>
        </radialGradient>
        <radialGradient id="paint9_radial_7083_87594" cx="0" cy="0" r="1" gradientUnits="userSpaceOnUse" gradientTransform="translate(258.5 95.5001) rotate(-73.1286) scale(63.7436 53.5745)">
            <stop offset="0.23531" stop-color="#FFF8D6" stop-opacity="0"/>
            <stop offset="0.420226" stop-color="#FFE767"/>
            <stop offset="0.604721" stop-color="#FF9D42"/>
            <stop offset="0.743476" stop-color="#FA4119"/>
        </radialGradient>
        <linearGradient id="paint10_linear_7083_87594" x1="219.057" y1="31.5185" x2="249.218" y2="23.5395" gradientUnits="userSpaceOnUse">
            <stop stop-color="#B8FFD1"/>
            <stop offset="0.23" stop-color="#04FFE3"/>
            <stop offset="1" stop-color="#009CBA"/>
        </linearGradient>
        <radialGradient id="paint11_radial_7083_87594" cx="0" cy="0" r="1" gradientUnits="userSpaceOnUse" gradientTransform="translate(33.5778 53.6172) rotate(19.3802) scale(69.8726 54.988)">
            <stop offset="0.235" stop-color="#F3F6FF" stop-opacity="0"/>
            <stop offset="0.356618" stop-color="#D1DEFF"/>
            <stop offset="0.425" stop-color="#C3BCFF"/>
            <stop offset="0.603681" stop-color="#B25FF2"/>
        </radialGradient>
        <radialGradient id="paint12_radial_7083_87594" cx="0" cy="0" r="1" gradientUnits="userSpaceOnUse" gradientTransform="translate(40.2247 67.2547) rotate(-135.791) scale(58.8656 58.4254)">
            <stop offset="0.235" stop-color="#F3F6FF"/>
            <stop offset="0.356618" stop-color="#D1DEFF"/>
            <stop offset="0.425" stop-color="#C3BCFF"/>
            <stop offset="0.603681" stop-color="#B25FF2"/>
        </radialGradient>
        <linearGradient id="paint13_linear_7083_87594" x1="45.0247" y1="54.3884" x2="51.9966" y2="77.9239" gradientUnits="userSpaceOnUse">
            <stop stop-color="#7365EE"/>
            <stop offset="0.878495" stop-color="#BA61FF"/>
        </linearGradient>
        <radialGradient id="paint14_radial_7083_87594" cx="0" cy="0" r="1" gradientUnits="userSpaceOnUse" gradientTransform="translate(18.0602 65.9412) rotate(64.1011) scale(63.1495 62.4042)">
            <stop offset="0.235" stop-color="#F3F6FF" stop-opacity="0"/>
            <stop offset="0.356618" stop-color="#D1DEFF"/>
            <stop offset="0.425" stop-color="#C3BCFF"/>
            <stop offset="0.603681" stop-color="#B25FF2"/>
        </radialGradient>
        <linearGradient id="paint15_linear_7083_87594" x1="63" y1="58.9999" x2="104.764" y2="47.1549" gradientUnits="userSpaceOnUse">
            <stop stop-color="#009CBA"/>
            <stop offset="0.77" stop-color="#04FFE3"/>
            <stop offset="1" stop-color="#B8FFD1"/>
        </linearGradient>
        <linearGradient id="paint16_linear_7083_87594" x1="85.5355" y1="58.4824" x2="85.7005" y2="68.3468" gradientUnits="userSpaceOnUse">
            <stop stop-color="#7365EE"/>
            <stop offset="0.878495" stop-color="#BA61FF"/>
        </linearGradient>
        <linearGradient id="paint17_linear_7083_87594" x1="43.8003" y1="102.178" x2="47.2376" y2="114.079" gradientUnits="userSpaceOnUse">
            <stop stop-color="#7365EE"/>
            <stop offset="0.878495" stop-color="#BA61FF"/>
        </linearGradient>
        <radialGradient id="paint18_radial_7083_87594" cx="0" cy="0" r="1" gradientUnits="userSpaceOnUse" gradientTransform="translate(189.827 81.3929) rotate(-154.675) scale(75.4906 94.0032)">
            <stop offset="0.102072" stop-color="#FFF9FF" stop-opacity="0"/>
            <stop offset="0.31835" stop-color="#FF89AC"/>
            <stop offset="0.914249" stop-color="#FC2C2C"/>
        </radialGradient>
        <radialGradient id="paint19_radial_7083_87594" cx="0" cy="0" r="1" gradientUnits="userSpaceOnUse" gradientTransform="translate(190.696 69.0444) rotate(-165.045) scale(43.0477 43.6021)">
            <stop offset="0.174205" stop-color="#FFF9FF"/>
            <stop offset="0.374089" stop-color="#FFE2FE"/>
            <stop offset="0.58051" stop-color="#FF89AC"/>
            <stop offset="0.833404" stop-color="#FC2C2C"/>
        </radialGradient>
        <radialGradient id="paint20_radial_7083_87594" cx="0" cy="0" r="1" gradientUnits="userSpaceOnUse" gradientTransform="translate(183.972 73.0519) rotate(96.9088) scale(13.0962 11.2984)">
            <stop offset="0.0775548" stop-color="#C93131"/>
            <stop offset="0.547788" stop-color="#E20ABD"/>
        </radialGradient>
        <radialGradient id="paint21_radial_7083_87594" cx="0" cy="0" r="1" gradientUnits="userSpaceOnUse" gradientTransform="translate(174.071 72.7661) rotate(72.3864) scale(12.9539 8.04157)">
            <stop offset="0.0775548" stop-color="#C93131"/>
            <stop offset="0.547788" stop-color="#E20ABD"/>
        </radialGradient>
        <linearGradient id="paint22_linear_7083_87594" x1="201.743" y1="63.8783" x2="154.864" y2="93.929" gradientUnits="userSpaceOnUse">
            <stop offset="0.102072" stop-color="#FFF9FF" stop-opacity="0"/>
            <stop offset="0.31835" stop-color="#FF89AC"/>
            <stop offset="0.914249" stop-color="#FC2C2C"/>
        </linearGradient>
        <linearGradient id="paint23_linear_7083_87594" x1="133" y1="56.5002" x2="129.799" y2="88.8872" gradientUnits="userSpaceOnUse">
            <stop stop-color="#B8FFD1"/>
            <stop offset="0.23" stop-color="#04FFE3"/>
            <stop offset="1" stop-color="#009CBA"/>
        </linearGradient>
    </defs>
</svg>
