<svg width="298" height="143" viewBox="0 0 298 143" fill="none" xmlns="http://www.w3.org/2000/svg">
    <path fill-rule="evenodd" clip-rule="evenodd" d="M272.384 4.04492L271.224 7.34297C271.138 7.58847 271.121 7.85047 271.174 8.10001C271.227 8.34956 271.35 8.57547 271.526 8.75263L273.901 11.1267L270.712 10.0736C270.475 9.99479 270.218 9.98795 269.971 10.0525C269.724 10.1171 269.498 10.2502 269.317 10.4379L266.894 12.9568L268.054 9.65956C268.141 9.41401 268.158 9.15202 268.104 8.90247C268.051 8.65292 267.929 8.42623 267.752 8.2499L265.377 5.87578L268.566 6.92896C268.803 7.00691 269.06 7.01454 269.307 6.94997C269.554 6.8854 269.78 6.75227 269.961 6.56468L272.384 4.04492Z" fill="#68DFDC"/>
    <path fill-rule="evenodd" clip-rule="evenodd" d="M239.097 37.3294L236.957 38.275C236.798 38.3454 236.662 38.4584 236.565 38.6013C236.468 38.7441 236.413 38.9108 236.408 39.0822L236.338 41.3837L235.391 39.2847C235.321 39.1284 235.206 38.9953 235.062 38.9006C234.917 38.806 234.749 38.7535 234.574 38.7496L232.236 38.6958L234.375 37.7503C234.535 37.6799 234.67 37.5668 234.768 37.424C234.865 37.2811 234.92 37.1144 234.925 36.9431L234.995 34.6415L235.941 36.7406C236.012 36.8968 236.126 37.0299 236.271 37.1246C236.415 37.2193 236.584 37.2717 236.758 37.2757L239.097 37.3294Z" fill="#68DFDC"/>
    <path d="M283.614 28.7323L245.936 6.99658V110.272L283.614 132.008V28.7323Z" fill="url(#paint0_linear_7083_87484)"/>
    <mask id="mask0_7083_87484" style="mask-type:luminance" maskUnits="userSpaceOnUse" x="245" y="6" width="39" height="127">
        <path d="M283.614 28.7323L245.935 6.99658V110.272L283.614 132.008V28.7323Z" fill="white"/>
    </mask>
    <g mask="url(#mask0_7083_87484)">
        <path opacity="0.5" d="M256.898 -14.9729V84.6562L274.861 79.1091V-20.52L256.898 -14.9729Z" fill="#68DFDC"/>
        <path d="M238.931 61.4624V107.531L263.28 100.011V53.9434L238.931 61.4624Z" fill="#7CFFB9" fill-opacity="0.25"/>
        <path d="M229.448 48.6507V78.0593L289.475 59.5229V30.1143L229.448 48.6507Z" fill="url(#paint1_linear_7083_87484)" fill-opacity="0.5"/>
        <path d="M283.734 61.6064C285.476 61.245 286.38 58.5041 285.754 55.4843C285.127 52.4645 283.207 50.3094 281.466 50.6707C279.724 51.032 278.819 53.773 279.446 56.7928C280.072 59.8126 281.992 61.9677 283.734 61.6064Z" stroke="#68DFDC" stroke-width="0.5" stroke-miterlimit="1.5" stroke-linecap="round" stroke-linejoin="round"/>
        <g opacity="0.7">
            <path d="M248.818 11.541V21.9595L435.295 -35.625V-46.0434L248.818 11.541Z" fill="url(#paint2_linear_7083_87484)"/>
            <path d="M248.818 31.1739V41.5923L435.295 -15.9922V-26.4106L248.818 31.1739Z" fill="url(#paint3_linear_7083_87484)"/>
            <path d="M248.818 50.7989V61.2173L435.295 3.6328V-6.78563L248.818 50.7989Z" fill="url(#paint4_linear_7083_87484)"/>
        </g>
        <path d="M254.423 56.9017V65.9043L259.396 64.3685V55.3659L254.423 56.9017Z" fill="#26B9D9" fill-opacity="0.3"/>
        <path d="M222.188 84.6753V93.678L249.415 85.2704V76.2677L222.188 84.6753Z" fill="#008F8F"/>
        <path d="M269.089 39.3063V40.7642L270.673 40.2751V38.8172L269.089 39.3063Z" fill="#008F8F"/>
        <path d="M276.939 28.4176V29.8755L278.523 29.3864V27.9285L276.939 28.4176Z" fill="#008F8F"/>
        <path d="M272.058 73.1104V82.113L282.768 78.8057V69.803L272.058 73.1104Z" fill="#008F8F"/>
        <g opacity="0.62">
            <path fill-rule="evenodd" clip-rule="evenodd" d="M248.04 68.8199L275.617 60.3039V56.5399L287.673 52.8172V62.4867L248.04 74.7253V68.8199Z" fill="#FAFFFE"/>
        </g>
        <path d="M325.985 121.352L284.772 97.2314L238.075 113.119L279.288 137.24L325.985 121.352Z" fill="#DDFFED"/>
        <path d="M284.374 94.4884L272.209 87.3684L250.166 94.8682L262.331 101.988L284.374 94.4884Z" fill="#04FFE3" fill-opacity="0.55"/>
        <path d="M286.142 125.422L278.515 120.958L274.508 122.321L282.135 126.785L286.142 125.422Z" fill="#A3F5F1"/>
        <path fill-rule="evenodd" clip-rule="evenodd" d="M294.597 112.596L280.076 117.536L287.83 122.075L281.482 124.234L261.563 112.576L282.432 105.476L294.597 112.596Z" fill="#FFF9FF"/>
    </g>
    <g opacity="0.26">
        <path d="M255.694 6.41597L244.572 0V38.3597L255.694 44.7756V6.41597Z" fill="#7CFFB9"/>
    </g>
    <path d="M277.031 112.091L269.767 107.901V137.963L277.031 142.153V112.091Z" fill="#80E9FF" fill-opacity="0.31"/>
    <path opacity="0.56" d="M259.181 20.9558L252.208 16.9333V23.9062L259.181 27.9286V20.9558Z" fill="#008F8F"/>
    <path d="M258.298 122.964L254.894 121V125.997L258.298 127.961V122.964Z" fill="#68DFDC"/>
    <path d="M248.405 129.964L245 128V138.761L248.405 140.725V129.964Z" fill="#68DFDC"/>
    <path opacity="0.5" fill-rule="evenodd" clip-rule="evenodd" d="M290.911 18.3296V43.5995L298 47.6889V58.7355L279.789 48.23V11.9136L290.911 18.3296Z" fill="#D7FFFC"/>
    <path d="M271.548 71.8118C275.289 71.0358 277.218 65.0916 275.858 58.535C274.498 51.9784 270.363 47.2924 266.622 48.0683C262.882 48.8443 260.952 54.7885 262.312 61.3451C263.672 67.9017 267.807 72.5878 271.548 71.8118Z" stroke="#04FFE3" stroke-width="0.75" stroke-miterlimit="1.5" stroke-linecap="round" stroke-linejoin="round"/>
    <path d="M258.751 83.1173C265.336 81.7513 268.737 71.3055 266.347 59.786C263.957 48.2665 256.682 40.0355 250.097 41.4016C243.512 42.7676 240.111 53.2134 242.5 64.7329C244.89 76.2524 252.166 84.4834 258.751 83.1173Z" stroke="#04FFE3" stroke-width="0.75" stroke-miterlimit="1.5" stroke-linecap="round" stroke-linejoin="round"/>
    <path fill-rule="evenodd" clip-rule="evenodd" d="M272.197 104.666L272.913 105.085L263.971 108.127L266.78 109.771L252.824 114.52L251.598 113.802L239.283 117.992L235.666 115.875L249.622 111.127L250.849 111.844L263.163 107.655L263.255 107.708L272.197 104.666Z" fill="url(#paint5_linear_7083_87484)" fill-opacity="0.41"/>
    <path d="M233.763 120.987L232.454 120.221L231.018 120.709L232.327 121.476L233.763 120.987Z" fill="#80E9FF"/>
    <path d="M248.059 107.902L245.777 106.566L243.689 107.277L245.971 108.613L248.059 107.902Z" fill="#45FFC7" fill-opacity="0.28"/>
    <circle cx="234.098" cy="97.6333" r="1.56816" stroke="#A3F5F1" stroke-width="0.419389"/>
    <path d="M226.134 19.2444L227.956 22.4313" stroke="#A3F5F1" stroke-width="2.01498" stroke-miterlimit="1.5" stroke-linejoin="round"/>
    <path d="M213.866 127.622L198 136.308" stroke="#A3F5F1" stroke-width="2.01498" stroke-miterlimit="1.5" stroke-linejoin="round"/>
    <path fill-rule="evenodd" clip-rule="evenodd" d="M143.77 60.085L167.469 61.1396L140.748 75.5936C136.289 78.5687 136.838 61.1396 143.77 60.085Z" fill="url(#paint6_radial_7083_87484)"/>
    <path fill-rule="evenodd" clip-rule="evenodd" d="M117.835 32.9141C121.757 37.7057 124.601 39.8391 125.261 43.816L136.718 42.0822L137.964 53.1143L148.631 57.5779L143.437 67.4563L149.927 76.6981L139.941 82.2857L136.718 103.487L126.013 96.6534L120.132 99.6023L115.923 96.6524L93.5109 104.712L95.8672 88.9686L82.4988 82.8995L88.6027 78.0716L79.6616 70.9305L87.5723 62.8708L84.0582 52.2775L95.3103 49.6132L102.009 39.0854L110.354 42.0832L117.835 32.9141Z" fill="url(#paint7_radial_7083_87484)"/>
    <path fill-rule="evenodd" clip-rule="evenodd" d="M120.312 86.0267L129.689 76.1296L119.887 67.5323L110.51 77.4294L120.312 86.0267Z" fill="#9AE9E4"/>
    <path fill-rule="evenodd" clip-rule="evenodd" d="M120.719 54.429C120.649 54.2539 120.451 54.1686 120.276 54.2385C120.101 54.3084 120.015 54.507 120.085 54.6821C120.51 55.7474 120.702 56.4614 120.817 57.3581C119.693 56.6865 118.385 56.2022 116.802 55.8913C116.59 55.8496 116.384 55.988 116.342 56.2006C116.3 56.4131 116.438 56.6193 116.651 56.661C119.71 57.2622 121.633 58.5257 123.224 60.5808C123.356 60.7521 123.603 60.7835 123.774 60.6509C123.945 60.5184 123.977 60.272 123.844 60.1007C123.159 59.2158 122.413 58.4667 121.557 57.8457C121.442 56.6018 121.253 55.7668 120.719 54.429ZM129.548 56.0054C129.726 55.9445 129.921 56.0398 129.981 56.2182C130.214 56.9004 130.361 57.4387 130.421 58.0047C130.465 58.4174 130.462 58.8357 130.42 59.3261C131.551 58.9019 132.717 58.5941 134 58.5003C134.194 58.4861 134.363 58.6322 134.377 58.8267C134.392 59.0211 134.246 59.1902 134.051 59.2044C131.859 59.3646 130.019 60.1896 127.953 61.1921C127.778 61.2772 127.567 61.204 127.482 61.0286C127.397 60.8532 127.47 60.642 127.645 60.5569C128.339 60.2204 129.019 59.8974 129.705 59.6101C129.776 58.9852 129.789 58.5204 129.742 58.0769C129.69 57.5847 129.561 57.1017 129.335 56.4387C129.274 56.2603 129.37 56.0663 129.548 56.0054Z" fill="url(#paint8_linear_7083_87484)"/>
    <path d="M130.689 63.2195C127.026 66.473 118.531 62.4125 117.976 59.5884" stroke="url(#paint9_linear_7083_87484)" stroke-width="0.92915" stroke-linecap="round"/>
    <path fill-rule="evenodd" clip-rule="evenodd" d="M111.36 91.4761L127.226 82.7901L118.922 67.6218L103.056 76.3078L111.36 91.4761Z" fill="url(#paint10_linear_7083_87484)"/>
    <path fill-rule="evenodd" clip-rule="evenodd" d="M99.9602 65.2041C105.907 66.9415 115.083 76.3694 123.496 78.8273C123.496 78.8273 105.451 84.5508 95.7737 79.5333C86.096 74.5158 96.5842 64.2192 99.9602 65.2041Z" fill="url(#paint11_radial_7083_87484)"/>
    <path fill-rule="evenodd" clip-rule="evenodd" d="M147.301 86.8465L146.064 93.3262L163.304 97.968L167.063 86.054L147.301 86.8465Z" fill="#9AE9E4"/>
    <path fill-rule="evenodd" clip-rule="evenodd" d="M163.062 86.4136L161.452 94.1221L149.499 95.9127L149.996 83.9647L163.062 86.4136Z" fill="url(#paint12_linear_7083_87484)"/>
    <path fill-rule="evenodd" clip-rule="evenodd" d="M180.901 36.3502L175.825 49.3282L165.861 51.5065L169.161 62.1896L161.032 68.5278L167.578 75.7533L165.093 87.0184L175.825 93.0244L173.955 110.315L190.911 99.3723L197.869 101.017L201.928 99.3719L210.161 110.315L215.595 97.407L221.258 96.737L220.035 86.1432L231.831 76.8888L223.452 63.968L226.981 47.331L213.377 46.2425L203.13 32.3715L189.861 41.8661L180.901 36.3502Z" fill="url(#paint13_radial_7083_87484)"/>
    <path fill-rule="evenodd" clip-rule="evenodd" d="M172.505 82.8142L156.18 86.4674L170.127 65.8286C179.865 56.3582 185.611 80.5862 172.505 82.8142Z" fill="url(#paint14_linear_7083_87484)"/>
    <path fill-rule="evenodd" clip-rule="evenodd" d="M219.215 60.6446L248.561 56.2178L218.488 79.4264C210.615 85.5038 205.27 67.7716 219.215 60.6446Z" fill="url(#paint15_linear_7083_87484)"/>
    <path fill-rule="evenodd" clip-rule="evenodd" d="M244.758 54.5027C244.935 52.8201 245.89 51.846 247.473 51.4475C247.985 51.3174 252.263 49.1256 252.413 49.4826C252.562 49.8424 250.398 51.81 249.49 52.3248C249.028 52.5655 248.298 53.4981 248.306 53.7859C249.454 53.1854 250.166 55.7896 248.893 56.855C248.649 57.0598 246.551 58.6926 245.798 58.7922C244.002 59.0302 244.628 56.1604 244.758 54.5027Z" fill="#FD3C42"/>
    <path fill-rule="evenodd" clip-rule="evenodd" d="M185.877 67.2765C184.465 65.7832 185.354 63.8424 185.691 60.5972C184.63 62.3607 182.117 63.1277 180.057 64.0197C182.094 64.4787 184.061 65.4142 185.877 67.2765Z" fill="url(#paint16_linear_7083_87484)"/>
    <path fill-rule="evenodd" clip-rule="evenodd" d="M202.224 67.299C199.711 66.7761 197.014 63.9172 197.247 62.0229C196.123 64.3937 195.681 67.27 193.179 68.2694C195.419 67.3775 199.269 66.8051 202.224 67.299Z" fill="url(#paint17_linear_7083_87484)"/>
    <path fill-rule="evenodd" clip-rule="evenodd" d="M185.869 70.1516C185.897 71.3255 189.765 72.4114 192.209 71.4216C193.892 70.7406 193.912 75.0986 187.957 73.5423C182.584 72.1394 185.84 69.0064 185.869 70.1516Z" fill="url(#paint18_linear_7083_87484)"/>
    <path d="M68.7261 111.927L58.021 107.602L48.4729 121.675L41.6485 110.508C33.8987 117.946 29.9883 120.738 28.5305 121.335C28.7352 115.593 27.7646 111.062 26.3267 105.574L16.1836 110.404L19.2315 99.0897C14.7467 97.6195 11.1877 96.6624 7.63798 94.1756L11.4317 85.4573C7.9225 83.1574 5.13921 79.9418 3.07801 75.8223L12.1792 69.6502L9.23944 57.6732L20.1166 55.5223L23.7497 44.3249L34.3858 47.5825L43.5408 38.9783L49.5587 47.3971L61.5771 44.4029L62.5834 54.7825L75.3994 58.7563L71.2553 68.4784L82.0416 77.177L74.3961 83.4767L77.8763 95.0045L71.0129 97.6769" fill="url(#paint19_radial_7083_87484)"/>
    <path fill-rule="evenodd" clip-rule="evenodd" d="M79.6458 105.301L82.7952 95.5398L57.082 85.0763L49.0001 102.74L79.6458 105.301Z" fill="#9AE9E4"/>
    <path fill-rule="evenodd" clip-rule="evenodd" d="M55.2424 102.951L59.2033 91.3649L77.9901 90.8908L74.9345 109.231L55.2424 102.951Z" fill="url(#paint20_linear_7083_87484)"/>
    <path d="M79.9479 90.8291C73.602 80.6344 69.0365 70.2283 62.88 68.3444C56.7234 66.4605 61.0783 72.4544 63.5789 76.786C64.1742 77.8168 77.401 92.0832 78.8649 93.4118C79.9786 94.5719 80.7612 92.5525 79.9479 90.8291Z" fill="url(#paint21_radial_7083_87484)"/>
    <path d="M53.8089 104.203C39.3648 105.76 39.0812 105.362 28.8642 96.6667C26.2755 87.5529 26.2122 81.0918 28.8642 80.5539C35.4341 79.2214 43.5136 97.1204 53.8089 104.203Z" fill="url(#paint22_radial_7083_87484)"/>
    <path fill-rule="evenodd" clip-rule="evenodd" d="M50.7708 101.78C50.7394 101.827 50.7095 101.872 50.6811 101.914L50.6841 101.917L50.7495 101.976C50.8056 101.933 50.8616 101.89 50.9175 101.847C51.1724 101.65 51.4259 101.453 51.6894 101.309C51.8382 101.217 52.0166 101.17 52.0523 101.208C52.1015 101.254 52.1509 101.302 52.2014 101.351C52.4259 101.57 52.6709 101.809 53.0012 101.902C53.7061 102.104 54.4022 101.72 54.7978 101.155L54.7621 101.074C54.3531 101.016 53.9558 101.023 53.5652 101.031C53.436 101.033 53.3076 101.036 53.1797 101.036C53.0518 101.042 52.9298 101.024 52.79 100.937L52.5401 100.771C51.7827 100.258 51.163 101.19 50.7708 101.78ZM50.7287 102.42C51.7341 102.685 52.7632 102.914 53.7924 102.971C54.4395 102.951 55.0053 102.919 55.5959 102.885C55.9773 102.864 56.369 102.842 56.7996 102.822L56.8413 102.899C55.6872 104.379 53.608 103.768 52.1386 103.203C51.6419 102.992 51.157 102.765 50.696 102.503L50.7287 102.42ZM54.2742 104.182C52.9803 104.093 51.7013 103.742 50.4668 103.316L50.4698 103.319L50.4312 103.399C51.0052 103.742 51.6061 104.039 52.2277 104.304C54.063 105.048 56.6151 105.632 58.0994 103.902L58.0548 103.825C56.7192 104.03 55.5979 104.188 54.2742 104.182ZM53.4117 105.611C52.3319 105.2 51.3265 104.581 50.4044 103.87V103.873L50.342 103.935C50.7197 104.399 51.1481 104.825 51.6032 105.224C52.9655 106.352 55.0179 107.602 56.7312 106.447L56.7104 106.361C55.5146 106.138 54.5479 105.944 53.4117 105.611Z" fill="url(#paint23_linear_7083_87484)"/>
    <path fill-rule="evenodd" clip-rule="evenodd" d="M77.1604 93.1251C77.5352 92.2083 77.6482 91.2141 77.6095 90.2377H77.6125L77.5233 90.2258C77.2942 91.0117 77.0295 91.8094 76.6279 92.509C76.4113 92.8023 76.2203 93.0525 76.0313 93.3C75.7792 93.6301 75.5308 93.9555 75.2299 94.3723L75.2626 94.4557C76.1223 94.5629 76.9105 93.9199 77.1604 93.1251ZM78.4424 90.538C78.5168 91.7584 78.3948 93.0175 77.8832 94.1576C77.5292 95.1161 76.5625 95.8662 75.5244 95.8067L75.4917 95.7234C75.568 95.6419 75.644 95.5612 75.7195 95.4811L75.7195 95.481C76.7002 94.44 77.5943 93.491 77.9754 92.062C78.139 91.5679 78.2461 91.0559 78.3532 90.535L78.4424 90.5409V90.538ZM78.9122 90.7673C79.6232 92.3688 80.3935 95.5449 78.1656 96.2772L78.1062 96.2087C78.3055 95.7116 78.4423 95.3157 78.5464 94.896C78.8349 94.0595 79.0342 93.1517 78.9628 92.2289C78.9539 91.7526 78.8944 91.2734 78.823 90.7911L78.9093 90.7643L78.9122 90.7673Z" fill="url(#paint24_linear_7083_87484)"/>
    <path d="M33.5746 73.8428C36.2755 72.3307 37.8252 69.8987 38.3874 66.678C38.8514 69.1962 39.5772 71.015 41.1477 70.6102C39.3511 71.2918 38.6015 72.3605 38.9793 73.8399C37.7598 72.417 35.862 72.6522 33.5746 73.8399V73.8428Z" fill="url(#paint25_radial_7083_87484)"/>
    <path d="M52.2872 70.7857C54.2861 69.7528 55.6157 67.9281 56.4575 65.5229C56.6002 68.33 57.7603 68.8658 59.4022 68.33C57.7097 69.1277 56.624 70.1011 57.4093 71.637C56.3296 70.8542 54.6995 70.5119 52.2842 70.7887L52.2872 70.7857Z" fill="url(#paint26_radial_7083_87484)"/>
    <path d="M52.2872 75.8698C50.9398 76.864 49.4406 78.1053 47.7006 78.2154C46.0259 78.3196 44.0657 77.0307 42.7331 78.6292C41.4958 80.1116 42.9919 82.0672 44.378 82.7757C46.6119 83.9187 49.6042 83.4633 51.7102 82.2548C53.1677 81.4183 54.2028 80.0848 54.2207 78.3524C54.2296 77.2927 53.2718 75.1435 52.2872 75.8728V75.8698Z" fill="url(#paint27_radial_7083_87484)"/>
    <defs>
        <linearGradient id="paint0_linear_7083_87484" x1="283.614" y1="80.3703" x2="245.936" y2="80.3703" gradientUnits="userSpaceOnUse">
            <stop stop-color="#1FC1BF"/>
            <stop offset="1" stop-color="#FAFFFE"/>
        </linearGradient>
        <linearGradient id="paint1_linear_7083_87484" x1="303.133" y1="40.601" x2="212.74" y2="36.5864" gradientUnits="userSpaceOnUse">
            <stop stop-color="#1FC1BF"/>
            <stop offset="1" stop-color="#FAFFFE"/>
        </linearGradient>
        <linearGradient id="paint2_linear_7083_87484" x1="239.68" y1="3.42576" x2="477.698" y2="18.0146" gradientUnits="userSpaceOnUse">
            <stop stop-color="#FAFFFE"/>
            <stop offset="1" stop-color="#D7FFFC"/>
        </linearGradient>
        <linearGradient id="paint3_linear_7083_87484" x1="239.68" y1="23.0586" x2="477.698" y2="37.6474" gradientUnits="userSpaceOnUse">
            <stop stop-color="#FAFFFE"/>
            <stop offset="1" stop-color="#D7FFFC"/>
        </linearGradient>
        <linearGradient id="paint4_linear_7083_87484" x1="239.68" y1="42.6836" x2="477.698" y2="57.2724" gradientUnits="userSpaceOnUse">
            <stop stop-color="#FAFFFE"/>
            <stop offset="1" stop-color="#D7FFFC"/>
        </linearGradient>
        <linearGradient id="paint5_linear_7083_87484" x1="230.674" y1="115.466" x2="230.763" y2="105.819" gradientUnits="userSpaceOnUse">
            <stop stop-color="#00FFED" stop-opacity="0.62"/>
            <stop offset="1" stop-color="#00998E" stop-opacity="0.08"/>
        </linearGradient>
        <radialGradient id="paint6_radial_7083_87484" cx="0" cy="0" r="1" gradientUnits="userSpaceOnUse" gradientTransform="translate(126.5 76.0001) rotate(-18.4349) scale(44.2719 31.2397)">
            <stop offset="0.102155" stop-color="#FFF8D6"/>
            <stop offset="0.346497" stop-color="#FFE767"/>
            <stop offset="0.689392" stop-color="#FF9D42"/>
            <stop offset="1" stop-color="#FA4119"/>
        </radialGradient>
        <radialGradient id="paint7_radial_7083_87484" cx="0" cy="0" r="1" gradientUnits="userSpaceOnUse" gradientTransform="translate(121 66.0001) rotate(123.062) scale(63.2396 63.7487)">
            <stop offset="0.322397" stop-color="#FFF8D6"/>
            <stop offset="0.420226" stop-color="#FFE767"/>
            <stop offset="0.604721" stop-color="#FF9D42"/>
            <stop offset="0.743476" stop-color="#FA4119"/>
        </radialGradient>
        <linearGradient id="paint8_linear_7083_87484" x1="117.765" y1="57.7208" x2="128.117" y2="62.7525" gradientUnits="userSpaceOnUse">
            <stop stop-color="#ED7100"/>
            <stop offset="1" stop-color="#FA4119"/>
        </linearGradient>
        <linearGradient id="paint9_linear_7083_87484" x1="118.984" y1="62.0064" x2="126.216" y2="65.5985" gradientUnits="userSpaceOnUse">
            <stop stop-color="#ED7100"/>
            <stop offset="1" stop-color="#FA4119"/>
        </linearGradient>
        <linearGradient id="paint10_linear_7083_87484" x1="125.686" y1="87.817" x2="91.311" y2="66.8936" gradientUnits="userSpaceOnUse">
            <stop stop-color="#B8FFD1"/>
            <stop offset="0.23" stop-color="#04FFE3"/>
            <stop offset="1" stop-color="#009CBA"/>
        </linearGradient>
        <radialGradient id="paint11_radial_7083_87484" cx="0" cy="0" r="1" gradientUnits="userSpaceOnUse" gradientTransform="translate(98.0529 65.1382) rotate(29.2209) scale(50.928 35.3487)">
            <stop offset="0.0924175" stop-color="#FFE767" stop-opacity="0"/>
            <stop offset="0.102155" stop-color="#FFF8D6" stop-opacity="0"/>
            <stop offset="0.422689" stop-color="#FF9D42"/>
            <stop offset="0.808975" stop-color="#FA4119"/>
        </radialGradient>
        <linearGradient id="paint12_linear_7083_87484" x1="162.77" y1="92.8394" x2="142.848" y2="86.1304" gradientUnits="userSpaceOnUse">
            <stop stop-color="#B8FFD1"/>
            <stop offset="0.23" stop-color="#04FFE3"/>
            <stop offset="1" stop-color="#009CBA"/>
        </linearGradient>
        <radialGradient id="paint13_radial_7083_87484" cx="0" cy="0" r="1" gradientUnits="userSpaceOnUse" gradientTransform="translate(195.278 72.8369) rotate(-87.5352) scale(51.165 55.0524)">
            <stop offset="0.174205" stop-color="#FFF9FF"/>
            <stop offset="0.374089" stop-color="#FFE2FE"/>
            <stop offset="0.58051" stop-color="#FF89AC"/>
            <stop offset="0.833404" stop-color="#FC2C2C"/>
        </radialGradient>
        <linearGradient id="paint14_linear_7083_87484" x1="196.701" y1="56.6934" x2="156.404" y2="86.2475" gradientUnits="userSpaceOnUse">
            <stop offset="0.229584" stop-color="#FFF9FF" stop-opacity="0"/>
            <stop offset="0.527295" stop-color="#FFE2FE" stop-opacity="0"/>
            <stop offset="0.651976" stop-color="#FF89AC"/>
            <stop offset="1" stop-color="#FC2C2C"/>
        </linearGradient>
        <linearGradient id="paint15_linear_7083_87484" x1="190.261" y1="74.7506" x2="249.44" y2="61.2921" gradientUnits="userSpaceOnUse">
            <stop offset="0.218909" stop-color="#FFF9FF" stop-opacity="0"/>
            <stop offset="0.393545" stop-color="#FFE2FE" stop-opacity="0"/>
            <stop offset="0.575826" stop-color="#FF89AC"/>
            <stop offset="1" stop-color="#FC2C2C"/>
        </linearGradient>
        <linearGradient id="paint16_linear_7083_87484" x1="179.104" y1="63.1959" x2="184.494" y2="60.9181" gradientUnits="userSpaceOnUse">
            <stop offset="0.0775548" stop-color="#C93131"/>
            <stop offset="0.547788" stop-color="#E20ABD"/>
        </linearGradient>
        <linearGradient id="paint17_linear_7083_87484" x1="191.698" y1="64.4533" x2="198.31" y2="59.8097" gradientUnits="userSpaceOnUse">
            <stop offset="0.0775548" stop-color="#C93131"/>
            <stop offset="0.547788" stop-color="#E20ABD"/>
        </linearGradient>
        <linearGradient id="paint18_linear_7083_87484" x1="183.504" y1="71.4516" x2="187.977" y2="66.914" gradientUnits="userSpaceOnUse">
            <stop offset="0.0775548" stop-color="#C93131"/>
            <stop offset="0.547788" stop-color="#E20ABD"/>
        </linearGradient>
        <radialGradient id="paint19_radial_7083_87484" cx="0" cy="0" r="1" gradientUnits="userSpaceOnUse" gradientTransform="translate(44.3776 76.5044) rotate(-141.168) scale(58.8648 59.9135)">
            <stop offset="0.32941" stop-color="#F3F6FF"/>
            <stop offset="0.425" stop-color="#D1DEFF"/>
            <stop offset="0.54" stop-color="#C3BCFF"/>
            <stop offset="0.809272" stop-color="#BA61FF"/>
        </radialGradient>
        <linearGradient id="paint20_linear_7083_87484" x1="56.9246" y1="93.0918" x2="86.3784" y2="107.258" gradientUnits="userSpaceOnUse">
            <stop stop-color="#B8FFD1"/>
            <stop offset="0.23" stop-color="#04FFE3"/>
            <stop offset="1" stop-color="#009CBA"/>
        </linearGradient>
        <radialGradient id="paint21_radial_7083_87484" cx="0" cy="0" r="1" gradientUnits="userSpaceOnUse" gradientTransform="translate(56.4811 63.8536) rotate(50.615) scale(36.6419 35.3418)">
            <stop offset="0.300408" stop-color="#F3F7FF" stop-opacity="0.19"/>
            <stop offset="0.487657" stop-color="#D1DEFF" stop-opacity="0.5"/>
            <stop offset="0.680078" stop-color="#C3BCFF"/>
            <stop offset="0.905129" stop-color="#BA61FF"/>
        </radialGradient>
        <radialGradient id="paint22_radial_7083_87484" cx="0" cy="0" r="1" gradientUnits="userSpaceOnUse" gradientTransform="translate(25.7542 86.5081) rotate(46.2141) scale(34.0165 44.4088)">
            <stop offset="0.0811422" stop-color="#F3F7FF" stop-opacity="0"/>
            <stop offset="0.313201" stop-color="#D1DEFF" stop-opacity="0.38"/>
            <stop offset="0.618936" stop-color="#C3BCFF"/>
            <stop offset="0.808975" stop-color="#BA61FF"/>
        </radialGradient>
        <linearGradient id="paint23_linear_7083_87484" x1="50.342" y1="102.726" x2="57.1737" y2="106.907" gradientUnits="userSpaceOnUse">
            <stop stop-color="#A54AEA"/>
            <stop offset="1" stop-color="#7365EE"/>
        </linearGradient>
        <linearGradient id="paint24_linear_7083_87484" x1="78.4498" y1="90.2258" x2="76.1517" y2="96.9293" gradientUnits="userSpaceOnUse">
            <stop stop-color="#7365EE"/>
            <stop offset="0.878495" stop-color="#A54AEA"/>
        </linearGradient>
        <radialGradient id="paint25_radial_7083_87484" cx="0" cy="0" r="1" gradientUnits="userSpaceOnUse" gradientTransform="translate(40.5199 73.8428) rotate(-130.425) scale(10.7105 8.44871)">
            <stop offset="0.303759" stop-color="#5991E9"/>
            <stop offset="0.814207" stop-color="#685BDC"/>
        </radialGradient>
        <radialGradient id="paint26_radial_7083_87484" cx="0" cy="0" r="1" gradientUnits="userSpaceOnUse" gradientTransform="translate(54.2561 71.637) rotate(-40.0623) scale(6.72388 4.81551)">
            <stop offset="0.16" stop-color="#598CE9"/>
            <stop offset="0.822377" stop-color="#685BDC"/>
        </radialGradient>
        <radialGradient id="paint27_radial_7083_87484" cx="0" cy="0" r="1" gradientUnits="userSpaceOnUse" gradientTransform="translate(45.6579 78.191) rotate(-158.99) scale(14.4236 7.50577)">
            <stop offset="0.06" stop-color="#5991E9"/>
            <stop offset="0.72" stop-color="#685BDC"/>
        </radialGradient>
    </defs>
</svg>
