<svg width="298" height="150" viewBox="0 0 298 150" fill="none" xmlns="http://www.w3.org/2000/svg">
    <path fill-rule="evenodd" clip-rule="evenodd" d="M161.274 79.2847L181.437 94.0659C176.271 88.6576 171.737 81.9332 167.591 74.399C187.062 86.142 200.064 94.5513 198.383 95.4049C186.367 101.869 173.214 106.116 159.357 108.991" fill="url(#paint0_radial_7083_87398)"/>
    <path fill-rule="evenodd" clip-rule="evenodd" d="M120.585 42.0506C126.51 43.4102 133.314 49.7771 137.664 60.6969L139.145 49.5463C142.301 54.4334 144.006 58.0049 145.098 61.0221L155.99 51.1467L159.768 70.1035L170.198 76.3322L168.49 91.6458L175.589 97.7082L167.238 105.126L172.573 113.637L162.739 112.254L163.54 124.106L155.092 119.298L154.85 136.08L139.777 121.908L124 140.921L121.585 119.749L104.321 127.745L110.261 109.44L88.7039 106.57L103.255 88.7414L87.0413 78.4046L108.046 75.4824L104.496 63.5844L120.053 65.1384L120.585 42.0506Z" fill="url(#paint1_radial_7083_87398)"/>
    <path fill-rule="evenodd" clip-rule="evenodd" d="M145.35 80.0091C143.512 82.9923 142.692 86.2839 141.79 89.9436C142.311 90.0053 146.544 89.8112 147.041 89.8454L145.35 80.0091Z" fill="url(#paint2_radial_7083_87398)"/>
    <path fill-rule="evenodd" clip-rule="evenodd" d="M138.561 74.2145C139.312 74.5377 140.037 75.0053 140.731 75.6497C140.979 75.8787 140.994 76.2677 140.765 76.5157C140.533 76.7615 140.146 76.776 139.898 76.547C138.058 74.8354 135.941 74.6175 133.715 75.0256C133.383 75.0847 133.064 74.8645 133.005 74.5327C132.943 74.2016 133.163 73.8822 133.494 73.8202C134.74 73.5917 135.952 73.5408 137.114 73.7694C136.328 71.6724 135.241 70.1635 133.857 69.2116C133.578 69.0209 133.506 68.6371 133.697 68.3589C133.89 68.0799 134.272 68.0113 134.55 68.202C136.299 69.4057 137.661 71.3759 138.561 74.2145Z" fill="url(#paint3_linear_7083_87398)"/>
    <path fill-rule="evenodd" clip-rule="evenodd" d="M148.761 72.9115C149.798 72.5228 150.933 72.527 152.133 72.775C152.43 72.8356 152.621 73.1306 152.56 73.428C152.497 73.7262 152.205 73.9161 151.907 73.8556C150.173 73.4935 148.59 73.746 147.347 75.3459C147.162 75.5864 146.816 75.6295 146.575 75.4439C146.334 75.2557 146.291 74.9096 146.477 74.6691C146.871 74.1601 147.295 73.7571 147.743 73.4478C147.321 71.1167 146.457 69.5445 145.265 68.5033C145.037 68.3008 145.012 67.9527 145.214 67.722C145.414 67.4945 145.762 67.4703 145.993 67.6722C147.282 68.7997 148.262 70.4614 148.761 72.9115Z" fill="url(#paint4_radial_7083_87398)"/>
    <path fill-rule="evenodd" clip-rule="evenodd" d="M109.441 92.0706C104.842 76.6106 100.253 60.7031 95.925 33.8453L123.562 70.6159C135.527 92.5066 114.74 102.862 109.441 92.0706Z" fill="url(#paint5_radial_7083_87398)"/>
    <path fill-rule="evenodd" clip-rule="evenodd" d="M168.698 66.389L167.686 67.6428C167.834 67.7396 167.98 67.8403 168.122 67.9458C168.337 68.103 168.538 68.2721 168.723 68.4503C169.009 68.7272 169.247 68.9965 169.458 69.2763C169.578 69.4345 169.673 69.5607 169.758 69.7165C170.109 70.3599 170.321 70.7442 170.295 71.0974C170.383 71.3284 170.268 71.5882 170.034 71.6765C169.803 71.7638 169.542 71.646 169.455 71.415C169.397 71.3636 169.31 71.4188 169.206 71.372C169.006 71.2792 168.785 71.2766 168.482 71.1718C168.181 71.066 167.873 70.9755 167.524 70.8245C167.315 70.7348 167.109 70.6375 166.904 70.5147C166.569 70.3104 166.241 70.0719 165.924 69.8227L161.799 74.9274C161.386 78.5155 162.649 80.7387 165.268 81.8614L199.791 76.4527C193.882 76.8339 179.768 55.1011 183.386 48.2093L171.026 63.5089C170.956 63.6529 170.845 63.9718 170.845 63.9718L170.456 65.4354L170.059 67.6018C170.098 67.848 169.929 68.0806 169.685 68.1185C169.439 68.1574 169.209 67.9866 169.171 67.7433C169.171 67.7433 168.935 67.2093 168.698 66.389Z" fill="url(#paint6_linear_7083_87398)"/>
    <path d="M200.709 76.1885C203.288 74.6731 201.628 67.0619 197.002 59.1883C192.376 51.3148 186.535 46.1604 183.956 47.6758C181.377 49.1912 183.036 56.8025 187.662 64.676C192.288 72.5496 198.129 77.7039 200.709 76.1885Z" fill="url(#paint7_linear_7083_87398)"/>
    <path fill-rule="evenodd" clip-rule="evenodd" d="M96.5888 34.3672C96.7323 34.3034 96.8992 34.3688 96.963 34.5122C97.0239 34.6564 96.9585 34.8232 96.8151 34.887C96.8151 34.887 95.3589 35.6472 93.4107 35.8071C92.2952 35.8981 91.0363 35.7737 89.7983 35.2329C88.9149 34.845 88.0469 34.2384 87.2736 33.3257C86.9987 33.0022 86.7244 32.6449 86.5049 32.2246C86.3709 31.973 86.2563 31.7012 86.164 31.4084C86.1081 31.223 86.0586 31.0391 86.0207 30.84C85.9958 30.6928 85.9682 30.5587 85.957 30.405C85.9253 30.0601 85.9246 29.7534 85.9318 29.3803C85.8845 29.2295 85.968 29.0735 86.1187 29.0262C86.2665 28.9798 86.4262 29.0653 86.4727 29.2131C86.7528 29.6304 87.0328 29.9373 87.3013 30.2961C87.4084 30.4409 87.5089 30.572 87.6059 30.7133C87.7521 30.928 87.8976 31.1277 88.0287 31.3309C88.2386 31.6523 88.4269 31.9608 88.6339 32.2339C89.2005 32.984 89.8092 33.5362 90.4631 33.9145C93.2875 35.5497 96.5888 34.3672 96.5888 34.3672Z" fill="url(#paint8_linear_7083_87398)"/>
    <path fill-rule="evenodd" clip-rule="evenodd" d="M95.3554 34.3039C95.543 34.2934 95.7021 34.4374 95.7126 34.625C95.7223 34.8097 95.5812 34.9681 95.3936 34.9785C95.3936 34.9785 92.0735 35.4415 89.2085 31.9662C88.6514 31.2904 88.1193 30.458 87.6582 29.4327C87.495 29.0657 87.3268 28.6786 87.2198 28.2544C87.1529 27.989 87.1061 27.7185 87.0825 27.4299C87.0655 27.2408 87.0579 27.0647 87.0661 26.8663C87.0722 26.6714 87.0813 26.5004 87.1104 26.2997C87.1509 25.998 87.2053 25.7633 87.2703 25.4492C87.2396 25.2667 87.3605 25.0889 87.543 25.0582C87.7277 25.0239 87.9026 25.1455 87.9369 25.3302C88.1737 25.7215 88.3936 25.9975 88.6145 26.3622C88.7202 26.5381 88.8086 26.6938 88.8991 26.8704C88.9861 27.0449 89.0673 27.2085 89.1413 27.3801C89.2029 27.5272 89.2573 27.67 89.3088 27.8135C89.4323 28.1691 89.5398 28.5101 89.6602 28.8296C90.1479 30.155 90.7057 31.162 91.3301 31.922C93.1974 34.1914 95.3554 34.3039 95.3554 34.3039Z" fill="url(#paint9_linear_7083_87398)"/>
    <path fill-rule="evenodd" clip-rule="evenodd" d="M96.2111 33.8822C96.3988 33.884 96.5485 34.0396 96.546 34.2243C96.5442 34.412 96.3915 34.5609 96.2038 34.5591C96.2038 34.5591 93.8582 34.8101 91.5523 30.5217C91.1951 29.86 90.8435 29.0863 90.532 28.1676C90.4217 27.8394 90.3012 27.4955 90.2319 27.1232C90.1881 26.8888 90.1681 26.6514 90.1625 26.3981C90.1571 26.2307 90.1582 26.077 90.1795 25.9059C90.2334 25.4627 90.3316 25.1218 90.4367 24.6504C90.4032 24.4686 90.5269 24.2901 90.7094 24.2594C90.8941 24.2251 91.069 24.3467 91.1033 24.5314C91.2756 24.7764 91.4116 24.9385 91.5701 25.1778C91.67 25.3305 91.7504 25.4545 91.8351 25.608C91.9569 25.8351 92.0612 26.042 92.1548 26.267C92.2164 26.4141 92.2723 26.5626 92.313 26.7119C92.5354 27.4843 92.6747 28.1949 92.8608 28.8231C93.2409 30.1112 93.6174 31.081 94.0396 31.8061C95.1369 33.699 96.2111 33.8822 96.2111 33.8822Z" fill="url(#paint10_linear_7083_87398)"/>
    <path fill-rule="evenodd" clip-rule="evenodd" d="M99.9662 32.4222C99.9615 32.4034 99.9482 32.3747 99.9386 32.3731C99.8267 32.3553 99.9215 32.5856 99.9073 32.6873C99.8639 33.0506 99.8357 33.462 99.284 33.8294C98.8579 34.111 98.0121 34.4565 96.1088 34.8064C95.9333 34.8647 95.7408 34.7711 95.6808 34.594C95.6208 34.417 95.7137 34.2254 95.8916 34.1645C97.294 33.4465 97.9243 33.0012 98.2256 32.675C98.2502 32.6508 98.2859 32.6097 98.2638 32.5953C98.2168 32.5671 98.1805 32.6904 98.1805 32.6904C98.1805 32.6904 98.1589 32.6538 98.1537 32.6331C98.1372 32.5432 98.1264 32.4518 98.1175 32.3559C98.0993 32.1864 98.1326 32.0138 98.1783 31.8181C98.2567 31.472 98.492 31.0423 99.1755 30.4916C99.3489 30.3518 99.5551 30.1836 99.8318 30.0518C99.9718 29.9865 100.125 29.9257 100.307 29.8919C100.521 29.8539 100.7 29.8328 100.953 29.8491C101.218 29.8663 101.351 29.9069 101.647 29.9623C101.818 29.8852 102.019 29.9627 102.095 30.1316C102.169 30.3031 102.094 30.5024 101.923 30.5795C101.736 30.8728 101.688 31.0351 101.508 31.2706C101.344 31.4842 101.215 31.6447 101.044 31.7819C100.84 31.9436 100.632 32.0321 100.473 32.1303C100.292 32.2419 100.146 32.3068 100.047 32.3898C100.027 32.4069 99.9859 32.4152 99.9662 32.4222ZM99.9662 32.4222C99.9691 32.4335 99.9681 32.4417 99.9605 32.4357C99.9528 32.4296 99.958 32.4263 99.9662 32.4222Z" fill="url(#paint11_linear_7083_87398)"/>
    <path fill-rule="evenodd" clip-rule="evenodd" d="M165.467 69.439C165.575 69.5157 165.679 69.5973 165.783 69.6789C166.046 69.8851 166.289 70.108 166.492 70.3496C166.773 70.6822 166.982 70.9819 167.142 71.3127C167.417 71.8828 167.54 72.2245 167.571 72.5849C167.704 72.7924 167.64 73.0709 167.433 73.2034C167.223 73.3369 166.945 73.2762 166.812 73.0659C166.722 73.0233 166.651 73.044 166.532 72.9997C166.322 72.9232 166.132 72.9185 165.855 72.8165C165.584 72.7217 165.326 72.6443 165.018 72.503C164.841 72.4206 164.669 72.336 164.5 72.225C164.192 72.0262 163.901 71.7862 163.614 71.548C162.798 70.8702 162.059 70.1602 161.604 69.6386C161.248 69.2327 161.012 68.8955 160.946 68.6533C160.801 68.1354 160.843 67.7317 161.095 67.4486C161.29 67.2319 161.636 66.85 162.358 66.9524C163.017 67.0469 164.502 67.5834 167.283 68.9662C167.517 69.0492 167.64 69.3052 167.557 69.5401C167.473 69.7722 167.214 69.8954 166.982 69.8114C166.446 69.6894 165.939 69.5597 165.467 69.439Z" fill="url(#paint12_linear_7083_87398)"/>
    <path fill-rule="evenodd" clip-rule="evenodd" d="M165.923 69.8209C165.769 69.7008 165.619 69.5797 165.475 69.4592C164.45 68.6154 163.65 67.7119 163.41 67.001C163.184 66.3357 163.183 65.7416 163.562 65.2482C163.782 64.9618 164.096 64.6396 164.655 64.4602C165.559 64.1693 167.281 64.0693 170.268 64.4419L169.393 65.5265C167.567 65.704 166.411 65.953 165.726 66.2532C165.769 66.2816 165.812 66.3101 165.842 66.34C166.068 66.5505 166.363 66.7507 166.677 66.9756C166.991 67.2005 167.341 67.4117 167.685 67.641C167.833 67.7378 167.979 67.8385 168.121 67.9441C168.336 68.1013 168.537 68.2704 168.722 68.4486C169.008 68.7254 169.246 68.9947 169.457 69.2746C169.577 69.4327 169.673 69.559 169.757 69.7148C170.108 70.3582 170.32 70.7425 170.295 71.0957C170.382 71.3267 170.267 71.5864 170.033 71.6748C169.802 71.7621 169.541 71.6443 169.454 71.4133C169.396 71.3619 169.309 71.4171 169.206 71.3703C169.005 71.2774 168.785 71.2749 168.481 71.1701C168.18 71.0643 167.872 70.9738 167.523 70.8228C167.314 70.7331 167.109 70.6357 166.903 70.513C166.568 70.3087 166.24 70.0702 165.923 69.8209Z" fill="url(#paint13_linear_7083_87398)"/>
    <path fill-rule="evenodd" clip-rule="evenodd" d="M170.456 65.4327C170.208 66.6365 170.06 67.5991 170.06 67.5991C170.098 67.8453 169.929 68.078 169.685 68.1158C169.439 68.1547 169.209 67.984 169.171 67.7406C169.171 67.7406 168.935 67.2066 168.698 66.3863C168.666 66.268 168.631 66.1414 168.597 66.0109C168.499 65.6315 168.433 65.2301 168.387 64.796C168.323 64.2476 168.342 63.6931 168.409 63.1622C168.497 62.461 168.753 61.8331 169.095 61.3346C169.783 60.3338 170.911 59.7582 172.558 60.1856C172.833 60.2567 173.127 60.3619 173.446 60.5084L171.535 62.8749C171.457 62.8949 171.392 62.9351 171.339 63.0032C171.219 63.1501 171.116 63.3162 171.026 63.5062C170.956 63.6502 170.896 63.8032 170.845 63.9691C170.789 64.1427 170.738 64.318 170.687 64.4961C170.601 64.8055 170.522 65.1184 170.457 65.4261L170.456 65.4327Z" fill="url(#paint14_linear_7083_87398)"/>
    <path d="M200.867 69.0533C202.524 68.0801 201.458 63.192 198.487 58.1354C195.516 53.0788 191.765 49.7685 190.108 50.7417C188.452 51.715 189.518 56.6031 192.489 61.6597C195.46 66.7164 199.211 70.0266 200.867 69.0533Z" stroke="#FFF386" stroke-width="1.46369" stroke-miterlimit="24"/>
    <path d="M48.5949 62.1678C47.9345 60.1998 49.3709 57.9428 51.8032 57.1268C54.2356 56.3107 56.7428 57.2446 57.4032 59.2126" stroke="#FC2E2F" stroke-width="0.514053" stroke-miterlimit="1.5" stroke-linecap="round" stroke-linejoin="round"/>
    <path fill-rule="evenodd" clip-rule="evenodd" d="M10.9229 74.8225C18.8401 77.4923 43.038 85.6418 46.0718 89.0377C46.0718 89.0377 61.5968 103.549 60.3308 113.683C59.3708 121.371 3.00563 72.1526 10.9229 74.8225Z" fill="url(#paint15_linear_7083_87398)"/>
    <path fill-rule="evenodd" clip-rule="evenodd" d="M39.5159 65.3476L53.1369 70.9755L61.8057 64.4468L69.6854 74.8025L80.8075 73.5644L79.8171 85.4956L89.4987 88.7599L83.6446 101.467L86.6839 107.096L72.0492 115.483L70.1363 134.385L50.6579 120.576L39.5159 129.955L31.8218 116.084L18.0889 117.351L19.8154 97.8013L7.20718 87.4505L23.1929 84.9329L19.8154 73.0017L30.5098 74.8025L39.5159 65.3476Z" fill="url(#paint16_radial_7083_87398)"/>
    <path fill-rule="evenodd" clip-rule="evenodd" d="M47.3893 92.5597C47.3795 92.389 47.2708 92.2377 47.11 92.1738C46.9511 92.1102 46.7693 92.1455 46.6437 92.2634C45.8482 92.9998 44.3914 94.146 42.9005 94.1693C41.3268 94.1931 40.0667 93.1273 39.4717 92.5124C39.3908 92.4265 39.2663 92.3925 39.1524 92.4234C39.0364 92.456 38.9491 92.5482 38.9239 92.6641C38.5234 94.5448 39.6643 96.457 42.6849 96.7235C45.6351 96.9843 47.5085 94.9277 47.3893 92.5597Z" fill="url(#paint17_linear_7083_87398)"/>
    <mask id="mask0_7083_87398" style="mask-type:luminance" maskUnits="userSpaceOnUse" x="38" y="92" width="10" height="5">
        <path d="M47.3901 92.559C47.3803 92.3883 47.2717 92.237 47.1109 92.1731C46.952 92.1095 46.7701 92.1448 46.6446 92.2627C45.8491 92.9992 44.3922 94.1455 42.9014 94.169C41.3276 94.1929 40.0677 93.127 39.4727 92.5121C39.3918 92.4262 39.2673 92.3922 39.1535 92.4231C39.0375 92.4557 38.9501 92.5479 38.9249 92.6639C38.5244 94.5447 39.6651 96.457 42.6857 96.7233C45.6358 96.984 47.5092 94.9272 47.3901 92.559Z" fill="white"/>
    </mask>
    <g mask="url(#mask0_7083_87398)">
        <path d="M45.3289 91.8251C45.1901 93.3328 45.5462 94.6085 46.1488 95.9558" stroke="url(#paint18_linear_7083_87398)" stroke-width="0.612652" stroke-miterlimit="3" stroke-linejoin="round"/>
        <path d="M43.65 93.0335C43.842 94.3566 44.121 95.5777 44.6292 96.8103" stroke="url(#paint19_linear_7083_87398)" stroke-width="0.612652" stroke-miterlimit="3" stroke-linejoin="round"/>
        <path d="M42.0913 92.7149C41.7075 94.1551 41.5983 95.5994 41.955 97.0581" stroke="url(#paint20_linear_7083_87398)" stroke-width="0.612652" stroke-miterlimit="3" stroke-linejoin="round"/>
        <path d="M40.9545 92.1497C40.2409 93.3801 39.6901 94.9173 39.6331 96.3609" stroke="url(#paint21_linear_7083_87398)" stroke-width="0.612652" stroke-miterlimit="3" stroke-linejoin="round"/>
    </g>
    <path fill-rule="evenodd" clip-rule="evenodd" d="M52.0388 59.9206C52.0181 60.0934 52.1408 60.251 52.3142 60.2723C52.4869 60.2942 52.6447 60.1704 52.6659 59.9982C52.7769 59.3787 53.2143 58.6308 53.7478 57.8894C54.5415 56.7876 55.5743 55.7302 56.2358 55.2078C57.5665 54.1355 58.5675 52.7682 59.1072 51.2481C59.2198 50.9297 59.3131 50.6043 59.3736 50.2721C59.434 49.9399 59.4668 49.6021 59.4692 49.262C59.4726 48.7615 59.4289 48.2591 59.3155 47.758C59.207 47.2805 59.0517 46.8147 58.8399 46.3482C58.7434 46.0514 58.4248 45.8893 58.1286 45.9853C57.8318 46.0817 57.6697 46.4003 57.7662 46.697C57.8528 47.1189 57.8768 47.5311 57.8904 47.9421C57.9049 48.3556 57.8739 48.7585 57.8262 49.1588C57.7945 49.4259 57.7457 49.6886 57.694 49.9505C57.6415 50.214 57.5845 50.4758 57.5102 50.7344C57.1346 52.0304 56.412 53.2407 55.3757 54.2269C54.7198 54.8645 53.7111 56.1152 52.9814 57.3967C52.4676 58.2991 52.087 59.207 52.0388 59.9206Z" fill="#FC2E2F"/>
    <path fill-rule="evenodd" clip-rule="evenodd" d="M52.0374 59.9357C52.0237 60.1094 52.1542 60.2608 52.3278 60.2745C52.5015 60.2882 52.6529 60.1578 52.6666 59.9842C52.837 58.7533 53.2752 57.4816 53.8465 56.2779C54.4246 55.0614 55.15 53.9334 55.9102 53.023C56.4086 52.4055 56.8474 51.7274 57.1546 50.9938C57.2796 50.6951 57.3828 50.3862 57.4549 50.0713C57.5628 49.5947 57.6088 49.1081 57.6075 48.6165C57.596 48.3403 57.5796 48.0658 57.5283 47.7914C57.476 47.5157 57.4128 47.2476 57.3146 46.986C57.2436 46.6828 56.9399 46.4941 56.6366 46.565C56.3328 46.6353 56.144 46.9401 56.2149 47.2434C56.2369 47.4554 56.2243 47.6651 56.2135 47.8797C56.2015 48.0943 56.1673 48.3021 56.1282 48.5117C56.0634 48.972 55.9118 49.408 55.7605 49.8459C55.6592 50.1385 55.5574 50.4305 55.4324 50.7145C55.2193 51.197 54.9713 51.6649 54.6732 52.0975C53.956 53.1704 53.2902 54.4711 52.8145 55.857C52.3535 57.2027 52.0601 58.6092 52.0374 59.9357Z" fill="#FC2E2F"/>
    <path fill-rule="evenodd" clip-rule="evenodd" d="M52.0377 59.9364C52.024 60.11 52.1545 60.2615 52.3281 60.2752C52.5024 60.2884 52.6539 60.1579 52.6669 59.9848C52.856 58.6228 53.238 56.6018 53.5081 54.4475C53.6653 53.1921 53.7884 51.9003 53.8152 50.671C53.8222 50.3927 53.8241 50.1175 53.8113 49.8476C53.7963 49.5656 53.7693 49.2899 53.7298 49.021C53.6665 48.5859 53.584 48.1746 53.4753 47.7849C53.3522 47.3423 53.208 46.9427 53.041 46.5728C52.9506 46.2744 52.6352 46.1056 52.3367 46.1959C52.0383 46.2863 51.8694 46.6017 51.9598 46.9001C52.0248 47.2853 52.037 47.6973 52.0593 48.1447C52.079 48.5487 52.0754 48.9701 52.0894 49.4125C52.1055 49.9081 52.1364 50.4238 52.1534 50.9526C52.1774 51.72 52.2035 52.51 52.2035 53.3017C52.2051 55.8392 52.0635 58.3454 52.0377 59.9364Z" fill="#FC2E2F"/>
    <path fill-rule="evenodd" clip-rule="evenodd" d="M52.0371 59.9761C52.0469 60.1501 52.1955 60.2831 52.37 60.2739C52.5441 60.264 52.6776 60.115 52.6678 59.941C52.6831 59.2767 52.5537 58.6286 52.369 58.0107C52.067 57.0004 51.5951 56.1013 51.3462 55.421C51.0656 54.6781 50.8827 53.9224 50.7568 53.1585C50.7008 52.8181 50.6704 52.4753 50.6324 52.1323C50.6076 51.9046 50.5762 51.6779 50.5508 51.4496C50.5189 51.161 50.4799 50.8768 50.4579 50.5846C50.4352 50.2876 50.4043 50.0002 50.4017 49.6979C50.4494 49.3895 50.2381 49.1012 49.9304 49.0531C49.622 49.0054 49.333 49.2172 49.286 49.525C49.124 50.0507 49.0017 50.5639 48.9414 51.0978C48.9012 51.4583 48.8936 51.8185 48.9197 52.1773C48.9495 52.5807 49.0307 52.9783 49.129 53.3709C49.3525 54.2647 49.7 55.1269 50.1407 55.964C50.4808 56.5911 51.0664 57.4002 51.51 58.3397C51.7524 58.8528 51.9594 59.396 52.0371 59.9761Z" fill="#FC2E2F"/>
    <path fill-rule="evenodd" clip-rule="evenodd" d="M10.992 75.6416C11.0369 75.81 11.2104 75.9106 11.3782 75.866C11.5465 75.8207 11.6467 75.6479 11.6018 75.4795C11.4597 74.7476 11.3491 72.8775 11.3854 70.7538C11.3973 70.0593 11.4315 69.3434 11.4756 68.6285C11.5192 67.9163 11.6108 67.2141 11.6692 66.5403C11.7111 66.0638 11.7313 65.6061 11.7725 65.1732C11.8184 64.6866 11.8426 64.2418 11.9384 63.8402C12.0507 63.5491 11.9061 63.2221 11.6153 63.1097C11.325 62.9967 10.9977 63.1416 10.8853 63.4327C10.6523 63.8548 10.4479 64.3341 10.2781 64.8788C10.1801 65.1928 10.1017 65.5241 10.0401 65.8711C9.99748 66.1143 9.96698 66.3646 9.94687 66.6202C9.90373 67.1851 9.9052 67.7706 9.92418 68.3608C10.0214 71.4556 10.6554 74.6424 10.992 75.6416Z" fill="#FD393E"/>
    <path fill-rule="evenodd" clip-rule="evenodd" d="M11.018 75.7056C11.0992 75.8599 11.2896 75.9188 11.444 75.8384C11.5988 75.7573 11.6586 75.5665 11.5775 75.4122C11.1725 74.4914 9.9655 73.4044 8.58873 72.2057C7.57461 71.3218 6.48828 70.3646 5.59133 69.3688C5.40053 69.1574 5.22262 68.942 5.0442 68.734C4.86377 68.523 4.68385 68.3208 4.52034 68.112C4.17724 67.6745 3.86487 67.2599 3.70379 66.7717C3.64494 66.4657 3.34831 66.2655 3.04283 66.3247C2.73665 66.3834 2.53628 66.68 2.59513 66.9861C2.62125 67.4827 2.74422 67.9636 2.93355 68.4512C3.0497 68.7499 3.20452 69.0369 3.38205 69.323C3.51983 69.5443 3.67615 69.7603 3.85016 69.9676C4.01527 70.1639 4.19819 70.3496 4.38945 70.5326C5.41187 71.5066 6.6756 72.3722 7.8511 73.1654C9.25296 74.1116 10.5305 74.9114 11.018 75.7056Z" fill="#FD393E"/>
    <path fill-rule="evenodd" clip-rule="evenodd" d="M10.9881 75.6282C11.0255 75.7979 11.1936 75.9059 11.3636 75.8693C11.5339 75.8319 11.642 75.6638 11.605 75.4934C11.4013 74.1586 10.7106 72.2486 10.0558 70.2438C9.68603 69.1119 9.34512 67.9539 9.10601 66.8599C9.03952 66.557 8.98602 66.2599 8.92817 65.9717C8.86882 65.673 8.80644 65.386 8.76031 65.1057C8.66238 64.4977 8.58367 63.9451 8.69045 63.4321C8.78901 63.1367 8.62977 62.8164 8.33402 62.7174C8.03898 62.6188 7.7189 62.7776 7.6192 63.0734C7.39582 63.5328 7.26819 64.0468 7.20238 64.6175C7.16388 64.9465 7.16341 65.2894 7.18351 65.6463C7.19875 65.917 7.23279 66.1949 7.2856 66.4754C7.33514 66.7385 7.40571 67.0035 7.48467 67.2706C7.81612 68.4039 8.30867 69.5805 8.8296 70.7222C9.68725 72.6005 10.626 74.3562 10.9881 75.6282Z" fill="#FD393E"/>
    <path fill-rule="evenodd" clip-rule="evenodd" d="M10.9832 75.5868C10.9974 75.76 11.15 75.8894 11.3239 75.8753C11.4976 75.86 11.6268 75.7082 11.6124 75.5339C11.6361 74.9431 11.1882 74.551 10.4851 74.2419C9.78021 73.9328 8.77564 73.7332 7.84135 73.4831C7.49908 73.3911 7.17931 73.2741 6.88209 73.1694C6.76317 73.1279 6.6461 73.1028 6.53911 73.0607C6.44009 73.0213 6.33766 73.0155 6.25472 72.9636C6.14794 72.8967 6.01437 72.8848 5.94781 72.7727C5.85835 72.4744 5.54298 72.3044 5.24472 72.3937C4.94604 72.4837 4.77636 72.7984 4.86581 73.0967C4.89811 73.6008 5.17359 73.9686 5.54143 74.3269C5.66843 74.4508 5.82613 74.544 5.9942 74.6375C6.13116 74.7137 6.28217 74.7741 6.44134 74.8241C6.64848 74.889 6.87051 74.932 7.10079 74.9626C7.86174 75.0662 8.70362 75.0556 9.44602 75.0993C9.89635 75.1258 10.2956 75.1441 10.5964 75.2624C10.7829 75.3361 10.9455 75.4063 10.9832 75.5868Z" fill="#FD393E"/>
    <path fill-rule="evenodd" clip-rule="evenodd" d="M52.0457 59.5577C51.9595 55.4302 71.7597 80.5505 74.7054 88.511C77.1685 95.1673 75.673 105.362 68.5276 107.471C62.1703 109.347 52.7664 64.8462 52.0457 59.5577Z" fill="url(#paint22_linear_7083_87398)"/>
    <path d="M48.609 62.1664C49.2695 64.1344 51.7767 65.0683 54.209 64.2522C56.6414 63.4362 58.0778 61.1792 57.4174 59.2112" stroke="#6AFFDF" stroke-width="0.514053" stroke-miterlimit="1.5" stroke-linecap="round" stroke-linejoin="round"/>
    <path fill-rule="evenodd" clip-rule="evenodd" d="M47.6272 84.0416C47.542 85.707 47.0387 87.236 45.6066 88.4623C47.6998 89.3443 48.3212 90.704 48.8326 92.0982C48.2286 89.6018 48.8569 88.0925 50.8521 87.6777C49.2894 87.4721 48.2809 86.1228 47.6272 84.0416Z" fill="url(#paint23_radial_7083_87398)"/>
    <path fill-rule="evenodd" clip-rule="evenodd" d="M40.5722 84.2196C38.8598 87.3995 38.3788 87.6726 37.1071 87.3291C38.5271 88.5233 38.863 90.0416 38.5492 91.7554C39.3605 90.0332 40.4208 88.8077 42.0132 88.6456C40.7039 87.1709 40.3201 85.6952 40.5722 84.2196Z" fill="url(#paint24_radial_7083_87398)"/>
    <path d="M245.22 58.4866L228.667 67.4454L221.389 64.2391L215.824 73.8548L206.549 77.1371L207.69 87.2696L200.841 91.2655L206.549 100.399L202.553 106.678L212.114 113.814L210.259 123.233L221.96 125.944L226.669 131.652L232.147 128.941L240.511 135.934L249.358 125.944L266.625 125.373L264.627 112.529L272.903 110.531L273.046 106.678L277.898 101.683L273.331 95.4304L275.187 85.1289L268.765 82.6816L270.763 75.4246L259.49 73.4267L258.919 64.2391L249.501 66.4339L245.22 58.4866Z" fill="url(#paint25_radial_7083_87398)"/>
    <path d="M222.574 81.1295C222.155 81.1481 221.947 80.1098 221.519 79.7163C221.002 79.2411 218.279 80.1295 218.334 79.8963C218.407 79.5905 220.805 78.9712 221.424 78.5599C222.017 78.1658 224.243 75.6423 224.606 75.6237C225.006 75.6031 224.35 77.7373 224.825 77.8528C226.26 78.2015 228.038 77.9123 227.992 78.4692C227.945 79.0502 224.969 79.3051 224.35 79.7163C223.756 80.1105 222.975 81.1117 222.574 81.1295Z" fill="url(#paint26_linear_7083_87398)"/>
    <path d="M241.323 81.5744C240.883 81.4707 240.966 80.3484 240.635 79.8209C240.234 79.1836 237.148 79.2941 237.273 79.072C237.436 78.7807 240.107 78.8498 240.868 78.6107C241.598 78.3815 244.638 76.4535 245.021 76.5407C245.443 76.6371 244.146 78.6266 244.607 78.8838C245.998 79.6607 247.929 79.8857 247.721 80.4416C247.504 81.0216 244.338 80.4106 243.576 80.6498C242.846 80.879 241.746 81.6737 241.323 81.5744Z" fill="url(#paint27_linear_7083_87398)"/>
    <path d="M227.489 92.9165C227.831 95.0236 229.603 97.7786 230.81 97.7932C231.06 97.7886 231.614 96.6748 231.614 95.5681" stroke="#FF6666" stroke-width="0.783991" stroke-linecap="round"/>
    <path d="M251.888 108.055L260.051 114.304L271.115 121.692L271.651 121.332C268.656 109.956 266.342 98.0947 261.028 88.3208" fill="url(#paint28_radial_7083_87398)"/>
    <path fill-rule="evenodd" clip-rule="evenodd" d="M275.244 126.917C276.37 127.529 277.688 127.792 278.939 127.535L278.979 127.403C278.344 127.053 277.719 126.704 277.093 126.355L276.525 126.039C277.225 126.206 277.966 126.188 278.743 125.889L278.799 125.742C278.494 125.527 278.206 125.361 277.941 125.207L277.941 125.207C277.867 125.165 277.795 125.123 277.725 125.082C277.58 124.997 277.422 124.901 277.256 124.801L277.256 124.801C276.765 124.504 276.21 124.168 275.746 123.972C274.118 123.35 272.743 122.301 271.62 121.185C272.302 121.514 273.062 121.71 273.807 121.775C273.917 121.786 274.028 121.8 274.138 121.813C274.578 121.868 275.009 121.922 275.42 121.802C275.942 121.68 276.454 121.436 276.906 121.025L276.894 120.903C276.318 120.698 275.802 120.661 275.286 120.623L275.286 120.623C274.969 120.6 274.672 120.665 274.377 120.729C274.191 120.769 274.006 120.81 273.818 120.828C273.331 120.874 272.825 120.864 272.318 120.855C271.812 120.845 271.331 120.732 270.804 120.573L270.777 120.676C270.782 120.68 270.787 120.684 270.792 120.687L270.784 120.693C270.803 121.498 270.945 122.275 271.124 123.076C271.425 124.271 272.01 125.435 272.752 126.434C273.532 127.456 274.892 127.896 276.157 127.903L276.198 127.797C275.899 127.476 275.614 127.216 275.298 126.963L275.244 126.917Z" fill="#FA4119"/>
    <path d="M250.763 86.975C250.313 85.1936 237.89 85.2354 232.266 86.0729L228.619 85.5521C227.726 83.8253 214.551 81.5826 213.631 83.4804C212.797 85.1993 215.017 92.3865 219.887 93.1306C226.822 94.1903 228.262 86.975 228.262 86.975L231.995 87.7823C231.995 87.7823 233.865 94.7173 239.311 95.3002C245.678 95.9818 251.563 90.1402 250.763 86.975Z" fill="url(#paint29_linear_7083_87398)"/>
    <path d="M245.18 124.08C263.611 117.252 269.113 109.623 282.009 108.439L297.145 126.098C264.866 132.638 266.578 135.989 256.884 144.565L245.18 124.08Z" fill="url(#paint30_linear_7083_87398)" stroke="white" stroke-width="0.421222"/>
    <path opacity="0.6" d="M277.001 127.438L283.901 125.074L280.179 120.023L273.86 122.188L277.001 127.438Z" fill="white"/>
    <rect width="9.9147" height="1.2091" transform="matrix(0.57324 0.819387 -0.915477 0.402371 281.613 115.684)" fill="white"/>
    <rect width="5.07293" height="3.49531" transform="matrix(0.57324 0.819387 -0.915477 0.402371 277.829 111.143)" fill="white"/>
    <rect width="16.8684" height="1.42485" transform="matrix(0.57324 0.819387 -0.915477 0.402371 280.942 111.143)" fill="white"/>
    <path d="M214.65 96.0837C207.667 113.312 219.986 124.823 252.557 129.272C253.789 129.441 255.386 130.088 256.284 129.376C258.799 127.382 245.109 118.736 232.566 107.531" fill="url(#paint31_radial_7083_87398)"/>
    <path fill-rule="evenodd" clip-rule="evenodd" d="M256.68 110.798C257.216 110.538 257.861 110.763 258.12 111.299L267.906 131.515C267.906 131.515 267.809 132.009 264.565 130.15C261.322 128.291 260 120.134 256.179 112.238C255.919 111.702 256.144 111.057 256.68 110.798Z" fill="black"/>
    <path d="M263.344 123.452C262.986 121.471 260.349 120.623 258.588 121.467C257.169 122.009 255.896 122.978 255.048 124.241C254.85 125.602 256.441 124.75 257.117 124.427C258.849 123.598 260.859 123.514 262.768 123.554C262.963 123.54 263.379 123.644 263.344 123.452Z" fill="#FA4119"/>
    <path d="M264.707 120.886C264.224 120.346 263.072 119.497 262.598 120.355C262.3 120.896 262.861 121.418 263.002 121.937C263.278 122.671 263.537 123.708 264.278 123.764C264.624 123.79 264.963 123.394 264.997 123.008C265.08 122.038 265.183 121.418 264.707 120.886Z" fill="#FA4119"/>
    <path d="M263.115 128.645C261.684 130.54 256.687 131.271 256.213 130.413C255.915 129.872 255.013 126.525 255.481 125.601C255.758 124.867 260.774 122.727 262.786 124.178C263.343 124.58 263.018 125.835 263.051 126.221C263.135 127.191 263.602 128 263.115 128.645Z" fill="#FA4119"/>
    <defs>
        <radialGradient id="paint0_radial_7083_87398" cx="0" cy="0" r="1" gradientUnits="userSpaceOnUse" gradientTransform="translate(140.091 92.8881) rotate(-29.925) scale(52.0076 65.7344)">
            <stop offset="0.258983" stop-color="#F3F6FF"/>
            <stop offset="0.32171" stop-color="#D1DEFF"/>
            <stop offset="0.398279" stop-color="#C3BCFF"/>
            <stop offset="0.686918" stop-color="#BA61FF"/>
        </radialGradient>
        <radialGradient id="paint1_radial_7083_87398" cx="0" cy="0" r="1" gradientUnits="userSpaceOnUse" gradientTransform="translate(135.497 89.6253) rotate(-26.9023) scale(77.3249 72.2481)">
            <stop offset="0.235" stop-color="#F3F6FF"/>
            <stop offset="0.356618" stop-color="#D1DEFF"/>
            <stop offset="0.425" stop-color="#C3BCFF"/>
            <stop offset="0.603681" stop-color="#B25FF2"/>
        </radialGradient>
        <radialGradient id="paint2_radial_7083_87398" cx="0" cy="0" r="1" gradientUnits="userSpaceOnUse" gradientTransform="translate(140.256 91.5565) rotate(-36.1167) scale(15.4961 10.9939)">
            <stop stop-color="#A663FF"/>
            <stop offset="0.608148" stop-color="#8346E1"/>
            <stop offset="1" stop-color="#B5A8FC"/>
        </radialGradient>
        <linearGradient id="paint3_linear_7083_87398" x1="141.236" y1="77.2479" x2="135.746" y2="68.8826" gradientUnits="userSpaceOnUse">
            <stop stop-color="#8B76FF"/>
            <stop offset="0.46" stop-color="#A269FA"/>
            <stop offset="1" stop-color="#9D57FA"/>
        </linearGradient>
        <radialGradient id="paint4_radial_7083_87398" cx="0" cy="0" r="1" gradientUnits="userSpaceOnUse" gradientTransform="translate(147.192 74.4887) rotate(14.9041) scale(7.69569 7.84174)">
            <stop stop-color="#806AF8"/>
            <stop offset="0.46" stop-color="#A269FA"/>
            <stop offset="1" stop-color="#9D57FA"/>
        </radialGradient>
        <radialGradient id="paint5_radial_7083_87398" cx="0" cy="0" r="1" gradientUnits="userSpaceOnUse" gradientTransform="translate(137.022 89.1728) rotate(-129.178) scale(80.7135 288.297)">
            <stop offset="0.184055" stop-color="#F3F6FF" stop-opacity="0"/>
            <stop offset="0.32003" stop-color="#D1DEFF"/>
            <stop offset="0.435" stop-color="#C3BCFF"/>
            <stop offset="0.686918" stop-color="#BA61FF"/>
        </radialGradient>
        <linearGradient id="paint6_linear_7083_87398" x1="163.214" y1="74.7087" x2="197.903" y2="58.2584" gradientUnits="userSpaceOnUse">
            <stop stop-color="#B8FFD1"/>
            <stop offset="0.23" stop-color="#04FFE3"/>
            <stop offset="1" stop-color="#009CBA"/>
        </linearGradient>
        <linearGradient id="paint7_linear_7083_87398" x1="193.379" y1="59.4978" x2="196.495" y2="75.1707" gradientUnits="userSpaceOnUse">
            <stop stop-color="#007575"/>
            <stop offset="1" stop-color="#02D0D0"/>
        </linearGradient>
        <linearGradient id="paint8_linear_7083_87398" x1="87.5451" y1="24.2831" x2="93.8019" y2="36.4518" gradientUnits="userSpaceOnUse">
            <stop stop-color="#7365EE"/>
            <stop offset="0.878495" stop-color="#BA61FF"/>
        </linearGradient>
        <linearGradient id="paint9_linear_7083_87398" x1="87.1263" y1="19.1997" x2="98.0101" y2="32.7326" gradientUnits="userSpaceOnUse">
            <stop stop-color="#7365EE"/>
            <stop offset="0.878495" stop-color="#BA61FF"/>
        </linearGradient>
        <linearGradient id="paint10_linear_7083_87398" x1="89.5415" y1="18.6954" x2="101.151" y2="28.9564" gradientUnits="userSpaceOnUse">
            <stop stop-color="#7365EE"/>
            <stop offset="0.878495" stop-color="#BA61FF"/>
        </linearGradient>
        <linearGradient id="paint11_linear_7083_87398" x1="99.2163" y1="28.2051" x2="99.9002" y2="34.3853" gradientUnits="userSpaceOnUse">
            <stop stop-color="#7365EE"/>
            <stop offset="0.878495" stop-color="#BA61FF"/>
        </linearGradient>
        <linearGradient id="paint12_linear_7083_87398" x1="161.205" y1="69.895" x2="166.045" y2="71.0427" gradientUnits="userSpaceOnUse">
            <stop stop-color="#7365EE"/>
            <stop offset="0.878495" stop-color="#A54AEA"/>
        </linearGradient>
        <linearGradient id="paint13_linear_7083_87398" x1="163.49" y1="67.8832" x2="169.14" y2="69.5167" gradientUnits="userSpaceOnUse">
            <stop stop-color="#7365EE"/>
            <stop offset="0.878495" stop-color="#A54AEA"/>
        </linearGradient>
        <linearGradient id="paint14_linear_7083_87398" x1="167.453" y1="63.8187" x2="172.292" y2="65.4407" gradientUnits="userSpaceOnUse">
            <stop stop-color="#7365EE"/>
            <stop offset="0.878495" stop-color="#A54AEA"/>
        </linearGradient>
        <linearGradient id="paint15_linear_7083_87398" x1="68.256" y1="100.423" x2="30.2511" y2="54.8501" gradientUnits="userSpaceOnUse">
            <stop offset="0.161581" stop-color="#FFF9FF" stop-opacity="0"/>
            <stop offset="0.439792" stop-color="#FFE2FE" stop-opacity="0"/>
            <stop offset="0.470225" stop-color="#FFD1EF" stop-opacity="0.188494"/>
            <stop offset="0.606263" stop-color="#FF89AC"/>
            <stop offset="1" stop-color="#FC2C2C"/>
        </linearGradient>
        <radialGradient id="paint16_radial_7083_87398" cx="0" cy="0" r="1" gradientUnits="userSpaceOnUse" gradientTransform="translate(48.3529 94.2335) rotate(-10.7462) scale(57.9666 52.0488)">
            <stop offset="0.29885" stop-color="#FFF9FF"/>
            <stop offset="0.352347" stop-color="#FFE2FE"/>
            <stop offset="0.607135" stop-color="#FF89AC"/>
            <stop offset="0.833404" stop-color="#FC2C2C"/>
        </radialGradient>
        <linearGradient id="paint17_linear_7083_87398" x1="43.4762" y1="92.1083" x2="42.2135" y2="97.0363" gradientUnits="userSpaceOnUse">
            <stop stop-color="#FFB2E5"/>
            <stop offset="1" stop-color="#FFEBE7"/>
        </linearGradient>
        <linearGradient id="paint18_linear_7083_87398" x1="46.0038" y1="91.9156" x2="45.4742" y2="95.8654" gradientUnits="userSpaceOnUse">
            <stop stop-color="#FF6C84"/>
            <stop offset="1" stop-color="#FF9089"/>
        </linearGradient>
        <linearGradient id="paint19_linear_7083_87398" x1="44.3798" y1="93.1314" x2="43.8997" y2="96.7125" gradientUnits="userSpaceOnUse">
            <stop stop-color="#FF6C84"/>
            <stop offset="1" stop-color="#FF9089"/>
        </linearGradient>
        <linearGradient id="paint20_linear_7083_87398" x1="42.2652" y1="92.7382" x2="41.6908" y2="97.0226" gradientUnits="userSpaceOnUse">
            <stop stop-color="#FF6C84"/>
            <stop offset="1" stop-color="#FF9089"/>
        </linearGradient>
        <linearGradient id="paint21_linear_7083_87398" x1="40.5682" y1="92.0979" x2="39.9902" y2="96.4088" gradientUnits="userSpaceOnUse">
            <stop stop-color="#FF6C84"/>
            <stop offset="1" stop-color="#FF9089"/>
        </linearGradient>
        <linearGradient id="paint22_linear_7083_87398" x1="72.6576" y1="126.317" x2="28.0331" y2="95.0794" gradientUnits="userSpaceOnUse">
            <stop offset="0.161581" stop-color="#FFF9FF" stop-opacity="0"/>
            <stop offset="0.439792" stop-color="#FFE2FE" stop-opacity="0"/>
            <stop offset="0.470225" stop-color="#FFD1EF" stop-opacity="0.188494"/>
            <stop offset="0.606263" stop-color="#FF89AC"/>
            <stop offset="1" stop-color="#FC2C2C"/>
        </linearGradient>
        <radialGradient id="paint23_radial_7083_87398" cx="0" cy="0" r="1" gradientUnits="userSpaceOnUse" gradientTransform="translate(47.3417 82.1372) rotate(81.4909) scale(18.2614 13.268)">
            <stop offset="0.0775548" stop-color="#C93131"/>
            <stop offset="0.547788" stop-color="#E20ABD"/>
        </radialGradient>
        <radialGradient id="paint24_radial_7083_87398" cx="0" cy="0" r="1" gradientUnits="userSpaceOnUse" gradientTransform="translate(41.0498 82.438) rotate(105.026) scale(17.4912 12.7075)">
            <stop offset="0.0775548" stop-color="#C93131"/>
            <stop offset="0.547788" stop-color="#E20ABD"/>
        </radialGradient>
        <radialGradient id="paint25_radial_7083_87398" cx="0" cy="0" r="1" gradientUnits="userSpaceOnUse" gradientTransform="translate(237.293 92.0275) rotate(54.7158) scale(61.0577 62.3545)">
            <stop offset="0.322397" stop-color="#FFF8D6"/>
            <stop offset="0.420226" stop-color="#FFE767"/>
            <stop offset="0.604721" stop-color="#FF9D42"/>
            <stop offset="0.743476" stop-color="#FA4119"/>
        </radialGradient>
        <linearGradient id="paint26_linear_7083_87398" x1="228.454" y1="78.3766" x2="219.047" y2="79.8445" gradientUnits="userSpaceOnUse">
            <stop stop-color="#ED7100"/>
            <stop offset="1" stop-color="#FA4119"/>
        </linearGradient>
        <linearGradient id="paint27_linear_7083_87398" x1="238.099" y1="79.0604" x2="244.534" y2="81.5829" gradientUnits="userSpaceOnUse">
            <stop stop-color="#ED7100"/>
            <stop offset="1" stop-color="#FA4119"/>
        </linearGradient>
        <radialGradient id="paint28_radial_7083_87398" cx="0" cy="0" r="1" gradientUnits="userSpaceOnUse" gradientTransform="translate(249.496 95.0903) rotate(41.2928) scale(37.5916 34.441)">
            <stop offset="0.254547" stop-color="#FFF8D6" stop-opacity="0"/>
            <stop offset="0.511717" stop-color="#FFE767" stop-opacity="0.6"/>
            <stop offset="0.618936" stop-color="#FF9D42"/>
            <stop offset="0.808975" stop-color="#FA4119"/>
        </radialGradient>
        <linearGradient id="paint29_linear_7083_87398" x1="257.416" y1="76.8943" x2="203.776" y2="82.7571" gradientUnits="userSpaceOnUse">
            <stop stop-color="#F5CCCC"/>
            <stop offset="1" stop-color="#8F7777"/>
        </linearGradient>
        <linearGradient id="paint30_linear_7083_87398" x1="245.279" y1="133.62" x2="320.812" y2="104.878" gradientUnits="userSpaceOnUse">
            <stop stop-color="#B8FFD1"/>
            <stop offset="0.23" stop-color="#04FFE3"/>
            <stop offset="1" stop-color="#009CBA"/>
        </linearGradient>
        <radialGradient id="paint31_radial_7083_87398" cx="0" cy="0" r="1" gradientUnits="userSpaceOnUse" gradientTransform="translate(221.438 96.0837) rotate(47.5662) scale(50.3941 36.4347)">
            <stop offset="0.102155" stop-color="#FFF8D6" stop-opacity="0"/>
            <stop offset="0.348351" stop-color="#FFE767"/>
            <stop offset="0.607241" stop-color="#FF9D42"/>
            <stop offset="0.808975" stop-color="#FA4119"/>
        </radialGradient>
    </defs>
</svg>
