<svg width="300" height="150" viewBox="0 0 300 150" fill="none" xmlns="http://www.w3.org/2000/svg">
    <path fill-rule="evenodd" clip-rule="evenodd" d="M97.171 90.3951C85.4724 94.8686 73.9685 100.422 62.3082 107.577C60.2396 108.845 72.871 128.061 77.4007 122.571C90.3962 106.826 96.1927 96.7212 97.171 90.3951Z" fill="url(#paint0_radial_7083_87679)"/>
    <path fill-rule="evenodd" clip-rule="evenodd" d="M56.0617 71.5844L49.4996 82.8976L32.5717 81.2832L35.9031 90.494L19.9171 95.3592L30.7895 106.245L21.3864 118.447L39.09 122.615L42.8065 149.686L63.0842 128.874L71.1631 144.584L79.868 125.72L93.1145 125.994L86.6756 112.121L95.211 102.277L82.6983 95.5907L80.3278 84.8101L69.5021 84.2056L56.0617 71.5844Z" fill="url(#paint1_radial_7083_87679)"/>
    <path fill-rule="evenodd" clip-rule="evenodd" d="M43.476 98.7531C43.476 98.7531 57.7788 86.0795 80.476 77.6111C80.0696 77.1747 69.9469 97.2425 62.0189 105.793C52.5393 116.012 38.9473 102.766 43.476 98.7531Z" fill="url(#paint2_radial_7083_87679)"/>
    <path d="M72.3623 103.464C73.7259 103.171 74.4735 101.267 74.0321 99.2113C73.5907 97.1554 72.1275 95.726 70.7639 96.0188C69.4003 96.3115 68.6527 98.2155 69.0941 100.271C69.5355 102.327 70.9987 103.757 72.3623 103.464Z" fill="url(#paint3_linear_7083_87679)"/>
    <path fill-rule="evenodd" clip-rule="evenodd" d="M212.738 80.2194C228.855 78.4284 245.281 80.3923 251.737 82.3129C259.121 85.5276 243.742 90.2307 234.761 94.6458C228.454 95.0227 217.149 85.8876 212.738 80.2194Z" fill="url(#paint4_linear_7083_87679)"/>
    <path fill-rule="evenodd" clip-rule="evenodd" d="M233.623 75.4131L250.38 60.0913L251.84 71.0365L270.324 66.1797V79.5473L286.863 82.954L278.837 94.8715L290.997 102.897L276.89 110.421L286.863 135.246L263.613 126.732L261.568 135.246L251.84 131.109L243.18 149.302C237.438 139.591 236.727 134.064 231.253 123.482C227.818 116.836 221.792 108.991 218.625 98.103L222.994 91.448L225.086 78.3325L233.623 75.4131Z" fill="url(#paint5_radial_7083_87679)"/>
    <path fill-rule="evenodd" clip-rule="evenodd" d="M226.195 96.7229C226.338 96.6005 226.528 96.6555 226.619 96.8455C227.239 98.1298 229.568 100.16 230.757 99.6473C230.918 99.5778 231.091 99.6958 231.143 99.9109C231.438 101.129 228.691 101.985 227.381 100.827C225.849 99.2265 225.693 97.154 226.195 96.7229Z" fill="url(#paint6_radial_7083_87679)"/>
    <path fill-rule="evenodd" clip-rule="evenodd" d="M203.629 107.896C220.572 102.336 237.02 98.3839 252.445 97.7597C259.364 95.8727 267.891 111.862 261.162 113.699C240.253 119.11 223.119 122.939 203.629 107.896Z" fill="url(#paint7_linear_7083_87679)"/>
    <path fill-rule="evenodd" clip-rule="evenodd" d="M237.039 88.6985C236.52 90.5655 236.44 92.2544 237.497 93.48L233.86 96.8122L233.401 92.0307C234.864 91.4739 235.925 90.0289 237.039 88.6985Z" fill="url(#paint8_radial_7083_87679)"/>
    <path fill-rule="evenodd" clip-rule="evenodd" d="M228.642 86.2844C228.263 87.1939 227.058 89.3158 228.676 91.0856L224.757 94.1158L224.722 89.3146C226.285 89.0983 227.528 87.8906 228.642 86.2844Z" fill="url(#paint9_radial_7083_87679)"/>
    <path fill-rule="evenodd" clip-rule="evenodd" d="M128.383 55.7014C128.383 55.7014 146.077 49.1063 135.43 25.0071C129.001 10.4537 129.822 0.000244141 132.238 0.000244141L160.248 2.05369C161.032 5.54968 164.179 17.3663 169.256 27.8267C183.237 56.616 162.209 58.521 162.209 58.521L128.383 55.7014Z" fill="url(#paint10_linear_7083_87679)"/>
    <path fill-rule="evenodd" clip-rule="evenodd" d="M132.238 0C133.825 0 136.1 4.50029 137.467 15.2954C154.775 13.4905 172.739 14.7018 185.871 23.7541C182.026 13.6492 176.418 4.01366 170.116 0H132.238Z" fill="url(#paint11_linear_7083_87679)"/>
    <path d="M143.536 21.4229H138.833L140.401 25.6029H145.103L143.536 21.4229Z" fill="#008F8F"/>
    <path d="M147.193 23.5129H160.779" stroke="#008F8F" stroke-width="1.04502" stroke-linecap="round"/>
    <g opacity="0.64">
        <path d="M146.671 29.2605H141.968L143.536 33.4406H148.238L146.671 29.2605Z" fill="#008F8F"/>
        <path d="M150.329 31.3506H164.959" stroke="#008F8F" stroke-width="1.04502" stroke-linecap="round"/>
    </g>
    <g opacity="0.25">
        <path d="M146.671 50.1609H141.968L143.536 45.9808H148.238L146.671 50.1609Z" fill="#008F8F"/>
        <path d="M150.329 48.0708H168.094" stroke="#008F8F" stroke-width="1.04502" stroke-linecap="round"/>
    </g>
    <g opacity="0.48">
        <path d="M148.761 37.6206H144.058V41.8007H148.761V37.6206Z" fill="#008F8F"/>
        <path d="M152.418 39.7107H168.093" stroke="#008F8F" stroke-width="1.04502" stroke-linecap="round"/>
    </g>
    <path d="M92.0856 24.0354L87.627 26.9673V32.5671L92.0856 29.6351V24.0354Z" fill="#A3F5F1"/>
    <path fill-rule="evenodd" clip-rule="evenodd" d="M230.804 18.8103C230.769 20.5286 230.092 21.7088 228.705 22.2922C229.929 22.8089 231.103 23.5325 232.136 24.8249C232.365 23.5779 232.979 22.4805 233.98 21.5326C232.853 20.8784 231.786 20.0012 230.804 18.8103Z" fill="#D7FFFC"/>
    <path fill-rule="evenodd" clip-rule="evenodd" d="M71.7296 27.0332C70.7747 25.6043 70.6528 24.2496 71.4563 22.9764C70.1564 23.2545 68.7796 23.3337 67.193 22.8658C67.7195 24.0191 67.8444 25.2707 67.5675 26.6205C68.8656 26.5115 70.2427 26.6194 71.7296 27.0332Z" fill="#D7FFFC"/>
    <path fill-rule="evenodd" clip-rule="evenodd" d="M201.647 34.9879L202.17 36.6413L189.514 40.6462L189.547 37.8487L201.647 34.9879Z" fill="#68DFDC"/>
    <path d="M211.808 44.8571C212.004 43.5608 211.112 42.3512 209.816 42.1553C208.519 41.9594 207.31 42.8515 207.114 44.1478C206.918 45.444 207.81 46.6537 209.106 46.8495C210.403 47.0454 211.612 46.1534 211.808 44.8571Z" fill="#68DFDC"/>
    <path d="M215.403 30.873C216.714 30.873 217.777 29.8103 217.777 28.4993C217.777 27.1882 216.714 26.1255 215.403 26.1255C214.092 26.1255 213.029 27.1882 213.029 28.4993C213.029 29.8103 214.092 30.873 215.403 30.873Z" fill="#A3F5F1"/>
    <path d="M105.676 40.2781C106.987 40.2781 108.05 39.2153 108.05 37.9043C108.05 36.5933 106.987 35.5305 105.676 35.5305C104.365 35.5305 103.302 36.5933 103.302 37.9043C103.302 39.2153 104.365 40.2781 105.676 40.2781Z" fill="#D7FFFC"/>
    <path d="M210.313 19.3306L207.819 17.6338L204.669 22.2635L207.163 23.9603L210.313 19.3306Z" fill="#D7FFFC"/>
    <path fill-rule="evenodd" clip-rule="evenodd" d="M121.34 27.3989L120.285 28.7753L109.75 20.699L112.062 19.1229L121.34 27.3989Z" fill="#68DFDC"/>
    <path d="M141.363 75.9723L150.057 62.0703L153.277 76.9179L166.549 71.2518L175.572 82.1438L199.916 91.3032L177.797 100.56L193.508 119.807L170.938 113.741L171.746 133.941L161.475 125.547L159.552 148.161L143.668 125.637L130.632 143.812L128.769 116.109L117.993 121.741L119.319 103.99L106.361 101.55L120.657 92.848L121.854 80.5233L126.086 88.4488L137.845 67.8775L141.363 75.9723Z" fill="url(#paint12_radial_7083_87679)"/>
    <path d="M180.556 91.2841L179.834 87.5618C179.834 87.5618 172.796 55.1041 170.361 54.0439C167.398 54.5858 165.311 65.3486 164.63 70.3347L162.545 88.9832C161.114 100.786 169.499 100.297 180.556 91.2841Z" fill="url(#paint13_radial_7083_87679)"/>
    <path d="M130.495 79.559C130.495 79.559 131.351 67.1708 132.04 56.0973C132.153 55.2518 131.758 55.0678 130.995 54.8634C129.428 54.4434 128.786 55.7973 128.383 56.4309C125.013 61.822 118.388 69.7719 116.199 73.3338C115.521 74.4018 115.436 75.7706 116.003 76.9124L122.348 92.9721C134.64 102.053 136.685 95.6425 136.635 92.1732L130.495 79.559Z" fill="url(#paint14_radial_7083_87679)"/>
    <path d="M140.423 83.1069C139.419 85.3046 138.106 86.3278 136.604 86.6133C138.433 87.5474 139.193 88.9233 139.297 90.5281C139.795 89.0035 140.549 87.6285 142.609 86.8054C141.242 86.4798 140.593 85.1336 140.423 83.1069Z" fill="url(#paint15_linear_7083_87679)"/>
    <path d="M152.804 82.8192C151.074 85.8145 149.477 87.0361 148.068 86.8485C150.413 87.5287 151.858 88.7115 151.846 90.7936C152.518 88.9564 153.875 87.5026 156.77 87.0167C153.796 86.02 152.79 84.5167 152.804 82.8192Z" fill="url(#paint16_linear_7083_87679)"/>
    <path d="M143.812 98.702C144.761 99.1154 145.991 98.3923 146.56 97.0871C147.128 95.7818 146.819 94.3886 145.87 93.9752C144.92 93.5619 143.69 94.2849 143.122 95.5902C142.553 96.8955 142.862 98.2887 143.812 98.702Z" fill="url(#paint17_linear_7083_87679)"/>
    <path fill-rule="evenodd" clip-rule="evenodd" d="M128.699 52.2673C128.736 52.3123 128.783 52.3266 128.828 52.3205C128.905 53.1811 129.408 53.987 130.492 54.4854C130.53 54.5164 130.571 54.5254 130.608 54.5194C130.713 54.9053 130.935 55.2723 131.301 55.5956C131.471 55.8601 132.925 55.8188 132.878 55.5365C134.829 55.6092 136.967 54.9041 136.98 52.8211C136.982 52.5289 136.689 52.7106 136.525 52.8126C136.51 52.8219 136.496 52.8305 136.484 52.838C135.929 53.0977 135.425 53.4542 134.925 53.8072C133.926 54.5139 132.946 55.2066 131.622 55.0806C131.444 54.9003 131.354 54.6463 131.424 54.3263C131.429 53.8027 132.386 53.196 133.333 52.5957C134.588 51.8007 135.824 51.0168 134.809 50.4517C132.862 49.9773 130.389 52.1855 130.541 54.1324C129.389 53.2516 129.461 51.8493 130.686 50.9699C131.695 50.4908 132.668 49.9932 133.59 49.2981C133.702 49.214 133.91 48.8203 133.495 48.6842C131.084 47.8964 128.918 49.9645 128.82 51.9406C127.882 50.9046 127.805 49.62 129.471 49.0276C129.631 48.9977 129.79 48.9693 129.947 48.9412L129.947 48.9412C130.914 48.7681 131.835 48.6034 132.798 48.1305L132.864 48.0982C133.203 47.9342 133.397 47.8403 132.816 47.5082C129.449 45.5916 125.081 49.8438 128.699 52.2673Z" fill="url(#paint18_linear_7083_87679)"/>
    <path d="M169.047 55.005C169.928 54.4511 170.501 53.7211 170.891 52.8258C171.167 52.0941 171.32 51.3513 171.278 50.5664C171.305 49.4281 171.501 48.4907 171.912 47.3494L172.051 47.3246C173.528 49.1178 172.852 51.5499 171.704 53.3075C171.104 54.1964 170.094 54.9495 169.057 55.1795C169.108 55.1592 169.047 55.005 169.047 55.005Z" fill="url(#paint19_linear_7083_87679)"/>
    <path d="M168.59 55.7243C167.978 54.5985 168.364 53.2011 168.692 52.01C168.718 51.916 168.744 51.8233 168.769 51.7321C168.85 51.4619 168.904 51.1869 168.956 50.919C169.027 50.5524 169.095 50.1989 169.231 49.8885C169.297 49.7021 169.369 49.5274 169.442 49.3484C169.586 48.9967 169.736 48.6285 169.872 48.1229L170.026 48.0623C170.501 48.4394 170.743 49.0562 170.775 49.6667C170.878 50.6058 170.381 51.4542 169.93 52.1952C169.875 52.3002 169.813 52.4179 169.746 52.5429C169.506 52.9961 169.214 53.546 169.043 53.9389C168.794 54.5119 168.652 55.1316 168.791 55.7889L168.737 55.8239L168.698 56.0032C167.815 56.1725 166.797 55.7717 166.102 55.2138C166.024 55.1436 165.975 55.1477 165.909 55.1534C165.897 55.1544 165.885 55.1554 165.872 55.1561C165.651 55.1548 165.461 55.026 165.268 54.894C165.201 54.8486 165.133 54.8028 165.064 54.7617C165.019 54.7242 164.973 54.6906 164.929 54.6575C164.759 54.5308 164.6 54.4129 164.488 54.1276C165.02 53.5921 165.893 53.2484 166.603 53.7705C166.845 53.963 167.027 54.2179 167.213 54.4784C167.391 54.7282 167.573 54.9832 167.816 55.193C168.02 55.3911 168.3 55.5599 168.59 55.7243Z" fill="url(#paint20_linear_7083_87679)"/>
    <path d="M173.327 52.9066C172.089 53.9867 170.597 54.8704 169.1 55.6669C169.1 55.6669 169.161 55.8212 169.197 55.8367C171.374 55.3365 173.537 54.5746 175.259 53.0665C176.409 51.991 176.193 50.2358 175.668 48.8994L175.509 48.8728C175.214 49.2558 175.063 49.7011 174.927 50.1105C174.567 51.2316 174.177 52.1268 173.327 52.9066Z" fill="url(#paint21_linear_7083_87679)"/>
    <defs>
        <radialGradient id="paint0_radial_7083_87679" cx="0" cy="0" r="1" gradientUnits="userSpaceOnUse" gradientTransform="translate(65.7603 118.429) rotate(-43.626) scale(51.1049 47.0657)">
            <stop offset="0.102211" stop-color="#FFF8D6" stop-opacity="0"/>
            <stop offset="0.420226" stop-color="#FFE767"/>
            <stop offset="0.604721" stop-color="#FF9D42"/>
            <stop offset="0.743476" stop-color="#FA4119"/>
        </radialGradient>
        <radialGradient id="paint1_radial_7083_87679" cx="0" cy="0" r="1" gradientUnits="userSpaceOnUse" gradientTransform="translate(59.0613 103.135) rotate(72.3552) scale(64.2051 65.4591)">
            <stop offset="0.322397" stop-color="#FFF8D6"/>
            <stop offset="0.420226" stop-color="#FFE767"/>
            <stop offset="0.604721" stop-color="#FF9D42"/>
            <stop offset="0.743476" stop-color="#FA4119"/>
        </radialGradient>
        <radialGradient id="paint2_radial_7083_87679" cx="0" cy="0" r="1" gradientUnits="userSpaceOnUse" gradientTransform="translate(47.8329 105.474) rotate(-42.4471) scale(51.9914 48.7083)">
            <stop offset="0.102211" stop-color="#FFF8D6" stop-opacity="0"/>
            <stop offset="0.420226" stop-color="#FFE767"/>
            <stop offset="0.604721" stop-color="#FF9D42"/>
            <stop offset="0.743476" stop-color="#FA4119"/>
        </radialGradient>
        <linearGradient id="paint3_linear_7083_87679" x1="69.4856" y1="100.187" x2="73.0265" y2="99.8791" gradientUnits="userSpaceOnUse">
            <stop stop-color="#ED7100"/>
            <stop offset="1" stop-color="#FA4119"/>
        </linearGradient>
        <linearGradient id="paint4_linear_7083_87679" x1="233.849" y1="87.8087" x2="199.215" y2="78.7865" gradientUnits="userSpaceOnUse">
            <stop offset="0.102072" stop-color="#FFF9FF" stop-opacity="0"/>
            <stop offset="0.31835" stop-color="#FF89AC"/>
            <stop offset="0.914249" stop-color="#FC2C2C"/>
        </linearGradient>
        <radialGradient id="paint5_radial_7083_87679" cx="0" cy="0" r="1" gradientUnits="userSpaceOnUse" gradientTransform="translate(251.671 100.462) rotate(-132.209) scale(49.1869 49.5733)">
            <stop offset="0.174205" stop-color="#FFF9FF"/>
            <stop offset="0.374089" stop-color="#FFE2FE"/>
            <stop offset="0.58051" stop-color="#FF89AC"/>
            <stop offset="0.833404" stop-color="#FC2C2C"/>
        </radialGradient>
        <radialGradient id="paint6_radial_7083_87679" cx="0" cy="0" r="1" gradientUnits="userSpaceOnUse" gradientTransform="translate(228.552 95.5426) rotate(90) scale(10.5745 13.0741)">
            <stop offset="0.0775548" stop-color="#C93131"/>
            <stop offset="0.547788" stop-color="#E20ABD"/>
        </radialGradient>
        <linearGradient id="paint7_linear_7083_87679" x1="258.714" y1="103.76" x2="193.275" y2="108.82" gradientUnits="userSpaceOnUse">
            <stop offset="0.102072" stop-color="#FFF9FF" stop-opacity="0"/>
            <stop offset="0.31835" stop-color="#FF89AC"/>
            <stop offset="0.914249" stop-color="#FC2C2C"/>
        </linearGradient>
        <radialGradient id="paint8_radial_7083_87679" cx="0" cy="0" r="1" gradientUnits="userSpaceOnUse" gradientTransform="translate(237.79 86.7806) rotate(111.395) scale(19.5344 10.8643)">
            <stop offset="0.0775548" stop-color="#C93131"/>
            <stop offset="0.547788" stop-color="#E20ABD"/>
        </radialGradient>
        <radialGradient id="paint9_radial_7083_87679" cx="0" cy="0" r="1" gradientUnits="userSpaceOnUse" gradientTransform="translate(229.56 84.4332) rotate(116.382) scale(19.5965 10.8299)">
            <stop offset="0.0775548" stop-color="#C93131"/>
            <stop offset="0.547788" stop-color="#E20ABD"/>
        </radialGradient>
        <linearGradient id="paint10_linear_7083_87679" x1="151.373" y1="-1.07819e-05" x2="151.373" y2="67.4036" gradientUnits="userSpaceOnUse">
            <stop stop-color="#A3F5F1"/>
            <stop offset="0.625" stop-color="#F0FFFE"/>
            <stop offset="1" stop-color="#1FC1BF"/>
        </linearGradient>
        <linearGradient id="paint11_linear_7083_87679" x1="159.054" y1="0" x2="165.596" y2="29.3523" gradientUnits="userSpaceOnUse">
            <stop stop-color="#00FFED"/>
            <stop offset="1" stop-color="#00998E"/>
        </linearGradient>
        <radialGradient id="paint12_radial_7083_87679" cx="0" cy="0" r="1" gradientUnits="userSpaceOnUse" gradientTransform="translate(147.535 94.1336) rotate(77.3753) scale(62.7974 76.6234)">
            <stop offset="0.234549" stop-color="#F3F6FF"/>
            <stop offset="0.31508" stop-color="#D1DEFF"/>
            <stop offset="0.559281" stop-color="#C3BCFF"/>
            <stop offset="0.924146" stop-color="#BA61FF"/>
        </radialGradient>
        <radialGradient id="paint13_radial_7083_87679" cx="0" cy="0" r="1" gradientUnits="userSpaceOnUse" gradientTransform="translate(164.936 96.7939) rotate(-72.867) scale(52.6379 56.2711)">
            <stop offset="0.0699425" stop-color="#F3F6FF" stop-opacity="0"/>
            <stop offset="0.183052" stop-color="#D1DEFF" stop-opacity="0.62"/>
            <stop offset="0.342392" stop-color="#C3BCFF"/>
            <stop offset="0.793142" stop-color="#BA61FF"/>
        </radialGradient>
        <radialGradient id="paint14_radial_7083_87679" cx="0" cy="0" r="1" gradientUnits="userSpaceOnUse" gradientTransform="translate(137.189 100.467) rotate(-111.055) scale(56.7201 40.8401)">
            <stop offset="0.117475" stop-color="#F3F6FF" stop-opacity="0"/>
            <stop offset="0.327608" stop-color="#D1DEFF"/>
            <stop offset="0.55" stop-color="#C3BCFF"/>
            <stop offset="0.775045" stop-color="#BA61FF"/>
        </radialGradient>
        <linearGradient id="paint15_linear_7083_87679" x1="143.444" y1="88.4223" x2="139.242" y2="83.256" gradientUnits="userSpaceOnUse">
            <stop stop-color="#598CE9"/>
            <stop offset="0.878495" stop-color="#685BDC"/>
        </linearGradient>
        <linearGradient id="paint16_linear_7083_87679" x1="156.547" y1="87.5302" x2="148.478" y2="87.5427" gradientUnits="userSpaceOnUse">
            <stop stop-color="#685BDC"/>
            <stop offset="1" stop-color="#598CE9"/>
        </linearGradient>
        <linearGradient id="paint17_linear_7083_87679" x1="142.167" y1="96.0899" x2="147.566" y2="97.1619" gradientUnits="userSpaceOnUse">
            <stop offset="0.165646" stop-color="#598CE9"/>
            <stop offset="0.9" stop-color="#685BDC"/>
        </linearGradient>
        <linearGradient id="paint18_linear_7083_87679" x1="132.159" y1="47.0259" x2="132.159" y2="55.7727" gradientUnits="userSpaceOnUse">
            <stop stop-color="#A54AEA"/>
            <stop offset="1" stop-color="#7365EE"/>
        </linearGradient>
        <linearGradient id="paint19_linear_7083_87679" x1="172.611" y1="47.5685" x2="168.72" y2="56.5042" gradientUnits="userSpaceOnUse">
            <stop stop-color="#A54AEA"/>
            <stop offset="1" stop-color="#7365EE"/>
        </linearGradient>
        <linearGradient id="paint20_linear_7083_87679" x1="172.611" y1="47.5685" x2="168.72" y2="56.5042" gradientUnits="userSpaceOnUse">
            <stop stop-color="#A54AEA"/>
            <stop offset="1" stop-color="#7365EE"/>
        </linearGradient>
        <linearGradient id="paint21_linear_7083_87679" x1="172.611" y1="47.5685" x2="168.72" y2="56.5042" gradientUnits="userSpaceOnUse">
            <stop stop-color="#A54AEA"/>
            <stop offset="1" stop-color="#7365EE"/>
        </linearGradient>
    </defs>
</svg>
