<svg width="96" height="96" viewBox="0 0 96 96" fill="none" xmlns="http://www.w3.org/2000/svg"><g clip-path="url(#a)"><path d="M0 8a8 8 0 0 1 8-8h80a8 8 0 0 1 8 8v80a8 8 0 0 1-8 8H8a8 8 0 0 1-8-8z" fill="#E8D6FF"/><path d="m49.595 35.024 4.333 7.505c.368.638.15 1.453-.488 1.822l-1.732.999 1.334 2.31-2.31 1.333-1.334-2.31-1.731 1.001a1.333 1.333 0 0 1-1.822-.488l-2.45-4.243a6.67 6.67 0 0 0-4.296 8.748 6.63 6.63 0 0 1 3.568-1.035 6.66 6.66 0 0 1 5.44 2.812l10.25-5.918 1.334 2.31-10.505 6.064a6.7 6.7 0 0 1 .014 2.733H60v2.666l-22.666.002A6.64 6.64 0 0 1 36 57.333a6.64 6.64 0 0 1 1.08-3.64A9.337 9.337 0 0 1 42.035 40.6l-.523-.909a2.667 2.667 0 0 1 .976-3.642l3.464-2a2.667 2.667 0 0 1 3.643.976" fill="#000"/><g clip-path="url(#b)"><path d="M0 12C0 5.373 5.373 0 12 0h72c6.627 0 12 5.373 12 12v72c0 6.627-5.373 12-12 12H12C5.373 96 0 90.627 0 84z" fill="#E8D6FF"/><path opacity=".3" d="M108.624 60 84 67.837v19.99l24.624-7.836zm-94.4 5.873-17.39 5.535v14.117l17.39-5.534z" fill="#fff"/><path d="M85.467 45.6 69.6 50.65v9.552l15.867-5.05z" fill="#B25FF2"/><path d="M64.687 9.6 30.713 20.414v67.599L64.687 77.2z" fill="url(#c)"/><path d="m61.932 14.246-7.892 2.511v57.974l7.892-2.511z" fill="#89A997" fill-opacity=".14"/><path d="M71.73 17.6 58.4 21.843V48.38l13.33-4.242z" stroke="#8D33DB" stroke-miterlimit="1.5" stroke-linecap="round" stroke-linejoin="round"/><path d="m61.75 38.025-18.543 5.902v2.67l18.543-5.902z" fill="#F73333" fill-opacity=".29"/><path d="m61.608 51.856-18.543 5.902v2.67l18.543-5.902z" fill="#DB4848" fill-opacity=".29"/><path d="m43.555 47.563-15.867 5.05v9.552l15.867-5.05z" fill="#8D33DB"/><path opacity=".72" d="m76.4 22.8-7.6 2.25v9.552l7.6-2.25z" fill="#B25FF2"/><path d="M37.424 24.8 12.8 32.637v19.99l24.624-7.837z" fill="#FE657A" fill-opacity=".41"/><path d="m67.58 69.018-28.203 8.977v2.67l28.202-8.977z" fill="#8D33DB"/><path opacity=".36" d="M24.53-16 11.2-11.757V14.78l13.33-4.242z" stroke="#fff" stroke-width=".862" stroke-miterlimit="1.5" stroke-linecap="round" stroke-linejoin="round"/><path fill="#E8D6FF" style="mix-blend-mode:hue" d="M-12-12h120v120H-12z"/></g></g><defs><clipPath id="a"><path d="M0 8a8 8 0 0 1 8-8h80a8 8 0 0 1 8 8v80a8 8 0 0 1-8 8H8a8 8 0 0 1-8-8z" fill="#fff"/></clipPath><clipPath id="b"><path d="M0 12C0 5.373 5.373 0 12 0h72c6.627 0 12 5.373 12 12v72c0 6.627-5.373 12-12 12H12C5.373 96 0 90.627 0 84z" fill="#fff"/></clipPath><linearGradient id="c" x1="51.455" y1="17.009" x2="50.88" y2="78.243" gradientUnits="userSpaceOnUse"><stop stop-color="#fff"/><stop offset="1" stop-color="#D6A1FC"/></linearGradient></defs></svg>