<svg width="96" height="96" viewBox="0 0 96 96" fill="none" xmlns="http://www.w3.org/2000/svg"><g clip-path="url(#a)"><path d="M0 8a8 8 0 0 1 8-8h80a8 8 0 0 1 8 8v80a8 8 0 0 1-8 8H8a8 8 0 0 1-8-8z" fill="#FFE0CC"/><path d="M39.106 36.362a4.667 4.667 0 0 1 5.963 5.965l14.46 14.46-2.829 2.828-14.46-14.459a4.667 4.667 0 0 1-5.964-5.965l2.982 2.982a2 2 0 0 0 2.829-2.828zm13.823 2.511 4.243-2.357 1.885 1.886-2.357 4.243-2.357.471-2.828 2.828-1.886-1.885 2.829-2.829zm-9.428 10.371 2.828 2.829-6.6 6.6a2 2 0 0 1-2.957-2.686l.13-.143z" fill="#000"/><g clip-path="url(#b)"><path d="M0 12C0 5.373 5.373 0 12 0h72c6.627 0 12 5.373 12 12v72c0 6.627-5.373 12-12 12H12C5.373 96 0 90.627 0 84z" fill="#FFE0CC"/><path opacity=".5" d="m25.5 150.147-12.7 5.238 14.476-74.23 7.891-3.487z" fill="#fff"/><path opacity=".3" d="m71.663 118.689 8.873 3.659L70.42 70.484l-5.513-2.436z" fill="#fff"/><path d="M65.17 45.274c2.382 7.65 7.567 13.582 14.3 14.792" stroke="#997500" stroke-width=".746" stroke-miterlimit="3" stroke-linecap="round" stroke-linejoin="round"/><path d="M34.634 36.119c-8.394 5.617-15.007-.604-16.162-3.533" stroke="#A85F00" stroke-width=".175" stroke-miterlimit="3" stroke-linecap="round" stroke-linejoin="round"/><path d="M42.76 20.85c13.723-.558 24.718-4.198 24.558-8.13S55.905 6.052 42.182 6.61s-24.718 4.197-24.558 8.13c.16 3.932 11.414 6.667 25.137 6.11Z" stroke="#FFCB3D" stroke-width="1.057" stroke-miterlimit="24"/><path fill-rule="evenodd" clip-rule="evenodd" d="M12.103 40.11 5.6 33.583l5.786 2.076 7.217-3.02z" fill="#A85F00"/><path fill-rule="evenodd" clip-rule="evenodd" d="m18.605 32.638-7.218 3.02-5.786-2.076 8.228-1.758z" fill="#FA8900"/><path d="M60.8 91.2a1.6 1.6 0 1 0 0-3.2 1.6 1.6 0 0 0 0 3.2M62.4 80a.8.8 0 1 0 0-1.6.8.8 0 0 0 0 1.6" fill="#FFF6F0"/><path d="m66.34 24.656-4.132-3.204-3.204 4.132 4.132 3.205z" fill="#FF8847"/><path opacity=".3" fill-rule="evenodd" clip-rule="evenodd" d="M38.4 90.908v24.236l4.28-3.554V88z" fill="#fff"/><path fill-rule="evenodd" clip-rule="evenodd" d="m14.008 80.276-10.373 5.04L-7.2 79.2l6.587-3.651z" fill="#FFCD8F"/><path fill-rule="evenodd" clip-rule="evenodd" d="m-7.198 79.2 8.666 13.26 12.54-12.184-10.372 5.04z" fill="#FA8900"/><path fill-rule="evenodd" clip-rule="evenodd" d="m102.4 59.797-9.237 5.485-14.495-5.485 13.276-3.02z" fill="#FFCD8F"/><path fill-rule="evenodd" clip-rule="evenodd" d="M78.669 59.796 90.533 72.77 102.4 59.796l-9.218 5.485z" fill="#FA8900"/><path opacity=".5" fill-rule="evenodd" clip-rule="evenodd" d="M48 77.128v20.235l5.922 2.117V75.2z" fill="#fff"/><path d="M18.182 47.058c-.118 13.522-1.67 27.054-5.104 33.06" stroke="#997500" stroke-width=".995" stroke-miterlimit="3" stroke-linecap="round" stroke-linejoin="round"/><path fill-rule="evenodd" clip-rule="evenodd" d="M45.003 73.753 17.536 46.822l31.833 8.614 16.856-10.747z" fill="url(#c)"/><path opacity=".24" fill-rule="evenodd" clip-rule="evenodd" d="m45.003 73.753 4.366-18.318 16.856-10.747z" fill="#fff"/><path d="m66.225 44.688-31.833-8.614-16.856 10.747 31.832 8.614z" fill="#FA8900"/><path d="M41.633 38.475c6.713-2.69 11.465-6.594 10.614-8.72-.852-2.127-6.985-1.671-13.699 1.018s-11.465 6.594-10.613 8.72c.851 2.127 6.984 1.671 13.698-1.018Z" stroke="#FFCB3D" stroke-width=".684" stroke-miterlimit="1.5" stroke-linejoin="round"/><path d="M41.357 50.423c6.89.314 12.341-1.565 12.173-4.196-.169-2.631-5.891-5.019-12.783-5.333S28.406 42.46 28.574 45.09s5.891 5.019 12.783 5.333Z" stroke="#FA8900" stroke-width=".808" stroke-miterlimit="24"/><path d="m46.44 42.58-2.226-.98-1.014 2.304 2.227.98zm2.036 4.643-1.225-.823-.851 1.267 1.225.823z" fill="#FFF9EB" style="mix-blend-mode:overlay" opacity=".69"/><path opacity=".5" d="m55.52 34.767.016-.191a1.59 1.59 0 0 0 1.72-1.456l.191.016a1.59 1.59 0 0 0 1.456 1.72l-.016.19a1.59 1.59 0 0 0-1.72 1.457l-.191-.016a1.59 1.59 0 0 0-1.456-1.72M27.439 61.244l-.122-.368a3.216 3.216 0 0 0 2.032-4.073l.367-.121a3.216 3.216 0 0 0 4.074 2.03l.121.368a3.216 3.216 0 0 0-2.031 4.074l-.368.121a3.216 3.216 0 0 0-4.073-2.03M79.18 18.677l.126-.621a5.26 5.26 0 0 0 6.182-4.145l.621.126a5.26 5.26 0 0 0 4.144 6.182l-.125.62a5.26 5.26 0 0 0-6.182 4.145l-.62-.125a5.26 5.26 0 0 0-4.145-6.183M32.973 55.219l.013-.147c.676.06 1.27-.442 1.329-1.118l.147.014c-.06.676.441 1.27 1.118 1.329l-.014.147a1.227 1.227 0 0 0-1.329 1.117l-.147-.013a1.227 1.227 0 0 0-1.117-1.33" fill="#FFF9EB"/><path fill="#FFE6C7" style="mix-blend-mode:hue" d="M-12-12h120v120H-12z"/></g></g><defs><clipPath id="a"><path d="M0 8a8 8 0 0 1 8-8h80a8 8 0 0 1 8 8v80a8 8 0 0 1-8 8H8a8 8 0 0 1-8-8z" fill="#fff"/></clipPath><clipPath id="b"><path d="M0 12C0 5.373 5.373 0 12 0h72c6.627 0 12 5.373 12 12v72c0 6.627-5.373 12-12 12H12C5.373 96 0 90.627 0 84z" fill="#fff"/></clipPath><linearGradient id="c" x1="29.2" y1="87.6" x2="35.561" y2="44.049" gradientUnits="userSpaceOnUse"><stop stop-color="#613900"/><stop offset=".675" stop-color="#FA8900"/><stop offset="1" stop-color="#FFCD8F"/></linearGradient></defs></svg>